<svg xmlns="http://www.w3.org/2000/svg" width="50.768" height="54.534" viewBox="0 0 50.768 54.534"><defs><style>.a,.c,.d,.e{fill:#0151cc;}.a{opacity:0.1;}.b{fill:#fff;}.c{opacity:0.372;}.d{opacity:0.2;}</style></defs><g transform="translate(-1112.426 -1038.723)"><g transform="translate(1134.303 1041.194)"><path class="a" d="M1178.819,1065.164c1.838-1.779,4.44-3.074,6.416-4.313q.648-.406,1.279-.836c.028-.038.934-.714.975-.746.687-.535,1.377-1.066,2.075-1.587,1.673-1.249,3.382-2.447,5.074-3.669a17.911,17.911,0,0,0,2.635-6.915c0-.005-.127-.181-.187-.26-.023-.025-.047-.053-.07-.081-.05-.055-.1-.118-.152-.17a2.2,2.2,0,0,0-.259-.249,3.209,3.209,0,0,0-.3-.24,26.176,26.176,0,0,1-13.283,12.5c-2.048,2.651-4.011,5.081-5.3,6.662A8.087,8.087,0,0,1,1178.819,1065.164Z" transform="translate(-1177.718 -1046.098)"/></g><g transform="translate(1137.542 1048.198)"><path class="a" d="M1209.687,1067.553a.78.78,0,0,1-.041-.1c-.032-.067-.064-.139-.1-.207-.043-.084-.091-.167-.143-.249a25.682,25.682,0,0,1-18.856,9.515c-1.149.814-2.225,1.564-3.164,2.211.229,0,.458.015.689.037,3.209.3,6.49.217,9.735.2l.015-.014c.065-.06.123-.126.185-.187a2.368,2.368,0,0,0,.269-.155s8.731-4.318,11.515-10.756A2.486,2.486,0,0,0,1209.687,1067.553Z" transform="translate(-1187.386 -1067)"/></g><path class="b" d="M1174.877,1133.824a4.381,4.381,0,0,1-1.518-.272c-.4.008-.842.012-1.321.012h-6.848c-7.261,0-13.98-1.694-13.98-13.984,0-15.023,10.506-17.549,10.613-17.572a.806.806,0,0,1,.178-.02c1.885,0,16.213.161,16.213.161a7.49,7.49,0,0,1,5.06,2.967l4.243,9.341a4.23,4.23,0,0,1-2.093,5.589,1.228,1.228,0,0,1-.518.111c-.581,0-2.112,0-8.12-9.59l-8.939-.113a4.207,4.207,0,0,1-1.59-.336c-2.536,4.028-3.272,9.651-1.609,12.857a5.516,5.516,0,0,0,5.333,2.941h0a13.094,13.094,0,0,0,3.012-.391c1.256-.535,9.552-3.967,12.68-3.967a1.753,1.753,0,0,1,1.737.807,6.883,6.883,0,0,1,.747,3.307,3.277,3.277,0,0,1-1.758,2.922l-9.584,4.77a4.315,4.315,0,0,1-1.94.459Z" transform="translate(-25.79 -42.067)"/><g transform="translate(1126.237 1068.833)"><path class="a" d="M1176.473,1148.025a21.623,21.623,0,0,1-21.3-19.439,22.738,22.738,0,0,0-1.527,8.68c0,11.5,5.892,13.167,13.164,13.167h6.848c.537,0,1.025,0,1.464-.013a3.554,3.554,0,0,0,2.95-.1l9.583-4.771a2.3,2.3,0,0,0,1.211-1.573A21.132,21.132,0,0,1,1176.473,1148.025Z" transform="translate(-1153.645 -1128.586)"/></g><g transform="translate(1112.426 1038.723)"><path class="c" d="M1115.676,1138.271a.815.815,0,0,1-.817-.816v-28.992a.816.816,0,0,1,.817-.816h12.239a.816.816,0,0,1,.816.816v28.992a.815.815,0,0,1-.816.816Z" transform="translate(-1114.044 -1084.554)"/><g transform="translate(7.685 23.91)"><rect class="d" width="6.186" height="28.992"/></g><g transform="translate(0)"><path class="b" d="M1135.148,1180.3a2.59,2.59,0,1,1,2.589-2.587A2.592,2.592,0,0,1,1135.148,1180.3Z" transform="translate(-1125.813 -1129.419)"/><path class="e" d="M1162.351,1079.933a2.418,2.418,0,0,0-2.283-1.256,5.05,5.05,0,0,0,2.4-6.624l-4.243-9.34a8.156,8.156,0,0,0-5.683-3.441c2.949-1.966,7.028-5.281,8.882-9.518a1.9,1.9,0,0,0-.078-1.632l-.022-.053c-.017-.044-.036-.089-.058-.131l-.1-.221c-.081-.158-.158-.292-.238-.427a6.066,6.066,0,0,0-4.9-2.8,4.389,4.389,0,0,0-1.007.119,14.693,14.693,0,0,0,.46-2.22,1.61,1.61,0,0,0,.012-.2,1.933,1.933,0,0,0-.531-1.263,1.465,1.465,0,0,0-.1-.114l-.06-.072c-.055-.065-.111-.131-.172-.19a3.864,3.864,0,0,0-.414-.391,6.208,6.208,0,0,0-3.947-1.441,4.276,4.276,0,0,0-4.058,2.409c-2.484,5.433-14.569,19.884-14.69,20.028a1.974,1.974,0,0,0-.144.2c-.033.055-.061.112-.092.167a15.624,15.624,0,0,0-3.354,3.594v-2.49A1.631,1.631,0,0,0,1126.3,1061h-12.239a1.632,1.632,0,0,0-1.632,1.632v28.992a1.633,1.633,0,0,0,1.632,1.632H1126.3a1.632,1.632,0,0,0,1.632-1.632v-3.02c2.862,3.1,7.194,3.707,11.472,3.707h6.848c.427,0,.822,0,1.188-.008a5.2,5.2,0,0,0,1.651.268,5.1,5.1,0,0,0,2.3-.545l9.582-4.77a4.062,4.062,0,0,0,2.212-3.611A7.714,7.714,0,0,0,1162.351,1079.933Zm-36.055,11.692h-12.239v-28.992H1126.3Zm29.728-45.5a4.432,4.432,0,0,1,3.5,2.006c.064.106.124.211.178.315.034.068.066.14.1.207a.745.745,0,0,0,.041.1,2.493,2.493,0,0,1,.108.3c-2.187,5.056-8.04,8.8-10.452,10.18-3.07-.034-7.832-.085-10.8-.111,5.051-3.514,12.773-9.1,15.452-12.183A2.408,2.408,0,0,1,1156.024,1046.125Zm-8.331-4.314a2.667,2.667,0,0,1,2.574-1.456,4.581,4.581,0,0,1,2.922,1.079,2.17,2.17,0,0,1,.259.249c.055.052.1.115.152.17.024.028.047.056.07.081.06.08.187.255.187.26a14.679,14.679,0,0,1-1.032,3.776c-3.039,3.42-12.466,10.046-17.073,13.2-.122.033-.349.1-.662.215C1138.79,1054.831,1145.8,1045.948,1147.694,1041.811Zm12.553,43.987-9.583,4.771a3.517,3.517,0,0,1-1.576.371,3.605,3.605,0,0,1-1.375-.272c-.44.01-.928.013-1.464.013H1139.4c-4.925,0-9.214-.767-11.472-4.833v-17.378c2.844-6.5,8.284-7.731,8.284-7.731,1.885,0,16.2.161,16.2.161a7.018,7.018,0,0,1,4.327,2.49l4.242,9.34a3.408,3.408,0,0,1-1.688,4.509.434.434,0,0,1-.18.037c-1.522,0-5.783-6.561-7.664-9.582l-9.384-.121a3.38,3.38,0,0,1-1.867-.591c-4.29,6.086-4.989,17.686,3.992,17.686a13.857,13.857,0,0,0,3.249-.426.494.494,0,0,0,.054-.027s9.222-3.907,12.389-3.907c.524,0,.882.106,1.006.356C1161.768,1082.418,1162,1084.923,1160.247,1085.8Zm-1.823-6.974c-3.875.677-10.485,3.429-11.516,3.865a12.068,12.068,0,0,1-2.713.346,4.7,4.7,0,0,1-4.611-2.5c-1.47-2.834-.888-7.748,1.245-11.5a5.026,5.026,0,0,0,1.215.167l8.5.108C1155.358,1076.949,1157.337,1078.506,1158.424,1078.824Z" transform="translate(-1112.426 -1038.723)"/><path class="e" d="M1133.527,1179.5a3.4,3.4,0,1,0-3.406-3.4A3.407,3.407,0,0,0,1133.527,1179.5Zm0-5.178a1.773,1.773,0,1,1-1.774,1.775A1.772,1.772,0,0,1,1133.527,1174.32Z" transform="translate(-1124.192 -1127.802)"/></g></g></g></svg>