<svg xmlns="http://www.w3.org/2000/svg" width="72.16" height="54.534" viewBox="0 0 72.16 54.534"><defs><style>.a{fill:#fff;}.b,.c,.d,.e,.f{fill:#0151cc;}.c{opacity:0.15;}.d{opacity:0.1;}.e{opacity:0.372;}.f{opacity:0.2;}</style></defs><g transform="translate(-862.699 -573.324)"><g transform="translate(880.314 573.324)"><g transform="translate(0 0)"><g transform="translate(0 8.488)"><path class="a" d="M2.434,0H50.108a2.434,2.434,0,0,1,2.434,2.434V24.446a2.434,2.434,0,0,1-2.434,2.434H2.438A2.438,2.438,0,0,1,0,24.443V2.434A2.434,2.434,0,0,1,2.434,0Z" transform="translate(1.002)"/><g transform="translate(0 1.569)"><path class="b" d="M905.566,597.8v9.21a7.864,7.864,0,0,1,2-.265v-8.437A7.824,7.824,0,0,1,905.566,597.8Z" transform="translate(-905.566 -597.8)"/><path class="b" d="M1011.185,598.267c-.219-.018-.438-.032-.656-.049v24.115H994.718a6.263,6.263,0,0,1-.167,2h15.978a2,2,0,0,0,2-2V598.182A4.836,4.836,0,0,1,1011.185,598.267Z" transform="translate(-957.985 -598.025)"/></g></g><path class="c" d="M2.434,0H50.1a2.438,2.438,0,0,1,2.438,2.438V7.056A2.434,2.434,0,0,1,50.108,9.49H2.434A2.434,2.434,0,0,1,0,7.056V2.434A2.434,2.434,0,0,1,2.434,0Z" transform="translate(1.002 1)"/><path class="b" d="M958.11,575.326v7.488H907.568v-7.488H958.11m0-2H907.568a2,2,0,0,0-2,2v7.488a2,2,0,0,0,2,2H958.11a2,2,0,0,0,2-2v-7.488a2,2,0,0,0-2-2Z" transform="translate(-905.566 -573.324)"/><g transform="translate(2.002 7.263)"><rect class="d" width="50.542" height="2.226"/></g></g></g><g transform="translate(862.699 591.488)"><g transform="translate(0 0)"><g transform="translate(0 8.488)"><path class="a" d="M2.434,0H50.106a2.438,2.438,0,0,1,2.438,2.438V24.446A2.434,2.434,0,0,1,50.11,26.88H2.434A2.434,2.434,0,0,1,0,24.446V2.434A2.434,2.434,0,0,1,2.434,0Z" transform="translate(1.002)"/><g transform="translate(0 0.755)"><path class="b" d="M915.244,641v24.147H864.7V640.822a6.2,6.2,0,0,1-1.977-.8,1.951,1.951,0,0,0-.025.247v24.877a2,2,0,0,0,2,2h50.543a2,2,0,0,0,2-2V640.77C916.579,640.877,915.912,640.951,915.244,641Z" transform="translate(-862.699 -640.021)"/></g></g><g transform="translate(2.002 9.49)"><path class="d" d="M908.627,653.188A35.883,35.883,0,0,1,867.57,660.1V665.5h50.543V640.621h-1.348A36,36,0,0,1,908.627,653.188Z" transform="translate(-867.57 -640.621)"/></g><path class="e" d="M2.434,0H50.106a2.438,2.438,0,0,1,2.438,2.438V7.056A2.434,2.434,0,0,1,50.11,9.49H2.434A2.434,2.434,0,0,1,0,7.056V2.434A2.434,2.434,0,0,1,2.434,0Z" transform="translate(1.002 1)"/><path class="b" d="M915.244,619.529v7.488H864.7v-7.488h50.543m0-2H864.7a2,2,0,0,0-2,2v7.488a2,2,0,0,0,2,2h50.543a2,2,0,0,0,2-2v-7.488a2,2,0,0,0-2-2Z" transform="translate(-862.699 -617.527)"/><g transform="translate(2.002 7.262)"><rect class="f" width="50.543" height="2.228"/></g></g><g transform="translate(12.172 16.203)"><g transform="translate(0 0.929)"><path class="b" d="M899.373,659.219l-7.053,3.843v4.148l7.053,3.843v-3.735l-4.008-2.185,4.008-2.183Z" transform="translate(-892.32 -659.219)"/><path class="b" d="M948.723,659.219l7.052,3.843v4.148l-7.052,3.843v-3.735l4.01-2.185-4.01-2.183Z" transform="translate(-925.546 -659.219)"/></g><path class="b" d="M927.1,658.837l-5.769,10.694-3.477-1.872,5.769-10.7Z" transform="translate(-907.36 -656.957)"/></g></g></g></svg>