<svg xmlns="http://www.w3.org/2000/svg" width="199.678" height="194.66" viewBox="0 0 199.678 194.66"><defs><style>.a,.g,.i{fill:#0151cc;}.a{opacity:0.1;}.b{fill:#ebebeb;}.c{fill:#f5f5f5;}.d{fill:#e0e0e0;}.e{fill:#263238;}.f{fill:#fafafa;}.g,.p{opacity:0.3;}.h{fill:#fff;}.j{fill:#79f2c1;}.k{fill:#0a1e42;}.l{fill:#253858;}.m{fill:#ffbe9d;}.n{fill:#f69110;}.o{fill:#eb996e;}</style></defs><g transform="translate(-138.914 -968)"><path class="a" d="M71.048,275.433c2.731,5.227,8.323,8.449,12.679,12.549,9.971,9.386,13.355,23.474,22.672,33.331,7.964,8.427,17.2,21.037,27.509,26.481,13.005,6.867,28.958,5.854,43.191,6.184,21.632.5,44.013,3.758,56.833-16.929,22.342-36.052,30.036-62.785,29.782-101.424-2.144-29.513-20.127-43.654-30.751-54.669-4.275-4.432-10.485-6.436-16.564-7.412-9.108-1.464-18.51-2.79-27.741-2.891-9.538-.1-19.237,3.285-28.26-1.2-7.257-3.608-11.4-12.843-19.688-14.423-10.763-2.052-28.6,9.229-36.2,15.965C94.951,179.459,92.6,189.126,94,201.359c1.082,9.424-2.85,14-7.6,21.448-7.542,11.81-21.981,37.014-15.866,51.528Q70.768,274.9,71.048,275.433Z" transform="translate(-15.869 1231.719) rotate(-90)"/><g transform="translate(125.4 895.019)"><g transform="translate(74.119 115.085)"><g transform="translate(0 0)"><g transform="translate(0.883)"><path class="b" d="M148.031,149.635l.43,8.135a.509.509,0,0,0,.47.516h12.547a.515.515,0,0,0,.471-.55V151.4a.514.514,0,0,0-.474-.55l-7.717.058a.437.437,0,0,1-.333-.158l-1.341-1.542a.438.438,0,0,0-.33-.158H148.5A.52.52,0,0,0,148.031,149.635Z" transform="translate(-148.03 -149.052)"/></g><g transform="translate(1.093 0.838)"><rect class="c" width="13.709" height="9.561"/></g><g transform="translate(0 1.3)"><path class="b" d="M145.869,152.632l1.047,9.971a.324.324,0,0,0,.3.31h13.36a.326.326,0,0,0,.3-.325l.673-9.971a.336.336,0,0,0-.3-.381h-15.08A.338.338,0,0,0,145.869,152.632Z" transform="translate(-145.866 -152.235)"/></g><g transform="translate(2.211 16.932)"><path class="d" d="M162.544,190.623c0,.059-2.522.107-5.631.107s-5.632-.048-5.632-.107,2.521-.106,5.632-.106S162.544,190.564,162.544,190.623Z" transform="translate(-151.281 -190.517)"/></g><g transform="translate(4.217 18.406)"><path class="d" d="M163.445,194.233a30.943,30.943,0,0,1-3.625.107,30.936,30.936,0,0,1-3.626-.107,31.1,31.1,0,0,1,3.626-.106A31.111,31.111,0,0,1,163.445,194.233Z" transform="translate(-156.194 -194.127)"/></g></g></g><g transform="translate(24.6 244.279)"><path class="e" d="M203.784,465.539c0,.059-40.115.106-89.588.106-49.49,0-89.6-.047-89.6-.106s40.106-.107,89.6-.107C163.669,465.432,203.784,465.48,203.784,465.539Z" transform="translate(-24.6 -465.432)"/></g><g transform="translate(57.366 91.642)"><g transform="translate(0.107 0.107)"><path class="f" d="M183.617,160.972H151.872l-6.063,9-5.916-9H108.711a3.611,3.611,0,0,1-3.611-3.611V95.514a3.611,3.611,0,0,1,3.611-3.611h74.906a3.611,3.611,0,0,1,3.611,3.611v61.847A3.611,3.611,0,0,1,183.617,160.972Z" transform="translate(-105.1 -91.903)"/></g><path class="e" d="M183.462,160.817s.067-.007.2-.016a3.584,3.584,0,0,0,2.521-1.257,3.531,3.531,0,0,0,.761-1.5,4.061,4.061,0,0,0,.083-.471c.006-.163.022-.328.018-.5q0-.515,0-1.074c0-1.49-.006-3.208-.01-5.142-.008-7.741-.02-18.937-.034-32.771,0-6.918-.008-14.5-.013-22.63a3.539,3.539,0,0,0-2.435-3.446,4.276,4.276,0,0,0-1.523-.173l-6.4,0-13.366,0-28.7.006-15.181,0h-10.7c-.166,0-.32.013-.48.019a3.964,3.964,0,0,0-.469.085,3.482,3.482,0,0,0-2.57,2.577,7.436,7.436,0,0,0-.1,1.751v5.325q0,3.535,0,7.026,0,6.982,0,13.771c0,9.046,0,17.809-.005,26.21q0,3.15,0,6.232v1.536a8.2,8.2,0,0,0,.067,1.5,3.523,3.523,0,0,0,3.022,2.8c.477.049.985.02,1.477.029h2.95l5.781,0,21.4.011h.044l.024.036,5.91,9h-.122l6.071-8.993.019-.029h.034l23.4.03,6.2.017,1.6.009c.358,0,.54.009.54.009s-.182.006-.54.009l-1.6.009-6.2.017-23.4.03.053-.029-6.056,9-.062.091-.06-.092-5.922-8.995.067.036-21.4.011-5.781,0h-2.95c-.5-.009-.985.023-1.5-.029a3.714,3.714,0,0,1-3.189-2.954,8.307,8.307,0,0,1-.072-1.541q0-.766,0-1.536,0-3.081,0-6.232c0-8.4,0-17.165,0-26.21q0-6.784,0-13.771,0-3.491,0-7.026V98.067q0-.889,0-1.78V95.4a3.93,3.93,0,0,1,.108-.909,3.695,3.695,0,0,1,2.727-2.733,4.172,4.172,0,0,1,.5-.09c.167-.007.34-.023.5-.02h10.7l15.181,0,28.7.006,13.366,0,6.4,0a4.458,4.458,0,0,1,1.579.183,3.736,3.736,0,0,1,2.268,2.088,3.859,3.859,0,0,1,.287,1.529c0,8.135-.009,15.712-.013,22.63-.014,13.834-.026,25.031-.034,32.771,0,1.934-.007,3.652-.01,5.142q0,.558,0,1.074c0,.171-.014.342-.021.507a4.158,4.158,0,0,1-.087.478,3.62,3.62,0,0,1-2.747,2.68,3.35,3.35,0,0,1-.586.072C183.529,160.818,183.462,160.817,183.462,160.817Z" transform="translate(-104.839 -91.642)"/><g transform="translate(28.896 36.618)"><g transform="translate(0 0.216)"><path class="e" d="M178.721,183.149c0,.8-.6,1.3-1.562,1.3h-.724v.991H175.6v-3.6h1.556C178.12,181.844,178.721,182.342,178.721,183.149Zm-.842,0c0-.4-.257-.627-.765-.627h-.678v1.248h.678C177.621,183.77,177.878,183.539,177.878,183.149Z" transform="translate(-175.603 -181.844)"/></g><g transform="translate(3.446 1.007)"><path class="e" d="M186.667,185.009v1.577h-.75v-.344a.907.907,0,0,1-.842.385c-.647,0-1.032-.359-1.032-.837s.344-.827,1.187-.827h.637c0-.344-.205-.544-.637-.544a1.329,1.329,0,0,0-.8.257l-.287-.56a2.121,2.121,0,0,1,1.192-.334C186.179,183.781,186.667,184.171,186.667,185.009Zm-.8.7v-.282h-.55c-.375,0-.493.138-.493.323,0,.2.169.334.452.334A.59.59,0,0,0,185.866,185.712Z" transform="translate(-184.043 -183.781)"/></g><g transform="translate(6.528 1.007)"><path class="e" d="M191.59,186.329l.267-.575a1.89,1.89,0,0,0,.96.267c.37,0,.508-.1.508-.252,0-.452-1.669.01-1.669-1.094,0-.524.472-.894,1.279-.894a2.275,2.275,0,0,1,1.063.241l-.267.57a1.589,1.589,0,0,0-.8-.205c-.359,0-.513.113-.513.257,0,.472,1.669.016,1.669,1.1,0,.514-.477.878-1.3.878A2.373,2.373,0,0,1,191.59,186.329Z" transform="translate(-191.59 -183.781)"/></g><g transform="translate(9.256 1.007)"><path class="e" d="M198.269,186.329l.267-.575a1.89,1.89,0,0,0,.96.267c.37,0,.508-.1.508-.252,0-.452-1.669.01-1.669-1.094,0-.524.472-.894,1.279-.894a2.274,2.274,0,0,1,1.063.241l-.267.57a1.589,1.589,0,0,0-.8-.205c-.359,0-.513.113-.513.257,0,.472,1.669.016,1.669,1.1,0,.514-.477.878-1.3.878A2.373,2.373,0,0,1,198.269,186.329Z" transform="translate(-198.269 -183.781)"/></g><g transform="translate(11.834 1.048)"><path class="e" d="M209.385,183.882l-1,2.763h-.77l-.622-1.715-.642,1.715h-.771l-1-2.763h.755l.652,1.869.678-1.869h.678l.657,1.869.673-1.869Z" transform="translate(-204.583 -183.882)"/></g><g transform="translate(16.729 1.007)"><path class="e" d="M216.57,185.2a1.521,1.521,0,1,1,1.52,1.423A1.422,1.422,0,0,1,216.57,185.2Zm2.224,0a.709.709,0,1,0-.7.765A.7.7,0,0,0,218.794,185.2Z" transform="translate(-216.57 -183.781)"/></g><g transform="translate(20.299 1.007)"><path class="e" d="M227.027,183.781v.74c-.067,0-.118-.01-.18-.01a.679.679,0,0,0-.735.771v1.3h-.8v-2.763h.765v.365A1.115,1.115,0,0,1,227.027,183.781Z" transform="translate(-225.312 -183.781)"/></g><g transform="translate(22.271)"><path class="e" d="M233.152,181.316v3.811h-.765v-.318a1.062,1.062,0,0,1-.863.359,1.423,1.423,0,0,1,0-2.845,1.06,1.06,0,0,1,.827.334v-1.341Zm-.786,2.429a.709.709,0,1,0-.7.765A.7.7,0,0,0,232.366,183.745Z" transform="translate(-230.142 -181.316)"/></g></g><g transform="translate(13.595 46.634)"><rect class="g" width="9.678" height="13.391" rx="4.839"/></g><g transform="translate(13.595 46.551)"><g transform="translate(23.099 0.083)"><rect class="g" width="9.417" height="13.391" rx="4.708"/></g><g transform="translate(11.781 0.083)"><rect class="g" width="9.417" height="13.391" rx="4.708"/></g><g transform="translate(34.364 0.083)"><rect class="g" width="9.683" height="13.391" rx="4.841"/></g><g transform="translate(45.47 0.083)"><rect class="g" width="9.683" height="13.391" rx="4.841"/></g><g transform="translate(3.247 4.542)"><path class="h" d="M148.924,218.642l1.035.561-.466.779-1.045-.617.019,1.149h-.893l.009-1.158-1.045.627-.456-.779,1.035-.561-1.035-.57.456-.779,1.045.627-.009-1.159h.893l-.019,1.159,1.045-.627.466.779Z" transform="translate(-146.084 -216.762)"/></g><g transform="translate(14.527 4.48)"><path class="h" d="M176.548,218.491l1.035.56-.466.779-1.045-.617.019,1.149H175.2l.009-1.158-1.045.627-.456-.779,1.035-.56-1.035-.57.456-.779,1.045.627-.009-1.159h.893l-.019,1.159,1.045-.627.466.779Z" transform="translate(-173.708 -216.61)"/></g><g transform="translate(26.08 4.48)"><path class="h" d="M204.838,218.491l1.035.56-.466.779-1.045-.617.019,1.149h-.893l.01-1.158-1.045.627-.456-.779,1.035-.56-1.035-.57.456-.779,1.045.627-.01-1.159h.893l-.019,1.159,1.045-.627.466.779Z" transform="translate(-201.998 -216.61)"/></g><g transform="translate(37.27 4.48)"><path class="h" d="M232.242,218.491l1.035.56-.465.779-1.045-.617.019,1.149h-.893l.01-1.158-1.045.627-.456-.779,1.035-.56-1.035-.57.456-.779,1.045.627-.01-1.159h.893l-.019,1.159,1.045-.627.465.779Z" transform="translate(-229.402 -216.61)"/></g><g transform="translate(47.629 9.896)"><path class="h" d="M260.135,229.98a33.935,33.935,0,0,1-5.365,0,33.809,33.809,0,0,1,5.365,0Z" transform="translate(-254.77 -229.873)"/></g></g><g transform="translate(30.797 11.115)"><circle class="i" cx="10.815" cy="10.815" r="10.815"/><g transform="translate(7.244 5.729)"><g transform="translate(1.488)"><path class="h" d="M201.82,136.012h-.18V135a2.11,2.11,0,1,1,4.219,0v.822h-.18V135a1.93,1.93,0,1,0-3.859,0Z" transform="translate(-201.64 -132.892)"/></g><g transform="translate(0 3.03)"><path class="h" d="M204.25,147.454h-5.363a.891.891,0,0,1-.89-.89V141.2a.89.89,0,0,1,.89-.889h5.363a.89.89,0,0,1,.89.889v5.364A.891.891,0,0,1,204.25,147.454Zm-5.363-6.963a.71.71,0,0,0-.71.709v5.364a.711.711,0,0,0,.71.71h5.363a.711.711,0,0,0,.71-.71V141.2a.71.71,0,0,0-.71-.709Z" transform="translate(-197.997 -140.311)"/><g transform="translate(2.756 2.064)"><path class="h" d="M205.587,147.049a.842.842,0,1,1,.842-.842A.843.843,0,0,1,205.587,147.049Zm0-1.5a.662.662,0,1,0,.662.662A.662.662,0,0,0,205.587,145.545Z" transform="translate(-204.745 -145.365)"/><g transform="translate(0.726 1.555)"><rect class="h" width="0.18" height="1.519"/></g></g></g></g></g><g transform="translate(70.999 2.261)"><circle class="g" cx="3.341" cy="3.341" r="3.341" transform="translate(0 6.525) rotate(-77.587)"/><g transform="translate(2.797 2.797)"><path class="h" d="M285.658,106.4a.1.1,0,0,1-.072-.174l2.163-2.163a.1.1,0,1,1,.145.144l-2.163,2.163A.1.1,0,0,1,285.658,106.4Z" transform="translate(-285.556 -104.029)"/><path class="h" d="M287.821,106.4a.1.1,0,0,1-.072-.03l-2.163-2.163a.1.1,0,0,1,.145-.144l2.163,2.163a.1.1,0,0,1-.072.174Z" transform="translate(-285.556 -104.029)"/></g></g></g><g transform="translate(28.972 175.895)"><g transform="translate(0 0)"><g transform="translate(0 12.136)"><path class="j" d="M52.764,363.563S41.975,351.146,37.9,338.728s-2.137-10.993-2.137-10.993,5.5,12.063,9.669,17.889S57.039,360,57.039,360Z" transform="translate(-35.307 -327.685)"/></g><g transform="translate(18.429 13.798)"><path class="j" d="M81.616,332.078a.629.629,0,0,0-1.17.4c.658,4.362,2.08,14.6,2.024,21.237-.072,8.624,0,11.958,0,11.958h4.491s-.8-17.828-1.812-23.264A37.32,37.32,0,0,0,81.616,332.078Z" transform="translate(-80.437 -331.756)"/></g><g transform="translate(22.055 12.26)"><path class="j" d="M89.318,361.995a47.56,47.56,0,0,0,3.7-13.408c.37-3.174-.29-7.465-1.271-13.19a35.517,35.517,0,0,1-.568-6.347,1.071,1.071,0,0,1,2.012-.5A28.511,28.511,0,0,1,95.7,334.89c1.087,5.653,2.319,8.479,1.377,13.842s-4.421,13.625-4.421,13.625Z" transform="translate(-89.318 -327.99)"/></g><g transform="translate(26.1 5.386)"><path class="j" d="M99.223,352.4s11.846-25.457,12.667-29.234,3.613-12.48,3.941-11.987.821,5.091-1.314,10.345-11.249,31.652-11.249,31.652H99.223" transform="translate(-99.223 -311.156)"/></g><g transform="translate(0.144 12.472)"><path class="e" d="M56.274,361.526a2.422,2.422,0,0,1-.332-.228c-.21-.159-.529-.383-.918-.7a41.824,41.824,0,0,1-3.183-2.81,53.408,53.408,0,0,1-8.594-11.03,72.28,72.28,0,0,1-5.866-12.707c-.6-1.691-1.031-3.075-1.312-4.037-.145-.479-.245-.856-.314-1.11a2.333,2.333,0,0,1-.092-.392,2.46,2.46,0,0,1,.14.378l.36,1.1c.31.952.771,2.326,1.387,4.005a76.858,76.858,0,0,0,5.915,12.639,55.768,55.768,0,0,0,8.5,11.032c1.268,1.26,2.353,2.22,3.121,2.862.378.328.686.564.887.737A2.4,2.4,0,0,1,56.274,361.526Z" transform="translate(-35.661 -328.51)"/></g><g transform="translate(19.014 14.381)"><path class="e" d="M84.909,352.078a4.3,4.3,0,0,1-.106-.747l-.218-2.041c-.187-1.722-.48-4.1-.9-6.707s-.887-4.957-1.249-6.651l-.432-2.006a4.289,4.289,0,0,1-.133-.743,4.373,4.373,0,0,1,.229.719c.133.467.308,1.147.511,1.99.407,1.687.9,4.035,1.324,6.651s.685,5,.827,6.729c.072.865.118,1.566.138,2.05A4.255,4.255,0,0,1,84.909,352.078Z" transform="translate(-81.869 -333.184)"/></g><g transform="translate(23.619 12.619)"><path class="e" d="M94.357,328.868a1.82,1.82,0,0,1,.14.323l.355.946c.157.41.337.916.508,1.516s.4,1.272.576,2.038l.294,1.2c.1.417.17.858.261,1.31.194.9.313,1.884.457,2.912a43.516,43.516,0,0,1-.482,13.457c-.217,1.016-.407,1.985-.664,2.873-.123.445-.225.88-.354,1.288l-.379,1.173c-.226.752-.5,1.408-.72,1.992s-.43,1.078-.615,1.475l-.422.918a1.849,1.849,0,0,1-.163.312,1.833,1.833,0,0,1,.116-.334l.378-.935c.171-.4.373-.9.574-1.487s.468-1.244.682-2l.361-1.173c.124-.408.22-.842.338-1.286.248-.886.428-1.852.638-2.863a44.973,44.973,0,0,0,.48-13.387c-.137-1.024-.248-2-.432-2.9-.086-.451-.151-.891-.245-1.307s-.188-.814-.276-1.2c-.16-.766-.375-1.441-.538-2.041s-.324-1.11-.466-1.524l-.31-.96A1.845,1.845,0,0,1,94.357,328.868Z" transform="translate(-93.147 -328.868)"/></g><g transform="translate(28.036 5.918)"><path class="e" d="M118.5,312.458a.373.373,0,0,1-.009.114c-.014.089-.031.2-.052.331-.052.29-.118.72-.234,1.267-.229,1.1-.61,2.671-1.2,4.583s-1.4,4.155-2.359,6.618-2.067,5.15-3.118,8.008c-1.068,2.854-1.891,5.639-2.664,8.167s-1.493,4.8-2.2,6.674a42.633,42.633,0,0,1-1.87,4.353c-.242.5-.461.88-.6,1.139l-.166.291c-.038.065-.06.1-.064.1a.4.4,0,0,1,.042-.107l.143-.3c.126-.266.33-.648.558-1.158.477-1.009,1.119-2.493,1.791-4.372s1.386-4.147,2.14-6.68,1.578-5.325,2.649-8.187c1.054-2.865,2.172-5.548,3.139-8.006s1.8-4.687,2.405-6.587,1.019-3.464,1.277-4.55c.13-.543.211-.969.279-1.255l.077-.326A.4.4,0,0,1,118.5,312.458Z" transform="translate(-103.965 -312.458)"/></g><g transform="translate(4.317)"><path class="j" d="M47.605,298.261a1.019,1.019,0,0,0-1.679,1.04,29.1,29.1,0,0,0,1.488,3.828c1.628,3.46,6.412,15.878,8.651,22.7s5.395,19.542,5.395,19.542l4.782-.775s-4.375-20.9-8.65-28.437C54.159,310.105,50.724,301.359,47.605,298.261Z" transform="translate(-45.878 -297.967)"/><g transform="translate(11.494 32.125)"><path class="e" d="M74.029,376.638a2.94,2.94,0,0,1,.247.573c.141.375.334.923.551,1.606.44,1.364.979,3.269,1.522,5.386s.993,4.044,1.307,5.44l.36,1.657a2.941,2.941,0,0,1,.1.616,2.96,2.96,0,0,1-.195-.592l-.438-1.638-1.378-5.42c-.543-2.114-1.053-4.023-1.448-5.4l-.474-1.626A2.991,2.991,0,0,1,74.029,376.638Z" transform="translate(-74.026 -376.638)"/></g><g transform="translate(0.552 0.215)"><path class="e" d="M64.663,345.293a.492.492,0,0,1-.027-.127l-.054-.376c-.05-.331-.1-.822-.2-1.448-.176-1.256-.489-3.066-1-5.275a75.548,75.548,0,0,0-2.238-7.639c-.981-2.833-2.211-5.894-3.605-9.062-2.813-6.328-5.623-11.941-7.47-16.092-.933-2.07-1.656-3.76-2.132-4.938-.243-.587-.417-1.049-.538-1.36l-.133-.356a.5.5,0,0,1-.037-.125.505.505,0,0,1,.061.115l.156.347.581,1.341c.5,1.165,1.25,2.843,2.2,4.9,1.887,4.128,4.721,9.726,7.539,16.065,1.4,3.172,2.623,6.243,3.594,9.088a71.94,71.94,0,0,1,2.192,7.675,53.435,53.435,0,0,1,.926,5.3c.086.63.115,1.123.149,1.456l.029.379A.5.5,0,0,1,64.663,345.293Z" transform="translate(-47.229 -298.493)"/></g><g transform="translate(15.128 26.535)"><path class="e" d="M88.161,383.04a5.136,5.136,0,0,1-.161-.8l-.372-2.2c-.33-1.853-.833-4.4-1.556-7.182s-1.523-5.253-2.143-7.03l-.748-2.1a5.046,5.046,0,0,1-.254-.779,5.1,5.1,0,0,1,.346.743c.206.486.494,1.192.824,2.075a69.62,69.62,0,0,1,2.22,7.027,72.973,72.973,0,0,1,1.488,7.216c.136.933.241,1.689.293,2.214A5.022,5.022,0,0,1,88.161,383.04Z" transform="translate(-82.924 -362.948)"/></g></g><g transform="translate(11.983 45.94)"><g transform="translate(3.849)"><rect class="k" width="18.665" height="22.741"/></g><rect class="l" width="16.559" height="22.741"/></g></g></g><g transform="translate(72.998 117.056)"><g transform="translate(35.11 52.763)"><g transform="translate(29.489)"><path class="m" d="M336.269,284.51l-9.813-1.423-19.63,2.9-5.51,1.948.977,12.047,18.872,3.476,12.736-3.774,4.815-7.084Z" transform="translate(-301.316 -283.086)"/><g transform="matrix(0.998, 0.07, -0.07, 0.998, -11.406, -60.417)"><path class="n" d="M541.736,224.266a32.068,32.068,0,0,0,2.763-6.611,10.768,10.768,0,0,0-.369-7.035c-.579-1.274-1.489-2.392-1.944-3.715-.625-1.822-.37-3.971-1.5-5.533-1.763-2.44-5.535-1.871-8.26-3.149-2.123-1-3.606-3.142-5.838-3.858-1.951-.625-4.078-.026-5.96.78a22.476,22.476,0,0,1-5.751,2.1,40.4,40.4,0,0,1-4.376.011,5.766,5.766,0,0,0-4.038,1.392,2.772,2.772,0,0,0-.13,3.9c-2.554-.433-4.96,2.117-4.927,4.707a7.046,7.046,0,0,0,4.341,5.948,15.435,15.435,0,0,0,7.628.947c7.311-.57,14.658-3.349,19.635-8.735" transform="translate(-501.409 -194.105)"/><g transform="translate(5.318 4.008)"><g transform="translate(1.675 1.269)"><path class="m" d="M532.7,217.252l4.982,36.2a10.871,10.871,0,0,1-9.821,12.311h0a10.875,10.875,0,0,1-11.72-9.365c-.372-2.725-.688-5-.745-5.276,0,0-9.335.4-11.256-8.628-.928-4.364-2.108-13.508-3.08-21.793a17.2,17.2,0,0,1,13.717-18.857l.873-.174C525.178,200.342,531.632,207.691,532.7,217.252Z" transform="translate(-500.941 -201.518)"/><g transform="translate(14.413 43.769)"><path class="o" d="M516.811,268.705a21.465,21.465,0,0,0,11.131-5.712s-1.487,7.073-10.684,8.062Z" transform="translate(-516.811 -262.993)"/></g><g transform="translate(2.59 13.696)"><g transform="translate(0)"><g transform="translate(0.325 5.138)"><g transform="translate(0)"><g transform="translate(0 2.473)"><g transform="translate(1.247 4.129)"><path class="e" d="M543.152,238.691a1.317,1.317,0,0,0,1.507,1.055,1.261,1.261,0,0,0,1.1-1.432,1.32,1.32,0,0,0-1.506-1.057A1.262,1.262,0,0,0,543.152,238.691Z" transform="translate(-543.136 -237.244)"/></g><path class="e" d="M541.421,233.379c.194.136,1.028-.784,2.421-1.059,1.386-.293,2.55.218,2.666.018.06-.09-.164-.362-.673-.6a3.625,3.625,0,0,0-2.177-.222,3.478,3.478,0,0,0-1.885,1.053C541.411,232.986,541.327,233.32,541.421,233.379Z" transform="translate(-541.386 -231.445)"/></g><g transform="translate(13.726)"><g transform="translate(0.495 4.362)"><path class="e" d="M524.929,235.546a1.318,1.318,0,0,0,1.508,1.055,1.26,1.26,0,0,0,1.1-1.432,1.319,1.319,0,0,0-1.506-1.056A1.261,1.261,0,0,0,524.929,235.546Z" transform="translate(-524.913 -234.099)"/></g><g transform="translate(0)"><path class="e" d="M522.141,229.906c.194.136,1.03-.785,2.421-1.059,1.386-.293,2.55.218,2.667.018.059-.09-.163-.362-.674-.6a3.617,3.617,0,0,0-2.177-.223,3.476,3.476,0,0,0-1.884,1.053C522.133,229.513,522.047,229.847,522.141,229.906Z" transform="translate(-522.106 -227.972)"/></g></g><g transform="translate(7 1.542)"><g transform="translate(0)"><path class="e" d="M537.235,241.856a9.377,9.377,0,0,0-2.341.044c-.362.034-.713.031-.821-.2a1.838,1.838,0,0,1,.026-1.1q.243-1.389.51-2.915c.689-4.143,1.112-7.521.946-7.547s-.862,3.31-1.551,7.453q-.242,1.529-.463,2.922a2.1,2.1,0,0,0,.094,1.431.909.909,0,0,0,.688.4,2.426,2.426,0,0,0,.62-.037A9.217,9.217,0,0,0,537.235,241.856Z" transform="translate(-533.461 -230.138)"/></g></g><g transform="translate(11.363 13.403)"><path class="e" d="M530.535,246.8c-.229.032.071,1.542-1.008,2.872s-2.719,1.485-2.689,1.7c0,.1.417.221,1.1.1a3.832,3.832,0,0,0,2.261-1.333,3.34,3.34,0,0,0,.749-2.389C530.88,247.109,530.637,246.768,530.535,246.8Z" transform="translate(-526.838 -246.796)"/></g></g></g><g transform="translate(12.618)"><path class="n" d="M522.225,222.447c.213.351,1.567-.106,3.238-.235,1.669-.163,3.081.052,3.229-.331.064-.181-.237-.491-.842-.751a5.639,5.639,0,0,0-4.927.431C522.372,221.923,522.13,222.28,522.225,222.447Z" transform="translate(-522.205 -220.755)"/></g><g transform="translate(0 3.422)"><path class="n" d="M542.435,227.556c.308.267,1.2-.252,2.35-.5,1.141-.286,2.17-.213,2.329-.589.066-.179-.15-.466-.637-.679a3.477,3.477,0,0,0-3.77.875C542.365,227.071,542.3,227.424,542.435,227.556Z" transform="translate(-542.367 -225.561)"/></g></g></g></g><g transform="translate(34.033 23.055)"><g transform="translate(0)"><path class="m" d="M497.4,232.916c.141-.1,5.852-3.082,6.891,3.146s-5.428,5.986-5.469,5.81S497.4,232.916,497.4,232.916Z" transform="translate(-497.402 -232.116)"/></g><g transform="translate(2.626 1.94)"><path class="o" d="M499.995,239.979c.024-.024.121.058.319.112a1.1,1.1,0,0,0,.814-.119,2.722,2.722,0,0,0,.84-2.616,3.632,3.632,0,0,0-.562-1.5,1.272,1.272,0,0,0-.955-.7.561.561,0,0,0-.591.4c-.054.188.006.306-.025.322-.015.019-.151-.082-.144-.347a.7.7,0,0,1,.18-.431.828.828,0,0,1,.573-.259,1.546,1.546,0,0,1,1.294.777,3.73,3.73,0,0,1,.666,1.673,2.856,2.856,0,0,1-1.134,2.954,1.179,1.179,0,0,1-1.02,0C500.031,240.128,499.975,239.994,499.995,239.979Z" transform="translate(-499.69 -234.841)"/></g></g><g transform="translate(0)"><path class="n" d="M506.227,211.783c1.069,2.3,6.565,3.191,10.593,1.975,3.714-1.121,5.061-3.479,7.424-5.533,1.5-1.3,1.5-1.3,3.934-1.553,1.972-.2,3.555,1.76,5.046,3.066-.829,4.95,1.371,9.851,3.516,14.388a2.51,2.51,0,0,0,1.006,1.284c.844.416,1.853-.242,2.357-1.037a7.793,7.793,0,0,0,.873-4.371,25.974,25.974,0,0,0-2.065-10.027,17.672,17.672,0,0,0-6.512-7.8,16.743,16.743,0,0,0-12.387-2.052,20.565,20.565,0,0,0-10.86,6.519,12.041,12.041,0,0,0-2.926,5.138" transform="translate(-506.227 -199.735)"/></g></g><g transform="translate(5.684 22.293)"><g transform="translate(0 2.579)"><path class="e" d="M549.5,235.28c-.053,0-.035-.537-.283-1.447a6.012,6.012,0,0,0-2.205-3.2,5.858,5.858,0,0,0-5.512-.793,5.736,5.736,0,0,0-2.681,2.026,5.768,5.768,0,0,0,0,6.832,5.74,5.74,0,0,0,2.681,2.026,5.862,5.862,0,0,0,5.513-.793,6.017,6.017,0,0,0,2.2-3.2c.248-.91.23-1.45.283-1.447a1.14,1.14,0,0,1,.031.387,4.646,4.646,0,0,1-.125,1.108,6,6,0,0,1-2.179,3.437,6.205,6.205,0,0,1-8.807-1.224,6.219,6.219,0,0,1,0-7.416,6.205,6.205,0,0,1,8.806-1.224,6.006,6.006,0,0,1,2.179,3.437,4.646,4.646,0,0,1,.125,1.108A1.136,1.136,0,0,1,549.5,235.28Z" transform="translate(-537.198 -229.04)"/></g><g transform="translate(14.774)"><path class="e" d="M528.753,231.657c-.053,0-.035-.537-.283-1.448a6.01,6.01,0,0,0-2.2-3.2,5.859,5.859,0,0,0-5.512-.794,5.741,5.741,0,0,0-2.68,2.026,5.768,5.768,0,0,0,0,6.832,5.742,5.742,0,0,0,2.681,2.026,5.859,5.859,0,0,0,5.512-.794,6.01,6.01,0,0,0,2.2-3.2c.249-.911.23-1.45.283-1.447a1.137,1.137,0,0,1,.031.387,4.659,4.659,0,0,1-.125,1.108,6,6,0,0,1-2.179,3.437,6.207,6.207,0,0,1-8.807-1.224,6.221,6.221,0,0,1,0-7.417,6.206,6.206,0,0,1,8.806-1.223,6,6,0,0,1,2.179,3.437,4.629,4.629,0,0,1,.125,1.108A1.138,1.138,0,0,1,528.753,231.657Z" transform="translate(-516.448 -225.417)"/></g><g transform="translate(11.603 5.91)"><g transform="translate(0)"><path class="e" d="M536.886,234.257c-.063.126-.854-.244-1.776.038s-1.38,1.019-1.5.948c-.058-.028-.029-.264.179-.578a2.214,2.214,0,0,1,2.63-.791C536.765,234.021,536.92,234.2,536.886,234.257Z" transform="translate(-533.583 -233.718)"/></g></g><g transform="translate(26.583 4.322)"><path class="e" d="M513.6,231.81a39.16,39.16,0,0,1-8.865-.125,39.168,39.168,0,0,1,8.865.125Z" transform="translate(-504.738 -231.488)"/></g></g><g transform="translate(2.409 10.112)"><path class="h" d="M539.93,208.308a1.777,1.777,0,0,0,.1.594,2.921,2.921,0,0,0,.934,1.34,4.124,4.124,0,0,0,2.24.917A11.276,11.276,0,0,0,546.17,211a50.957,50.957,0,0,0,5.285-1.067c.668-.174,1.2-.327,1.574-.441l.424-.135a.078.078,0,1,0-.009-.028l-.431.108-1.583.394c-1.339.321-3.2.716-5.282,1.022a11.461,11.461,0,0,1-2.933.167,4.082,4.082,0,0,1-2.189-.862,2.966,2.966,0,0,1-.946-1.279A5.918,5.918,0,0,1,539.93,208.308Z" transform="translate(-539.929 -208.308)"/></g><g transform="translate(1.029 11.525)"><path class="h" d="M547.989,210.293a5.689,5.689,0,0,0,.533,1.7,7.288,7.288,0,0,0,7.023,4.2,5.687,5.687,0,0,0,1.753-.337,3.855,3.855,0,0,0-.469.089,7.818,7.818,0,0,1-1.288.142,7.394,7.394,0,0,1-6.925-4.14,7.843,7.843,0,0,1-.484-1.2A3.957,3.957,0,0,0,547.989,210.293Z" transform="translate(-547.989 -210.293)"/></g></g></g><g transform="translate(0 0.64)"><g transform="translate(20.714)"><path class="i" d="M329.74,286.589l-11.91-2.013s-.56,11.764-14.889,10.991c-11.679-.63-8.47-8.649-8.47-8.649l-13.308,3.942s-3.219,21.589.345,36.883c.833,3.573,1.947,8.391,1.947,8.391l-1.138,22.347,62.248.1L329.74,286.589Z" transform="translate(-279.828 -284.654)"/></g><g class="p" transform="translate(46.224 64.268)"><path d="M342.3,447.26c3.029-.075,5.825.182,8.853.107a58.054,58.054,0,0,1,10.885.414c2.689.443,5.306,1.263,8,1.688a17.232,17.232,0,0,0,10.854-1.4l-.526-3.049-12.4-2.986Z" transform="translate(-342.3 -442.039)"/></g><g transform="translate(0 6.029)"><path class="i" d="M244.123,304.626a17.611,17.611,0,0,1,7.581-5.207l3.184,27.725-6.031,40.367-19.754-.094S240,309.955,244.123,304.626Z" transform="translate(-229.102 -299.419)"/></g><g transform="translate(66.192 1.73)"><path class="i" d="M394.673,288.891s13.3,1.065,18.067,22.849c2.158,9.853,4.885,21.4,5.67,29.162.57,5.629-2.49,14.442-8.1,15.162l-7.055.948a11.636,11.636,0,0,1-4.156-.154c-4.456-1.023-4.909-4.081-5.694-7.33l-2.06-6.5c-1.126-6.182,4.634-7.335,7.815-7.267l-2.372-28.219Z" transform="translate(-391.199 -288.891)"/></g><g transform="translate(20.362 21.443)"><path class="e" d="M279.56,337.166a1.663,1.663,0,0,0-.061.3c-.034.221-.078.513-.134.878l-.091.635q-.036.352-.077.76c-.055.545-.122,1.166-.15,1.856a45.746,45.746,0,0,0-.033,4.846,58.322,58.322,0,0,0,.588,5.9c.305,2.083.69,4.053,1.08,5.834s.775,3.376,1.106,4.714.619,2.415.822,3.158l.238.855a1.719,1.719,0,0,0,.1.294,1.651,1.651,0,0,0-.055-.305l-.2-.864c-.184-.772-.441-1.851-.757-3.174-.312-1.341-.689-2.937-1.06-4.719s-.756-3.747-1.061-5.824-.516-4.066-.6-5.882-.094-3.455-.013-4.829c.019-.688.075-1.307.118-1.852l.06-.76q.039-.346.073-.636l.094-.882A1.685,1.685,0,0,0,279.56,337.166Z" transform="translate(-278.967 -337.166)"/></g><g transform="translate(74.084 48.512)"><path class="e" d="M421.023,411.178a2.372,2.372,0,0,0-.105-.548,8.739,8.739,0,0,0-.514-1.433,9.771,9.771,0,0,0-7.8-5.68,8.769,8.769,0,0,0-1.521-.049,2.371,2.371,0,0,0-.554.069,19.749,19.749,0,0,1,2.056.129,10.059,10.059,0,0,1,7.688,5.6A19.882,19.882,0,0,1,421.023,411.178Z" transform="translate(-410.525 -403.455)"/></g><g transform="translate(74.156 45.351)"><path class="e" d="M418.054,395.746a.95.95,0,0,0-.321-.03,6.831,6.831,0,0,0-.876.039,10.12,10.12,0,0,0-5.3,2.178,6.9,6.9,0,0,0-.65.589c-.143.149-.217.237-.207.247.025.026.359-.285.949-.717a11.688,11.688,0,0,1,5.224-2.148C417.6,395.8,418.055,395.782,418.054,395.746Z" transform="translate(-410.702 -395.713)"/></g><g transform="translate(67.677 3.137)"><path class="e" d="M394.9,306.376a3.08,3.08,0,0,0,.032-.582c0-.374.024-.916.07-1.582a25.344,25.344,0,0,1,2.8-9.974c.307-.593.571-1.066.763-1.387a3.1,3.1,0,0,0,.276-.514,3.049,3.049,0,0,0-.346.47c-.215.308-.5.772-.826,1.36a22.913,22.913,0,0,0-2.817,10.036c-.027.671-.025,1.216,0,1.591A3.067,3.067,0,0,0,394.9,306.376Z" transform="translate(-394.834 -292.337)"/></g><g transform="translate(70.3 62.274)"><path class="e" d="M401.258,442.482c.022-.019.231.278.727.687a6.652,6.652,0,0,0,2.433,1.161,12.955,12.955,0,0,0,4,.352c1.519-.109,3.194-.287,4.935-.546a25.171,25.171,0,0,0,4.816-1.11,6.146,6.146,0,0,0,1.77-1.182,9.466,9.466,0,0,0,1.238-1.406,13.23,13.23,0,0,0,1.359-2.358c.127-.3.226-.527.285-.686a.131.131,0,1,1,.04.014c-.046.165-.133.4-.249.7a12.141,12.141,0,0,1-1.313,2.414,9.4,9.4,0,0,1-1.239,1.447,6.252,6.252,0,0,1-1.813,1.233,24.425,24.425,0,0,1-4.862,1.14c-1.751.26-3.424.432-4.957.532a12.748,12.748,0,0,1-4.055-.4,6.445,6.445,0,0,1-2.446-1.243,4.309,4.309,0,0,1-.519-.541A1.2,1.2,0,0,1,401.258,442.482Z" transform="translate(-401.258 -437.156)"/></g><g transform="translate(68.104 24.12)"><path class="e" d="M395.882,343.72c.057-.014,1.459,5.429,3.131,12.156s2.982,12.195,2.925,12.209-1.459-5.428-3.131-12.157S395.826,343.734,395.882,343.72Z" transform="translate(-395.881 -343.72)"/></g><g transform="translate(66.302 48.49)"><path class="e" d="M391.579,409.748a1.753,1.753,0,0,1-.068-.448,7.594,7.594,0,0,1-.028-1.236,3.582,3.582,0,0,1,.6-1.744,5.189,5.189,0,0,1,.682-.858,4.693,4.693,0,0,1,.945-.7,11.834,11.834,0,0,1,3.87-1.249,10.844,10.844,0,0,1,1.229-.109,1.666,1.666,0,0,1,.452.016c0,.036-.641.06-1.657.241a12.974,12.974,0,0,0-3.788,1.285,4.633,4.633,0,0,0-.906.668,5.246,5.246,0,0,0-.664.815,3.559,3.559,0,0,0-.612,1.651,10.533,10.533,0,0,0-.038,1.218A1.968,1.968,0,0,1,391.579,409.748Z" transform="translate(-391.469 -403.399)"/></g><g class="p" transform="translate(18.928 20.544)"><path d="M278.095,354.154a20.519,20.519,0,0,1-.506-19.189,53.682,53.682,0,0,0,.606,19.164" transform="translate(-275.456 -334.965)"/></g></g><g transform="translate(26.426 53.624)"><g transform="translate(13.097 1.092)"><path class="m" d="M325.889,417.078l.025.011Z" transform="translate(-325.889 -417.078)"/></g><g transform="translate(13.243 1.161)"><path class="m" d="M326.246,417.248l.054.026Z" transform="translate(-326.246 -417.248)"/></g><g transform="translate(13.122 1.103)"><path class="m" d="M325.949,417.106l.121.058Z" transform="translate(-325.949 -417.106)"/></g><g transform="translate(13.044 1.066)"><path class="m" d="M325.758,417.015l.054.026Z" transform="translate(-325.758 -417.015)"/></g><path class="m" d="M294.37,426.943c1.067-2.019,9.41-7.343,9.41-7.343l-2.258-.522-2.493,1.054a6.135,6.135,0,0,1-1.073,2.335c-.917,1.308-2.473-.045-2.473-.045l1.054-5.05,4.933-2.969a48.6,48.6,0,0,1,5.391,1.066l1.979,1.811c.868.68,3.375,3.364,4.061,3.446s22.218-4.763,22.218-4.763h0c2.952,2.337,4.507,6.982,4.976,10.332a3.718,3.718,0,0,1-.046,2.539l-26.433,2.074-5.6,1.548a39.394,39.394,0,0,1-4.6,1.581c-1.864.392-3.119-.209-3.169-1.241s1.395-1.143,1.395-1.143a28.44,28.44,0,0,0,3.6-1.584,6.323,6.323,0,0,0,2.033-2.231l-2,.239s-4.245,2.947-5.841,3.811-1.911-.722-2.04-1.205,4.768-5.273,4.768-5.273-4.656,2.871-5.494,3.595-2.079.941-2.345.455S293.3,428.962,294.37,426.943Z" transform="translate(-293.816 -414.404)"/><g transform="translate(13.297 1.187)"><path class="m" d="M326.378,417.311l.047.022Z" transform="translate(-326.378 -417.311)"/></g><g transform="translate(13.369 1.222)"><path class="m" d="M326.556,417.4Z" transform="translate(-326.556 -417.396)"/></g><g transform="translate(13.344 1.209)"><path class="m" d="M326.493,417.365l.026.013Z" transform="translate(-326.493 -417.365)"/></g><g transform="translate(19.082 6.322)"><path class="o" d="M344.99,436.57a1.039,1.039,0,0,0,.025-.327,1.919,1.919,0,0,0-.026-.385,2.837,2.837,0,0,0-.092-.5,7.089,7.089,0,0,0-1.353-2.608,15.165,15.165,0,0,0-2.036-2.117,6.051,6.051,0,0,0-.961-.744,9.761,9.761,0,0,0,.868.847,19.553,19.553,0,0,1,1.975,2.134,7.754,7.754,0,0,1,1.374,2.524C344.971,436.1,344.949,436.571,344.99,436.57Z" transform="translate(-340.546 -429.886)"/></g><g transform="translate(10.156 4.149)"><path class="o" d="M318.688,425.454a3.08,3.08,0,0,0,2.636-.885c-.036-.047-.546.332-1.275.572S318.688,425.394,318.688,425.454Z" transform="translate(-318.688 -424.564)"/></g><g transform="translate(8.77 8.845)"><path class="o" d="M315.293,437.787a26.106,26.106,0,0,0,4.173-1.717,26.005,26.005,0,0,0-4.173,1.717Z" transform="translate(-315.292 -436.065)"/></g><g transform="translate(13.243 12.537)"><path class="o" d="M326.246,445.959a17.661,17.661,0,0,0,2.15-.84,4.3,4.3,0,0,0-2.15.84Z" transform="translate(-326.245 -445.105)"/></g><g transform="translate(9.456 10.925)"><path class="o" d="M316.974,441.168a2.718,2.718,0,0,1,1.3,1.7c.024,0,.049-.133.016-.344a1.776,1.776,0,0,0-.978-1.285C317.115,441.155,316.981,441.144,316.974,441.168Z" transform="translate(-316.973 -441.157)"/></g><g transform="translate(7.496 7.839)"><path class="o" d="M312.175,433.611c-.025.051.34.249.58.672a5.367,5.367,0,0,1,.3.835.994.994,0,0,0-.131-.934C312.645,433.7,312.184,433.559,312.175,433.611Z" transform="translate(-312.174 -433.601)"/></g><g transform="translate(7.722 0.526)"><path class="o" d="M313.167,417.5c.022.011.1-.082.156-.263a1.433,1.433,0,0,0-.334-1.382c-.134-.135-.244-.182-.259-.163a2.2,2.2,0,0,1,.437,1.807Z" transform="translate(-312.727 -415.692)"/></g><g transform="translate(41.032 1.246)"><path class="e" d="M399.732,431.4a3.344,3.344,0,0,1-.036-.607c0-.2-.007-.434-.027-.71s-.025-.592-.066-.938a21.155,21.155,0,0,0-1.154-5.3,19.168,19.168,0,0,0-1.253-2.711c-.242-.39-.455-.772-.7-1.1l-.34-.484-.339-.427c-.878-1.08-1.551-1.632-1.519-1.667a3.3,3.3,0,0,1,.474.382,5.579,5.579,0,0,1,.519.491,9.194,9.194,0,0,1,.641.7l.354.423c.118.152.232.316.354.483.253.328.474.711.724,1.1a18.006,18.006,0,0,1,1.283,2.736,19.385,19.385,0,0,1,1.1,5.358c.031.35.028.667.035.946s0,.518-.009.714A3.3,3.3,0,0,1,399.732,431.4Z" transform="translate(-394.299 -417.456)"/></g></g><g class="p" transform="translate(74.128 48.919)"><path d="M418.465,403.889a13.288,13.288,0,0,0-7.833-.712h0a10.825,10.825,0,0,1,10.569,6.835c.191.508.567,1.107,1.1,1.027.5-.074.686-.7.686-1.205C422.994,407.193,420.9,404.907,418.465,403.889Z" transform="translate(-410.632 -402.883)"/></g><g transform="translate(13.276 14.658)"><path class="h" d="M269.134,324.54a1.289,1.289,0,0,1-.353-.119c-.223-.088-.538-.231-.921-.421a19.636,19.636,0,0,1-5.355-3.957c-.294-.31-.523-.57-.673-.757a1.261,1.261,0,0,1-.217-.3c.025-.022.385.364,1,.953a24.9,24.9,0,0,0,5.319,3.93A13.7,13.7,0,0,1,269.134,324.54Z" transform="translate(-261.614 -318.983)"/></g><g transform="translate(20.94 21.754)"><path class="h" d="M327.377,336.359a.586.586,0,0,1-.1.07l-.313.188c-.274.167-.689.394-1.229.679a34.312,34.312,0,0,1-4.759,2,45.274,45.274,0,0,1-7.445,1.79,71.8,71.8,0,0,1-9.343.775c-3.327.08-6.495.017-9.375-.048a62.958,62.958,0,0,1-7.636-.576,29.834,29.834,0,0,1-5.028-1.168c-.578-.2-1.022-.36-1.317-.488l-.337-.141a.526.526,0,0,1-.112-.055.568.568,0,0,1,.12.035l.344.12c.3.115.747.266,1.327.449a31.728,31.728,0,0,0,5.024,1.1,65.378,65.378,0,0,0,7.619.529c2.878.054,6.045.111,9.365.031a73.63,73.63,0,0,0,9.319-.757,46.51,46.51,0,0,0,7.427-1.738,37,37,0,0,0,4.769-1.933c.544-.272.965-.487,1.245-.643l.323-.169A.542.542,0,0,1,327.377,336.359Z" transform="translate(-280.381 -336.359)"/></g><g transform="translate(8.349 32.523)"><path class="h" d="M262.139,366.5a2.452,2.452,0,0,1-.506-.108l-1.359-.371c-1.145-.323-2.722-.782-4.46-1.3s-3.309-1-4.443-1.361l-1.339-.436a2.426,2.426,0,0,1-.483-.187,2.416,2.416,0,0,1,.506.108l1.359.371c1.145.323,2.722.782,4.461,1.3s3.308,1,4.442,1.361l1.339.436A2.425,2.425,0,0,1,262.139,366.5Z" transform="translate(-249.548 -362.731)"/></g><g transform="translate(3.975 53.444)"><path class="h" d="M256.99,419.395c-.017.056-4.095-1.114-9.106-2.613s-9.063-2.76-9.047-2.817,4.094,1.114,9.107,2.613S257.006,419.339,256.99,419.395Z" transform="translate(-238.837 -413.963)"/></g><g transform="translate(68.149 10.046)"><path class="h" d="M408.99,307.689a2.944,2.944,0,0,1-.45.354c-.3.219-.736.52-1.288.88a43.85,43.85,0,0,1-9.223,4.529c-.622.217-1.129.381-1.483.481a2.979,2.979,0,0,1-.556.139,2.909,2.909,0,0,1,.53-.218l1.457-.544c1.227-.468,2.9-1.161,4.7-2.043s3.371-1.787,4.491-2.472l1.322-.821A2.931,2.931,0,0,1,408.99,307.689Z" transform="translate(-395.991 -307.688)"/></g><g transform="translate(71.134 33.246)"><path class="h" d="M421.449,364.5a4.83,4.83,0,0,1-.663.314c-.431.193-1.065.447-1.858.738a43.147,43.147,0,0,1-12.9,2.564c-.844.034-1.527.042-2,.03a4.812,4.812,0,0,1-.732-.036,4.81,4.81,0,0,1,.731-.047c.471-.013,1.152-.044,1.992-.1a49.057,49.057,0,0,0,12.856-2.556c.8-.272,1.437-.5,1.877-.673A4.869,4.869,0,0,1,421.449,364.5Z" transform="translate(-403.3 -364.503)"/></g><g transform="translate(72.443 49.333)"><path class="h" d="M411.587,424.924a.929.929,0,0,1,.021-.227l.1-.644c.05-.278.105-.619.143-1.019s.112-.85.13-1.355q.023-.379.048-.79c.015-.275.007-.561.011-.858.018-.593-.025-1.225-.056-1.891a25.68,25.68,0,0,0-2.027-8.389c-.276-.606-.526-1.189-.813-1.709-.14-.261-.263-.521-.4-.758l-.4-.681c-.247-.441-.515-.811-.734-1.147s-.421-.617-.592-.841l-.383-.526a.115.115,0,1,1,.033-.027l.416.5a10.113,10.113,0,0,1,.624.823c.229.331.508.7.764,1.136l.418.679c.144.237.272.5.415.757.3.519.554,1.1.838,1.713a24.786,24.786,0,0,1,2.042,8.454c.026.671.063,1.308.037,1.906-.009.3,0,.587-.024.863s-.042.541-.062.794c-.028.507-.109.96-.162,1.36a10.182,10.182,0,0,1-.18,1.017l-.141.637A.924.924,0,0,1,411.587,424.924Z" transform="translate(-406.507 -403.896)"/></g><g transform="translate(74.444 48.344)"><path class="h" d="M430.262,410.974c-.023,0-.033-.332-.126-.921a7.985,7.985,0,0,0-.8-2.379,10,10,0,0,0-2.308-2.908,12.1,12.1,0,0,0-3.923-2.3,15.372,15.372,0,0,0-4.5-.793,29.054,29.054,0,0,0-3.751.14c-1.066.1-1.927.207-2.523.275l-.687.074a1.016,1.016,0,0,1-.241.011,1.05,1.05,0,0,1,.236-.054l.682-.114c.593-.093,1.452-.223,2.519-.343a27.046,27.046,0,0,1,3.772-.187,15.182,15.182,0,0,1,4.56.788,12.064,12.064,0,0,1,3.983,2.349,9.913,9.913,0,0,1,2.312,2.987,7.575,7.575,0,0,1,.749,2.435,5.123,5.123,0,0,1,.049.691A1.018,1.018,0,0,1,430.262,410.974Z" transform="translate(-411.406 -401.475)"/></g><g transform="translate(26.462 46.017)"><path class="h" d="M316.811,395.783a.962.962,0,0,1-.231.039l-.665.069-2.45.205c-2.07.16-4.93.355-8.093.52s-6.031.265-8.107.288c-1.038.007-1.878.011-2.459-.008l-.668-.021a.986.986,0,0,1-.233-.022.959.959,0,0,1,.233-.021l.668-.019,2.456-.06c2.074-.061,4.937-.184,8.1-.35l8.094-.458,2.454-.138.668-.029A.983.983,0,0,1,316.811,395.783Z" transform="translate(-293.905 -395.776)"/></g><g transform="translate(51.931 44.177)"><path class="h" d="M376.946,391.272a.8.8,0,0,1-.2.058l-.595.126c-.517.106-1.267.247-2.2.409-1.858.326-4.433.726-7.291,1.076s-5.455.581-7.336.711c-.941.066-1.7.11-2.23.132l-.607.021a.831.831,0,0,1-.212-.007.8.8,0,0,1,.21-.036l.6-.06,2.223-.2c1.877-.169,4.468-.424,7.323-.773s5.429-.726,7.292-1.013l2.206-.342.6-.087A.8.8,0,0,1,376.946,391.272Z" transform="translate(-356.275 -391.269)"/></g><g class="p" transform="translate(68.2 26)"><path d="M396.238,346.756c-.644,7.391,1.37,14.727,3.365,21.873a3.1,3.1,0,0,0,.549,1.232,1.06,1.06,0,0,0,1.217.338c.623-.314.54-1.217.364-1.892l-5.55-21.249" transform="translate(-396.116 -346.756)"/></g></g><g transform="translate(0 84.197)"><g transform="translate(0.006 0.022)"><path class="d" d="M143.17,362.027l8.393,41.2H224.41a1.455,1.455,0,0,0,1.455-1.455h0a1.455,1.455,0,0,0-1.455-1.455H209.745L201.964,362a1.591,1.591,0,0,0-1.542-1.274l-55.676-.608A1.59,1.59,0,0,0,143.17,362.027Z" transform="translate(-143.137 -360.119)"/></g><path class="e" d="M143.161,362s-.009-.041-.023-.124a1.435,1.435,0,0,1-.007-.374,1.6,1.6,0,0,1,.771-1.2,1.639,1.639,0,0,1,.481-.191,2.558,2.558,0,0,1,.573-.036l1.311.01,3.278.027,21.052.2,14.676.148,8.221.085,4.312.045,2.2.023c.188,0,.364,0,.564.014a1.664,1.664,0,0,1,.562.163,1.684,1.684,0,0,1,.8.839,2.61,2.61,0,0,1,.152.56l.113.554q.113.555.227,1.114.228,1.117.458,2.249l.933,4.583,1.93,9.487,4.086,20.1-.1-.08h14.422a2.687,2.687,0,0,1,.567.034,1.557,1.557,0,0,1,.418,2.889,1.58,1.58,0,0,1-.685.185l-.672,0h-7.949l-10.358,0-19.722,0-34.2-.017h-.063l-.012-.062-6.1-30.106-1.655-8.232c-.187-.941-.33-1.66-.426-2.147s-.138-.734-.138-.734.058.247.16.729l.448,2.143c.389,1.886.961,4.66,1.7,8.223,1.462,7.136,3.571,17.433,6.164,30.092l-.076-.062,34.2-.017,19.722,0h18.307l.665,0a1.346,1.346,0,0,0,1.288-1.147,1.353,1.353,0,0,0-1.055-1.529,2.5,2.5,0,0,0-.526-.03h-14.5l-.016-.08c-1.4-6.924-2.767-13.644-4.078-20.1q-.982-4.845-1.923-9.488l-.929-4.584-.456-2.25q-.113-.559-.225-1.114l-.112-.555a2.467,2.467,0,0,0-.141-.525,1.511,1.511,0,0,0-.715-.751,1.491,1.491,0,0,0-.5-.146c-.17-.015-.365-.009-.547-.013l-2.2-.025-4.312-.05-8.221-.095-14.675-.172-21.052-.26-3.277-.044-1.311-.019a2.509,2.509,0,0,0-.564.03,1.62,1.62,0,0,0-.471.182,1.589,1.589,0,0,0-.771,1.174A2.106,2.106,0,0,0,143.161,362Z" transform="translate(-143.122 -360.066)"/><g transform="translate(28.796 18.38)"><path class="h" d="M218.451,407.483a2.406,2.406,0,1,1-2.406-2.406A2.406,2.406,0,0,1,218.451,407.483Z" transform="translate(-213.639 -405.077)"/></g><g transform="translate(0.107 2.251)"><path class="e" d="M143.383,365.591s.085-.006.251-.009l.737,0,2.832,0,10.416.05,34.364.243,4.97.04,1.221.01a3.181,3.181,0,0,1,.624.038,1.74,1.74,0,0,1,1.33,1.243c.091.4.159.784.239,1.174l1.776,8.95c1.127,5.7,2.143,10.84,3,15.157l2,10.221c.231,1.2.411,2.138.535,2.781l.134.724c.029.163.039.248.039.248s-.024-.082-.059-.244l-.154-.72-.572-2.773L205,392.513l-3.038-15.148-1.787-8.947c-.079-.384-.152-.786-.236-1.161a1.54,1.54,0,0,0-1.179-1.1,3.022,3.022,0,0,0-.586-.034l-1.221-.009-4.97-.039-34.363-.3L147.2,365.66l-2.832-.041-.736-.016C143.468,365.6,143.383,365.591,143.383,365.591Z" transform="translate(-143.383 -365.578)"/></g></g><g transform="translate(82.345 124.604)"><path class="h" d="M382.322,459.021a.335.335,0,0,1-.1.017l-.283.029-1.091.09c-.948.076-2.32.168-4.017.268-3.394.2-8.087.406-13.275.494s-9.887.037-13.286-.051c-1.7-.043-3.074-.09-4.024-.134l-1.094-.054-.284-.019a.049.049,0,1,1,0-.022l.285,0,1.094.014,4.024.066c3.4.049,8.093.074,13.28-.012s9.876-.269,13.27-.431l4.02-.2,1.094-.051.285-.008A.34.34,0,0,1,382.322,459.021Z" transform="translate(-344.776 -459.017)"/></g></g></g></g></svg>