<svg xmlns="http://www.w3.org/2000/svg" xmlns:xlink="http://www.w3.org/1999/xlink" width="3" height="13" viewBox="0 0 3 13">
  <defs>
    <clipPath id="clip-provider-menu-vertical">
      <rect width="3" height="13"/>
    </clipPath>
  </defs>
  <g id="provider-menu-vertical" clip-path="url(#clip-provider-menu-vertical)">
    <path id="Provider_menu" data-name="Provider menu" d="M2-3.5A1.5,1.5,0,0,1,3.5-2,1.5,1.5,0,0,1,2-.5,1.5,1.5,0,0,1,.5-2,1.5,1.5,0,0,1,2-3.5Zm0-5A1.5,1.5,0,0,1,3.5-7,1.5,1.5,0,0,1,2-5.5,1.5,1.5,0,0,1,.5-7,1.5,1.5,0,0,1,2-8.5Zm0-5A1.5,1.5,0,0,1,3.5-12,1.5,1.5,0,0,1,2-10.5,1.5,1.5,0,0,1,.5-12,1.5,1.5,0,0,1,2-13.5Z" transform="translate(3.5 -0.5) rotate(180)" fill="#0a1e42" fill-rule="evenodd"/>
  </g>
</svg>
