<svg xmlns="http://www.w3.org/2000/svg" width="11.918" height="11.918" viewBox="0 0 11.918 11.918"><defs><style>.a{fill:#0a1e42;}</style></defs><path class="a" d="M5.959,0A3.068,3.068,0,0,0,2.98,3.352c0,2.048.931,4.1,2.98,4.1,2.011,0,2.98-2.048,2.98-4.1A3.068,3.068,0,0,0,5.959,0ZM2.98,7.449A2.988,2.988,0,0,0,0,10.428v1.3a.176.176,0,0,0,.186.186H11.732a.176.176,0,0,0,.186-.186v-1.3a2.988,2.988,0,0,0-2.98-2.98H8.787a.943.943,0,0,0-.291.117,3.716,3.716,0,0,1-5.075,0,.683.683,0,0,0-.291-.117Z"/></svg>