<svg xmlns="http://www.w3.org/2000/svg" width="178.593" height="194.66" viewBox="0 0 178.593 194.66"><defs><style>.a,.e,.f,.j{fill:#0151cc;}.a,.e{opacity:0.1;}.b,.f{opacity:0.3;}.c{fill:#e0e0e0;}.d{fill:none;}.e,.f{fill-rule:evenodd;}.g{fill:#0a1e42;}.h{fill:#263238;}.i{fill:#fff;}.k{fill:#3b484e;}.l{fill:#ffbe9d;}.m{opacity:0.6;}.n{fill:#1e324c;}.o{fill:#f69110;}.p{fill:#eb996e;}.q{fill:#79f2c1;}.r{fill:#253858;}</style></defs><g transform="translate(-1042.72 -968)"><path class="a" d="M609.9,316.323a26.064,26.064,0,0,0,2.453-6.54c3.277-14.5-3.252-29.219-4.386-43.6-1.385-17.553,5.905-38.655-3.4-54.962-7.044-12.339-21.094-18.824-33.663-24.037-14.919-6.187-31.581-16.015-48.121-15.1-28.5,1.574-56.7,31.585-69.264,55.08-11.1,20.756-23.314,47.745-17.222,71.822,5.494,21.71,22.732,45.384,40.974,58.235,15.634,11.014,32.291,11.979,49.558,5.148,20.887-8.264,41.723-16.449,61.567-27.108C596.689,330.807,605.409,324.742,609.9,316.323Z" transform="translate(608.048 795.976)"/><g transform="translate(24.999 46.66)"><g transform="translate(1032.264 940)"><g class="b" transform="translate(28.068 26.684)"><path class="c" d="M72.131,119.35a.23.23,0,1,1-.23-.23A.231.231,0,0,1,72.131,119.35Z" transform="translate(-71.67 -119.12)"/></g><g class="b" transform="translate(28.861 26.684)"><ellipse class="c" cx="0.23" cy="0.23" rx="0.23" ry="0.23" transform="translate(0 0)"/></g><g class="b" transform="translate(29.642 26.684)"><path class="c" d="M78.961,119.35a.23.23,0,1,1-.23-.23A.23.23,0,0,1,78.961,119.35Z" transform="translate(-78.5 -119.12)"/></g><path class="d" d="M408.979,126.672a5.219,5.219,0,0,1-.926.971l.24,1.221-1.883.835-.745-1a5.07,5.07,0,0,1-1.34.035l-.7,1.044-1.924-.741.181-1.232a4.9,4.9,0,0,1-.971-.926l-1.221.24-.835-1.883,1-.741a4.951,4.951,0,0,1-.035-1.343l-1.044-.7.773-1.935,1.232.177a5,5,0,0,1,.926-.971l-.244-1.221,1.883-.835.727,1.006a5.094,5.094,0,0,1,1.343-.035l.7-1.044,1.921.741-.181,1.232a5.025,5.025,0,0,1,.974.926l1.221-.24.835,1.883-1,.741a4.952,4.952,0,0,1,.031,1.343l1.044.7-.738,1.921-1.232-.177Zm-2.088-2.088a2.97,2.97,0,1,1,.007-.014Z" transform="translate(-283.92 -88.078)"/><path class="e" d="M443.716,112.746a4.134,4.134,0,0,1-.769.807l.2,1.013-1.559.7-.619-.828a4.1,4.1,0,0,1-1.113.028l-.574.859-1.594-.616.15-1.02a4.134,4.134,0,0,1-.807-.769l-1.013.2-.7-1.559.828-.619a4.1,4.1,0,0,1-.028-1.114l-.86-.574.616-1.594,1.02.15a4.135,4.135,0,0,1,.769-.807l-.2-1.013,1.559-.7.619.828a4.1,4.1,0,0,1,1.113-.028l.574-.859,1.6.616-.15,1.02a4.237,4.237,0,0,1,.807.769l1.013-.2.7,1.562-.828.616a4.1,4.1,0,0,1,.028,1.114l.859.574-.616,1.594-1.02-.15Zm-1.74-1.74a.969.969,0,1,0,.014,0Z" transform="translate(-312.732 -71.012)"/><path class="f" d="M415.43,77.4a6.612,6.612,0,0,1-1.2,1.267l.313,1.587L412.1,81.335l-.967-1.3a6.66,6.66,0,0,1-1.74.045l-.9,1.343-2.5-.964.233-1.6a6.612,6.612,0,0,1-1.267-1.2l-1.587.313-1.086-2.436,1.3-.967a6.661,6.661,0,0,1-.045-1.74l-1.343-.9.964-2.5,1.6.233a6.589,6.589,0,0,1,1.194-1.284l-.313-1.59,2.436-1.086.967,1.3a6.66,6.66,0,0,1,1.74-.045l.9-1.343,2.5.964-.226,1.608a6.589,6.589,0,0,1,1.263,1.2l1.59-.313,1.086,2.436-1.3.967a6.661,6.661,0,0,1,.045,1.74l1.347.926-.964,2.5-1.6-.233Zm-2.707-2.732a2.871,2.871,0,1,0-1.514,1.594,2.874,2.874,0,0,0,1.514-1.594Z" transform="translate(-291.176 -45.179)"/><path class="g" d="M369.62,52.408a1.406,1.406,0,0,1,.184-.205l.529-.532c.449-.445,1.075-1.044,1.775-1.719h.017v.087c-.7-.651-1.336-1.249-1.789-1.684l-.532-.518a1.406,1.406,0,0,1-.184-.205,1.1,1.1,0,0,1,.216.171l.56.491c.466.418,1.11,1.006,1.813,1.66l.049.042-.049.045-.017.017c-.7.665-1.333,1.263-1.8,1.691l-.557.5A1.1,1.1,0,0,1,369.62,52.408Z" transform="translate(-264.907 -42.456)"/><path class="g" d="M349.1,47.59a1.268,1.268,0,0,1-.184.209l-.512.529c-.449.445-1.075,1.044-1.775,1.719l-.017.017v-.09c.7.654,1.336,1.249,1.789,1.684l.532.522a1.536,1.536,0,0,1,.184.2.98.98,0,0,1-.216-.167c-.153-.132-.348-.3-.56-.491-.466-.421-1.107-1.006-1.813-1.66l-.045-.045.045-.045h.017c.7-.668,1.333-1.267,1.8-1.695l.557-.5a1.044,1.044,0,0,1,.2-.188Z" transform="translate(-249.82 -42.43)"/><path class="g" d="M358,51.272c-.031,0,.539-1.615,1.274-3.577s1.357-3.549,1.392-3.535-.536,1.615-1.274,3.577S358.036,51.286,358,51.272Z" transform="translate(-257.329 -40.193)"/><path class="g" d="M354.218,47.271v-3.96c0-2.512,0-6.1-.028-10.439l.052.052H336.579l.063-.063v14.4l-.056-.056,12.757.028h3.64l-3.605.017-12.792.028h-.056V32.76h17.778v.052c0,4.343-.021,7.948-.028,10.467V46.95A.883.883,0,0,1,354.218,47.271Z" transform="translate(-243.332 -32.76)"/><path class="g" d="M354.383,39.113c0,.035-3.988.063-8.9.063s-8.908-.028-8.908-.063,3.988-.063,8.908-.063S354.383,39.078,354.383,39.113Z" transform="translate(-243.358 -36.861)"/><path class="g" d="M339.84,35.76a.24.24,0,1,1-.24-.24A.24.24,0,0,1,339.84,35.76Z" transform="translate(-245.177 -34.56)"/><circle class="g" cx="0.237" cy="0.237" r="0.237" transform="translate(95.053 0.964)"/><path class="g" d="M344.82,35.76a.24.24,0,1,1-.24-.24A.24.24,0,0,1,344.82,35.76Z" transform="translate(-248.424 -34.56)"/></g><g transform="translate(1036.444 1083.39)"><path class="h" d="M163.6,444.92c0,.049-30.548.09-68.225.09s-68.232-.042-68.232-.09,30.541-.09,68.232-.09S163.6,444.868,163.6,444.92Z" transform="translate(-27.14 -444.83)"/></g><rect class="i" width="50.063" height="40.786" transform="translate(1102.777 981.009)"/><path class="h" d="M321.331,191.155v-2.93c0-1.907,0-4.7-.017-8.264,0-7.12-.024-17.3-.042-29.578l.077.077H271.293l.09-.09v40.786l-.083-.084,36.189.042,10.237.021h.031l-10.22.021-36.228.042h-.08V150.24h50.23v.077c-.017,12.3-.031,22.507-.038,29.641,0,3.553-.017,6.344-.021,8.247v2.161A3.837,3.837,0,0,1,321.331,191.155Z" transform="translate(831.509 830.64)"/><path class="j" d="M287.439,167.172l-.539.195.539.2v.2l-.769-.292v-.212l.769-.292Z" transform="translate(821.442 819.732)"/><path class="j" d="M304.046,167.282v.212l-.766.292v-.2l.536-.2-.536-.195V167Z" transform="translate(806.199 819.712)"/><path class="j" d="M286.116,256.052l-.546.2.539.195v.2l-.769-.292v-.212l.769-.292Z" transform="translate(822.31 761.78)"/><path class="j" d="M288.222,254.71h.226l-.532,1.521h-.226Z" transform="translate(820.777 762.523)"/><path class="j" d="M291.077,255.37V256.5h-.264v-.463h-.5v.463h-.261V255.37h.261v.445h.512v-.445Z" transform="translate(819.238 762.093)"/><path class="j" d="M293.808,255.6h-.348v-.212h.981v.212h-.348v.919h-.264Z" transform="translate(817.015 762.08)"/><path class="j" d="M297.66,256.5v-.679l-.348.56h-.118l-.331-.546v.665h-.244V255.37h.216l.421.7.418-.7h.216V256.5Z" transform="translate(814.954 762.093)"/><path class="j" d="M301.08,255.37h.261v.915h.567v.212h-.828Z" transform="translate(812.046 762.093)"/><path class="j" d="M304.559,256.142v.212l-.769.292v-.2l.539-.195-.539-.2v-.2Z" transform="translate(810.279 761.78)"/><path d="M297.714,176.186l-.574.219.574.223v.132l-.724-.285v-.139l.724-.285Z" transform="translate(814.713 813.811)"/><path d="M300.831,175.45v1.131h-.16v-.5h-.647v.5h-.164V175.45h.164v.487h.647v-.487Z" transform="translate(812.842 814.203)"/><path d="M304.461,176.438v.143h-.821V175.45h.8v.139H303.8v.348h.567v.136H303.8v.348Z" transform="translate(810.377 814.203)"/><path d="M307.131,176.3h-.6l-.122.285h-.167l.512-1.131h.16l.512,1.131h-.171Zm-.056-.129-.244-.553-.247.553Z" transform="translate(808.682 814.203)"/><path d="M310.12,175.447h.477a.567.567,0,1,1,0,1.131h-.477Zm.466.988a.425.425,0,0,0,0-.849h-.306v.849Z" transform="translate(806.152 814.206)"/><path d="M314.494,176.335v.139l-.724.285v-.132l.574-.223-.574-.219v-.136Z" transform="translate(803.772 813.811)"/><path d="M297.714,187.312l-.574.219.574.223v.132l-.724-.285v-.136l.724-.285Z" transform="translate(814.713 806.554)"/><path d="M299.78,186.739h-.39V186.6h.936v.139h-.376v.992h-.16Z" transform="translate(813.148 806.933)"/><path d="M302.58,186.57h.164V187.7h-.164Z" transform="translate(811.068 806.952)"/><path d="M303.936,186.739h-.386V186.6h.933v.139H304.1v.992h-.16Z" transform="translate(810.436 806.933)"/><path d="M306.74,186.57h.16v.988h.626v.143h-.772Z" transform="translate(808.355 806.952)"/><path d="M310.311,187.558v.143h-.821V186.57h.8v.139h-.619v.348h.567v.139h-.567v.348Z" transform="translate(806.563 806.952)"/><path d="M313.144,187.465v.139l-.724.285v-.132l.574-.223-.574-.219v-.136Z" transform="translate(804.652 806.554)"/><path d="M316.54,186.57h.16v.988h.612v.143h-.773Z" transform="translate(801.966 806.952)"/><path d="M319,187.742a.445.445,0,1,1,.445.438.425.425,0,0,1-.445-.438Zm.731,0a.289.289,0,1,0-.134.276A.289.289,0,0,0,319.73,187.742Z" transform="translate(800.362 806.483)"/><path d="M322.6,187.336v.15h-.035a.257.257,0,0,0-.271.289v.428h-.153v-.856h.146v.143a.327.327,0,0,1,.313-.153Z" transform="translate(798.314 806.454)"/><path d="M324.592,187.827h-.7a.289.289,0,0,0,.31.251.317.317,0,0,0,.247-.1l.084.1a.466.466,0,0,1-.8-.3.421.421,0,0,1,.431-.435.411.411,0,0,1,.421.438A.228.228,0,0,1,324.592,187.827Zm-.7-.111h.55a.275.275,0,0,0-.55,0Z" transform="translate(797.271 806.45)"/><path d="M328.24,187.707v.494h-.157v-.477c0-.167-.08-.247-.219-.247a.247.247,0,0,0-.258.282v.442h-.157v-.477c0-.167-.08-.247-.219-.247a.247.247,0,0,0-.258.282v.442h-.153v-.856h.146v.129a.348.348,0,0,1,.3-.136.317.317,0,0,1,.3.157.376.376,0,0,1,.327-.157.327.327,0,0,1,.351.369Z" transform="translate(795.264 806.452)"/><path d="M332.88,186.41a.1.1,0,0,1,.1-.1.1.1,0,0,1,.1.1.1.1,0,1,1-.209,0Zm.028.264h.157v.856h-.143Z" transform="translate(791.312 807.122)"/><path d="M335.137,187.774a.418.418,0,0,1-.431.438.369.369,0,0,1-.3-.139v.442h-.157v-1.169h.15v.136a.369.369,0,0,1,.306-.143.414.414,0,0,1,.431.435Zm-.157,0a.289.289,0,1,0-.289.289A.289.289,0,0,0,334.981,187.774Z" transform="translate(790.419 806.451)"/><path d="M337.1,188.112l.066-.122a.574.574,0,0,0,.3.087c.143,0,.205-.042.205-.115,0-.195-.543-.028-.543-.369,0-.153.139-.254.348-.254a.609.609,0,0,1,.31.077l-.066.122a.456.456,0,0,0-.247-.066c-.136,0-.2.049-.2.118,0,.2.543.035.543.369,0,.153-.143.254-.369.254A.633.633,0,0,1,337.1,188.112Z" transform="translate(788.561 806.45)"/><path d="M340.485,187.36v.856h-.146v-.129a.366.366,0,0,1-.661-.237v-.491h.157v.473c0,.171.084.254.23.254a.251.251,0,0,0,.264-.285v-.442Z" transform="translate(786.881 806.437)"/><path d="M344.34,187.707v.494h-.153v-.477c0-.167-.08-.247-.223-.247a.247.247,0,0,0-.254.282v.442h-.157v-.477c0-.167-.08-.247-.219-.247a.247.247,0,0,0-.258.282v.442h-.157v-.856h.15v.129a.348.348,0,0,1,.3-.136.313.313,0,0,1,.3.157.386.386,0,0,1,.331-.157.324.324,0,0,1,.348.369Z" transform="translate(784.766 806.452)"/><path d="M349.65,187.312l-.571.219.571.223v.132l-.72-.285v-.136l.72-.285Z" transform="translate(780.847 806.554)"/><path d="M351.692,185.91h.143l-.532,1.521h-.143Z" transform="translate(779.393 807.382)"/><path d="M353.466,186.739h-.386V186.6h.936v.139h-.39v.992h-.16Z" transform="translate(778.141 806.933)"/><path d="M356.27,186.57h.16V187.7h-.16Z" transform="translate(776.061 806.952)"/><path d="M357.626,186.739h-.386V186.6h.933v.139h-.386v.992h-.16Z" transform="translate(775.429 806.933)"/><path d="M360.43,186.57h.16v.988h.612v.143h-.772Z" transform="translate(773.349 806.952)"/><path d="M364,187.558v.143h-.821V186.57h.8v.139h-.637v.348h.567v.139h-.567v.348Z" transform="translate(771.556 806.952)"/><path d="M366.834,187.465v.139l-.724.285v-.132l.574-.223-.574-.219v-.136Z" transform="translate(769.646 806.554)"/><path d="M297.714,198.426l-.574.223.574.219V199l-.724-.289v-.136l.724-.289Z" transform="translate(814.713 799.31)"/><path d="M299.776,197h.139l-.532,1.521h-.143Z" transform="translate(813.246 800.151)"/><path d="M302.487,197.69v1.131h-.16v-.5h-.633v.5h-.164V197.69h.164v.487h.647v-.487Z" transform="translate(811.753 799.702)"/><path d="M306.078,198.678v.143h-.818V197.69h.8v.143h-.637v.348h.567v.139h-.567v.348Z" transform="translate(809.321 799.702)"/><path d="M308.761,198.539h-.6l-.122.282h-.167l.512-1.131h.16l.512,1.131h-.167Zm-.056-.129-.244-.557-.244.557Z" transform="translate(807.619 799.702)"/><path d="M311.75,197.687h.477a.567.567,0,1,1,0,1.131h-.477Zm.466.988a.425.425,0,1,0,0-.846h-.3v.846Z" transform="translate(805.089 799.705)"/><path d="M316.124,198.611v.136l-.724.289v-.118l.574-.219-.574-.223v-.136Z" transform="translate(802.709 799.278)"/><path d="M289.094,208.089l-.571.223.571.219v.139l-.724-.285v-.139l.724-.285Z" transform="translate(820.334 793.005)"/><path d="M292.181,208.165c0,.195-.146.306-.431.306h-.539V207.34h.5c.261,0,.407.111.407.292a.289.289,0,0,0,.059.532Zm-.811-.7v.348h.348c.167,0,.257-.063.257-.181s-.09-.181-.257-.181Zm.647.7c0-.132-.1-.191-.275-.191h-.372v.376h.372c.191-.01.289-.066.289-.195Z" transform="translate(818.481 793.41)"/><path d="M294.489,207.826a.6.6,0,1,1,.6.578.574.574,0,0,1-.6-.578Zm1.044,0a.442.442,0,1,0-.438.431.424.424,0,0,0,.435-.431Z" transform="translate(816.344 793.501)"/><path d="M298.637,207.337h.47a.567.567,0,1,1,0,1.131h-.477Zm.466.992a.425.425,0,0,0,0-.849H298.8v.849Z" transform="translate(813.644 793.413)"/><path d="M302.439,208.081v.39h-.16v-.393l-.449-.738H302l.348.6.348-.6h.16Z" transform="translate(811.558 793.41)"/><path d="M305.884,208.268v.139l-.724.285v-.136l.574-.219-.574-.223V208Z" transform="translate(809.386 792.979)"/><path d="M289.094,219.2l-.571.223.571.219v.136l-.724-.285v-.139l.724-.285Z" transform="translate(820.334 785.761)"/><path d="M292.181,218.47V219.6h-.16v-.5h-.651v.5h-.16V218.47h.16v.484h.651v-.484Z" transform="translate(818.481 786.153)"/><path d="M294.974,218.47V219.6h-.16v-.988h-.254v-.139Z" transform="translate(816.298 786.153)"/><path d="M297.274,219.355v.139l-.724.285v-.136l.574-.219-.574-.223v-.132Z" transform="translate(815 785.761)"/><path d="M300.71,218.47h.118V219.5h.633v.1h-.752Z" transform="translate(812.287 786.153)"/><path d="M303.089,219.688a.431.431,0,1,1,.432.435.418.418,0,0,1-.431-.435Zm.745,0a.317.317,0,1,0-.313.331.31.31,0,0,0,.313-.331Z" transform="translate(810.736 785.637)"/><path d="M306.668,219.249v.111h-.028a.275.275,0,0,0-.285.313v.431h-.115v-.849h.108v.167A.348.348,0,0,1,306.668,219.249Z" transform="translate(808.682 785.645)"/><path d="M308.666,219.716h-.7a.317.317,0,0,0,.348.3.348.348,0,0,0,.261-.111l.063.077a.414.414,0,0,1-.327.139.421.421,0,0,1-.445-.435.411.411,0,0,1,.414-.432.4.4,0,0,1,.411.432Zm-.7-.084h.6a.3.3,0,0,0-.6,0Z" transform="translate(807.62 785.644)"/><path d="M312.232,219.613v.491h-.115v-.48c0-.177-.09-.271-.244-.271a.271.271,0,0,0-.282.306v.445h-.115v-.48c0-.177-.09-.271-.247-.271a.275.275,0,0,0-.285.306v.445h-.115v-.849h.111v.157a.348.348,0,0,1,.313-.164.306.306,0,0,1,.3.181.372.372,0,0,1,.348-.181.324.324,0,0,1,.331.365Z" transform="translate(805.689 785.646)"/><path d="M316.89,218.35a.084.084,0,0,1,.084-.08.08.08,0,0,1,.083.08.083.083,0,1,1-.167,0Zm.024.268h.115v.849h-.1Z" transform="translate(801.738 786.283)"/><path d="M319.069,219.681a.414.414,0,0,1-.421.435.369.369,0,0,1-.324-.171v.473h-.115v-1.162h.111v.167a.372.372,0,0,1,.327-.174.411.411,0,0,1,.421.431Zm-.111,0a.317.317,0,1,0-.317.317A.317.317,0,0,0,318.958,219.681Z" transform="translate(800.877 785.644)"/><path d="M321,220.008l.052-.09a.508.508,0,0,0,.3.1c.16,0,.226-.056.226-.139,0-.223-.55-.049-.55-.383,0-.139.122-.244.348-.244a.571.571,0,0,1,.3.08l-.049.094a.439.439,0,0,0-.251-.073c-.153,0-.223.059-.223.139,0,.23.55.056.55.383,0,.146-.129.244-.348.244A.553.553,0,0,1,321,220.008Z" transform="translate(799.058 785.644)"/><path d="M324.388,219.27v.849h-.111v-.153a.348.348,0,0,1-.3.164.327.327,0,0,1-.348-.365v-.494h.115v.48c0,.181.091.275.254.275a.275.275,0,0,0,.289-.31v-.445Z" transform="translate(797.348 785.631)"/><path d="M328.139,219.611v.491h-.111v-.48c0-.177-.09-.271-.247-.271a.271.271,0,0,0-.282.306v.445h-.115v-.48c0-.177-.09-.271-.247-.271a.275.275,0,0,0-.282.306v.445h-.115v-.849h.108v.157a.348.348,0,0,1,.313-.164.31.31,0,0,1,.3.181.348.348,0,0,1,.348-.181.324.324,0,0,1,.327.365Z" transform="translate(795.315 785.649)"/><path d="M333.533,218.27v1.2h-.108V219.3a.369.369,0,0,1-.327.177.435.435,0,0,1,0-.866.372.372,0,0,1,.324.17v-.512Zm-.111.773a.317.317,0,1,0-.313.331.31.31,0,0,0,.313-.331Z" transform="translate(791.428 786.283)"/><path d="M335.76,219.675a.435.435,0,1,1,.435.435.421.421,0,0,1-.435-.435Zm.748,0a.317.317,0,1,0-.313.331.31.31,0,0,0,.313-.331Z" transform="translate(789.435 785.65)"/><path d="M338.92,218.27h.111v1.2h-.111Z" transform="translate(787.374 786.283)"/><path d="M339.919,219.688a.431.431,0,1,1,.431.435.418.418,0,0,1-.431-.435Zm.745,0a.317.317,0,1,0-.313.331.31.31,0,0,0,.313-.331Z" transform="translate(786.723 785.637)"/><path d="M343.5,219.249v.111h-.028a.275.275,0,0,0-.285.313v.431h-.115v-.849h.108v.167A.348.348,0,0,1,343.5,219.249Z" transform="translate(784.668 785.645)"/><path d="M345.8,220.008l.052-.09a.491.491,0,0,0,.3.1c.16,0,.226-.056.226-.139,0-.223-.55-.049-.55-.383,0-.139.118-.244.348-.244a.585.585,0,0,1,.3.08l-.052.094a.432.432,0,0,0-.251-.073c-.153,0-.219.059-.219.139,0,.23.55.056.55.383,0,.146-.129.244-.348.244A.55.55,0,0,1,345.8,220.008Z" transform="translate(782.888 785.644)"/><path d="M348.33,218.35a.083.083,0,0,1,.083-.08.08.08,0,0,1,.083.08.083.083,0,0,1-.167,0Zm.028.268h.111v.849h-.111Z" transform="translate(781.238 786.283)"/><path d="M349.851,219.721a.271.271,0,0,1-.181.063.223.223,0,0,1-.247-.247v-.515h-.153v-.1h.153v-.184h.1v.184h.258v.1h-.258v.5a.136.136,0,0,0,.146.153.2.2,0,0,0,.125-.042Z" transform="translate(780.625 785.976)"/><path d="M353.253,219.576v.525h-.111v-.132a.313.313,0,0,1-.292.143c-.191,0-.31-.1-.31-.247s.083-.244.327-.244h.271v-.049a.209.209,0,0,0-.24-.226.421.421,0,0,0-.282.1l-.052-.087a.532.532,0,0,1,.348-.115.3.3,0,0,1,.341.331Zm-.115.271v-.139h-.268c-.164,0-.216.066-.216.153s.08.16.212.16a.271.271,0,0,0,.271-.167Z" transform="translate(778.493 785.649)"/><path d="M356.882,219.613v.491h-.115v-.48c0-.177-.09-.271-.244-.271a.275.275,0,0,0-.285.306v.445h-.115v-.48c0-.177-.09-.271-.244-.271a.275.275,0,0,0-.285.306v.445h-.115v-.849h.111v.157a.348.348,0,0,1,.31-.164.306.306,0,0,1,.3.181.365.365,0,0,1,.348-.181.324.324,0,0,1,.331.365Z" transform="translate(776.576 785.647)"/><path d="M361.036,219.749h-.7a.317.317,0,0,0,.348.3.348.348,0,0,0,.261-.111l.063.077a.414.414,0,0,1-.327.139.421.421,0,0,1-.445-.435.414.414,0,0,1,.828,0S361.036,219.738,361.036,219.749Zm-.7-.084h.6a.3.3,0,0,0-.6,0Z" transform="translate(773.473 785.611)"/><path d="M363.408,219.721a.264.264,0,0,1-.177.063.226.226,0,0,1-.251-.247v-.515h-.15v-.1h.15v-.184h.115v.184h.258v.1h-.258v.5a.136.136,0,0,0,.146.153.188.188,0,0,0,.125-.042Z" transform="translate(771.784 785.976)"/><path d="M365.094,221.317a.247.247,0,0,1-.024.094l-.066.223h-.08l.056-.233a.084.084,0,0,1-.059-.084.087.087,0,0,1,.087-.087.083.083,0,0,1,.087.087Z" transform="translate(770.421 784.353)"/><path d="M367.08,219.679a.418.418,0,0,1,.438-.431.379.379,0,0,1,.348.17l-.087.056a.289.289,0,0,0-.247-.125.348.348,0,0,0,0,.661.285.285,0,0,0,.247-.122l.087.056a.379.379,0,0,1-.348.171.421.421,0,0,1-.438-.435Z" transform="translate(769.013 785.646)"/><path d="M369.65,219.688a.431.431,0,1,1,.435.435.421.421,0,0,1-.435-.435Zm.748,0a.31.31,0,0,0-.313-.348.348.348,0,0,0,0,.661.31.31,0,0,0,.313-.313Z" transform="translate(767.338 785.637)"/><path d="M373.583,219.613v.491h-.115v-.48a.237.237,0,0,0-.254-.271.278.278,0,0,0-.3.306v.445H372.8v-.849h.111v.157a.348.348,0,0,1,.324-.164.327.327,0,0,1,.348.365Z" transform="translate(765.283 785.646)"/><path d="M375.6,220.008l.052-.09a.491.491,0,0,0,.3.1c.16,0,.226-.056.226-.139,0-.223-.55-.049-.55-.383,0-.139.118-.244.348-.244a.585.585,0,0,1,.3.08l-.052.094a.431.431,0,0,0-.251-.073c-.153,0-.219.059-.219.139,0,.23.55.056.55.383,0,.146-.129.244-.348.244A.55.55,0,0,1,375.6,220.008Z" transform="translate(763.457 785.644)"/><path d="M378.836,219.716h-.7a.317.317,0,0,0,.348.3.348.348,0,0,0,.261-.111l.063.077a.414.414,0,0,1-.327.139.421.421,0,0,1-.445-.435.411.411,0,0,1,.414-.432.4.4,0,0,1,.411.432Zm-.7-.084h.581a.3.3,0,0,0-.6,0Z" transform="translate(761.867 785.644)"/><path d="M380.76,219.678a.418.418,0,0,1,.438-.431.369.369,0,0,1,.348.17l-.083.056a.3.3,0,0,0-.247-.125.348.348,0,0,0,0,.661.292.292,0,0,0,.247-.122l.083.056a.369.369,0,0,1-.348.171.421.421,0,0,1-.438-.435Z" transform="translate(760.094 785.647)"/><path d="M383.841,219.721a.271.271,0,0,1-.181.063.223.223,0,0,1-.247-.247v-.515h-.153v-.1h.153v-.184h.1v.184h.258v.1h-.258v.5a.136.136,0,0,0,.146.153.2.2,0,0,0,.125-.042Z" transform="translate(758.463 785.976)"/><path d="M386.066,219.749h-.7a.317.317,0,0,0,.348.3.348.348,0,0,0,.261-.111l.063.077a.414.414,0,0,1-.327.139.421.421,0,0,1-.445-.435.414.414,0,0,1,.828,0S386.066,219.738,386.066,219.749Zm-.7-.084h.6a.3.3,0,0,0-.6,0Z" transform="translate(757.152 785.611)"/><path d="M388.431,219.721a.271.271,0,0,1-.181.063.226.226,0,0,1-.247-.247v-.515h-.153v-.1H388v-.184h.115v.184h.257v.1h-.257v.5a.136.136,0,0,0,.146.153.188.188,0,0,0,.125-.042Z" transform="translate(755.47 785.976)"/><path d="M390.881,219.27v.849h-.108v-.153a.354.354,0,0,1-.654-.2v-.494h.115v.48c0,.181.094.275.254.275a.275.275,0,0,0,.289-.31v-.445Z" transform="translate(753.991 785.631)"/><path d="M393.865,219.716h-.7a.313.313,0,0,0,.348.3.324.324,0,0,0,.258-.111l.066.077a.449.449,0,0,1-.772-.3.413.413,0,1,1,.825,0Zm-.7-.084h.6a.3.3,0,0,0-.6,0Z" transform="translate(752.068 785.644)"/><path d="M396.438,219.245v.111h-.028a.275.275,0,0,0-.285.313v.431H396v-.849h.111v.167A.32.32,0,0,1,396.438,219.245Z" transform="translate(750.156 785.649)"/><path d="M289.03,225.131v.525h-.108v-.132a.324.324,0,0,1-.292.143c-.191,0-.31-.1-.31-.247s.084-.24.327-.24h.258v-.052c0-.146-.08-.226-.24-.226a.428.428,0,0,0-.282.1l-.052-.087a.543.543,0,0,1,.348-.115.3.3,0,0,1,.351.331Zm-.115.271v-.139h-.264c-.164,0-.219.066-.219.153s.08.16.216.16a.271.271,0,0,0,.258-.174Z" transform="translate(820.366 782.028)"/><path d="M291.926,223.83v1.2h-.108v-.167a.372.372,0,0,1-.331.177.435.435,0,0,1,0-.866.369.369,0,0,1,.324.171v-.512Zm-.111.772a.317.317,0,1,0-.317.331.31.31,0,0,0,.317-.331Z" transform="translate(818.559 782.658)"/><path d="M294.33,223.91a.085.085,0,0,1,.171,0,.087.087,0,0,1-.171,0Zm.028.268h.115v.849h-.115Z" transform="translate(816.447 782.658)"/><path d="M296.513,225.241a.414.414,0,0,1-.425.435.372.372,0,0,1-.324-.171v.473h-.115v-1.162h.122v.171a.369.369,0,0,1,.327-.177.414.414,0,0,1,.414.431Zm-.115,0a.317.317,0,1,0-.317.317A.317.317,0,0,0,296.4,225.241Z" transform="translate(815.587 782.019)"/><path d="M298.72,223.91a.084.084,0,0,1,.084-.08.08.08,0,0,1,.084.08.084.084,0,1,1-.167,0Zm.028.268h.115v.849h-.115Z" transform="translate(813.585 782.658)"/><path d="M299.7,225.579l.052-.09a.508.508,0,0,0,.3.1c.16,0,.226-.056.226-.139,0-.223-.55-.049-.55-.383,0-.139.118-.244.348-.244a.581.581,0,0,1,.3.08l-.049.094a.438.438,0,0,0-.251-.073c-.153,0-.223.059-.223.139,0,.23.55.056.55.383,0,.146-.129.244-.348.244A.553.553,0,0,1,299.7,225.579Z" transform="translate(812.946 782.012)"/><path d="M302.06,225.239a.418.418,0,0,1,.438-.431.379.379,0,0,1,.348.17l-.087.056a.3.3,0,0,0-.247-.125.348.348,0,0,0,0,.661.292.292,0,0,0,.247-.122l.087.056a.379.379,0,0,1-.348.171.421.421,0,0,1-.438-.435Z" transform="translate(811.408 782.021)"/><path d="M304.84,223.91a.084.084,0,0,1,.084-.08.08.08,0,0,1,.083.08.084.084,0,1,1-.167,0Zm.028.268h.115v.849h-.115Z" transform="translate(809.595 782.658)"/><path d="M306.943,225.173v.491h-.115v-.48a.237.237,0,0,0-.254-.271.278.278,0,0,0-.3.306v.445h-.115v-.849h.111v.157a.348.348,0,0,1,.324-.164.327.327,0,0,1,.348.365Z" transform="translate(808.734 782.021)"/><path d="M309.914,224.827v.755a.372.372,0,0,1-.425.425.6.6,0,0,1-.4-.132l.059-.087a.5.5,0,0,0,.348.115c.216,0,.313-.1.313-.306v-.108a.383.383,0,0,1-.331.164.414.414,0,1,1,0-.825.379.379,0,0,1,.348.171v-.164Zm-.111.4a.324.324,0,1,0-.324.313.3.3,0,0,0,.324-.31Z" transform="translate(806.862 782.009)"/><path d="M314.335,225.28h-.7a.31.31,0,0,0,.348.292.324.324,0,0,0,.258-.111l.066.077a.449.449,0,0,1-.773-.3.413.413,0,1,1,.825,0Zm-.7-.087h.6a.3.3,0,0,0-.6,0Z" transform="translate(803.924 782.019)"/><path d="M316.5,223.83h.115v1.2H316.5Z" transform="translate(801.992 782.658)"/><path d="M317.67,223.91a.085.085,0,0,1,.171,0,.087.087,0,0,1-.171,0Zm.028.268h.115v.849H317.7Z" transform="translate(801.229 782.658)"/><path d="M319.191,225.281a.265.265,0,0,1-.177.063.226.226,0,0,1-.251-.247v-.515h-.153v-.1h.153V224.3h.115v.184h.258v.1h-.258v.508a.136.136,0,0,0,.146.153.188.188,0,0,0,.125-.042Z" transform="translate(800.616 782.351)"/><path d="M320.88,226.837a.23.23,0,0,1-.021.094l-.07.223h-.077l.056-.233a.084.084,0,0,1-.059-.084.087.087,0,0,1,.087-.087.084.084,0,0,1,.083.087Z" transform="translate(799.247 780.754)"/><path d="M322.78,225.579l.052-.09a.491.491,0,0,0,.3.1c.16,0,.226-.056.226-.139,0-.223-.55-.049-.55-.383,0-.139.118-.244.348-.244a.585.585,0,0,1,.3.08l-.052.094a.432.432,0,0,0-.251-.073c-.153,0-.219.059-.219.139,0,.23.55.056.55.383,0,.146-.129.244-.348.244A.55.55,0,0,1,322.78,225.579Z" transform="translate(797.897 782.012)"/><path d="M326.016,225.28h-.7a.317.317,0,0,0,.348.292.348.348,0,0,0,.261-.111l.063.077a.449.449,0,0,1-.772-.3.413.413,0,1,1,.825,0Zm-.7-.087h.6a.3.3,0,0,0-.6,0Z" transform="translate(796.308 782.019)"/><path d="M328.846,223.83v1.2h-.111v-.167a.348.348,0,0,1-.327.177.435.435,0,0,1,0-.866.369.369,0,0,1,.324.171v-.512Zm-.111.772a.317.317,0,1,0-.317.331.31.31,0,0,0,.317-.331Z" transform="translate(794.486 782.658)"/><path d="M333.206,223.83v1.2h-.111v-.167a.369.369,0,0,1-.327.177.435.435,0,0,1,0-.866.372.372,0,0,1,.324.171v-.512Zm-.115.772a.317.317,0,1,0-.313.331.31.31,0,0,0,.313-.331Z" transform="translate(791.644 782.658)"/><path d="M335.61,223.9a.084.084,0,1,1,.084.084.08.08,0,0,1-.084-.084Zm.024.268h.111v.849h-.115Z" transform="translate(789.532 782.664)"/><path d="M337.433,225.136v.525h-.111v-.132a.313.313,0,0,1-.292.143c-.191,0-.31-.1-.31-.247s.084-.24.327-.24h.271v-.052a.209.209,0,0,0-.24-.226.421.421,0,0,0-.282.1l-.052-.087a.532.532,0,0,1,.348-.115.3.3,0,0,1,.341.331Zm-.115.271v-.139h-.268c-.164,0-.216.066-.216.153s.08.16.212.16A.271.271,0,0,0,337.319,225.407Z" transform="translate(788.809 782.024)"/><path d="M341.062,225.173v.491h-.115v-.48c0-.177-.091-.271-.244-.271a.275.275,0,0,0-.285.306v.445H340.3v-.48c0-.177-.09-.271-.244-.271a.275.275,0,0,0-.285.306v.445h-.115v-.849h.118v.157a.348.348,0,0,1,.31-.164.306.306,0,0,1,.3.181.365.365,0,0,1,.348-.181.324.324,0,0,1,.324.365Z" transform="translate(786.892 782.021)"/><path d="M345.154,224.752l-.574.223.574.219v.136l-.724-.285v-.139l.724-.285Z" transform="translate(783.781 782.143)"/><path d="M347.222,223.37h.139l-.532,1.521h-.139Z" transform="translate(782.308 782.958)"/><path d="M349.9,224v1.127h-.164v-.5h-.647v.5h-.164V224h.164v.484h.647V224Z" transform="translate(780.847 782.547)"/><path d="M352.677,224v1.127h-.153v-.988h-.254V224Z" transform="translate(778.669 782.547)"/><path d="M354.954,224.915v.139l-.724.285V225.2l.578-.219-.578-.223v-.132Z" transform="translate(777.392 782.136)"/><path d="M289.094,235.886l-.571.219.571.223v.132l-.724-.285v-.139l.724-.285Z" transform="translate(820.334 774.885)"/><path d="M292.162,235.556c0,.244-.177.393-.473.393h-.278v.348h-.16V235.17h.438C291.984,235.163,292.162,235.309,292.162,235.556Zm-.164,0c0-.16-.108-.254-.313-.254h-.275v.5h.275C291.89,235.806,292,235.716,292,235.556Z" transform="translate(818.456 775.264)"/><path d="M295.14,236.035v.139l-.72.285v-.132l.574-.223-.574-.219v-.136Z" transform="translate(816.389 774.885)"/><path d="M299.084,235.886l-.574.219.574.223v.132l-.724-.285v-.139l.724-.285Z" transform="translate(813.819 774.885)"/><path d="M301.23,235.15h.164v1.127h-.164Z" transform="translate(811.948 775.277)"/><path d="M303.717,236.251v-.832l-.411.7h-.073l-.411-.7v.818h-.153V235.11h.132l.47.793.466-.793h.132v1.127Z" transform="translate(811.01 775.303)"/><path d="M307.8,235.669h.157v.435a.668.668,0,0,1-.428.143.578.578,0,1,1,.438-.981l-.1.1a.445.445,0,0,0-.327-.132.435.435,0,1,0,0,.87.466.466,0,0,0,.264-.073Z" transform="translate(808.203 775.315)"/><path d="M311.62,236.1l.059-.125a.581.581,0,0,0,.372.132c.2,0,.282-.077.282-.174,0-.278-.7-.1-.7-.522,0-.174.136-.324.431-.324a.661.661,0,0,1,.365.1l-.056.129a.585.585,0,0,0-.31-.094c-.191,0-.275.084-.275.181,0,.275.7.1.7.518,0,.171-.139.32-.438.32a.675.675,0,0,1-.431-.143Z" transform="translate(805.174 775.316)"/><path d="M315.592,236.277l-.244-.348H315v.348h-.16V235.15h.438c.3,0,.473.146.473.393a.348.348,0,0,1-.251.348l.268.379Zm0-.734c0-.16-.108-.254-.313-.254H315v.5h.275C315.466,235.794,315.592,235.7,315.592,235.543Z" transform="translate(803.074 775.277)"/><path d="M317.9,235.686a.571.571,0,0,1,.6-.578.56.56,0,0,1,.431.177l-.108.1a.411.411,0,0,0-.317-.136.435.435,0,0,0,0,.87.421.421,0,0,0,.317-.136l.108.1a.56.56,0,0,1-.431.177.571.571,0,0,1-.6-.578Z" transform="translate(801.079 775.304)"/><path d="M321.34,236h.724v.125h-.724Zm0,.383h.724v.125h-.724Z" transform="translate(798.836 774.723)"/><path d="M325.26,235.15h.136v.435h-.115Zm.292,0h.136v.435h-.115Z" transform="translate(796.28 775.277)"/><path d="M327.27,235.15h.16v.992h.612v.139h-.773Z" transform="translate(794.97 775.277)"/><path d="M329.7,236.312a.445.445,0,1,1,.445.438.424.424,0,0,1-.445-.438Zm.731,0a.289.289,0,1,0-.134.276A.289.289,0,0,0,330.43,236.312Z" transform="translate(793.386 774.814)"/><path d="M333.329,235.908v.15h-.035a.258.258,0,0,0-.271.289v.425h-.153v-.853h.146v.143A.348.348,0,0,1,333.329,235.908Z" transform="translate(791.318 774.783)"/><path d="M335.332,236.4h-.7a.289.289,0,0,0,.31.251.317.317,0,0,0,.247-.1l.087.1a.47.47,0,0,1-.8-.3.421.421,0,0,1,.431-.435.411.411,0,0,1,.421.442Zm-.7-.111h.55a.278.278,0,0,0-.55,0Z" transform="translate(790.27 774.781)"/><path d="M338.97,236.268v.491h-.153v-.491c0-.167-.084-.251-.223-.251a.257.257,0,0,0-.258.285v.438h-.153v-.473c0-.167-.08-.251-.223-.251a.251.251,0,0,0-.257.285v.438h-.153v-.853h.157v.125a.348.348,0,0,1,.292-.136.317.317,0,0,1,.3.16.383.383,0,0,1,.327-.16.348.348,0,0,1,.344.39Z" transform="translate(788.267 774.802)"/><path d="M343.61,234.984a.1.1,0,0,1,.108-.1.1.1,0,1,1-.108.1Zm.028.264h.157v.853h-.157Z" transform="translate(784.315 775.453)"/><path d="M345.88,236.344a.414.414,0,0,1-.431.438.348.348,0,0,1-.3-.139v.442H345v-1.166h.146v.136a.348.348,0,0,1,.306-.146.414.414,0,0,1,.428.435Zm-.157,0a.289.289,0,1,0-.289.3.282.282,0,0,0,.289-.3Z" transform="translate(783.409 774.783)"/><path d="M347.84,236.715l.063-.122a.543.543,0,0,0,.3.09c.146,0,.205-.045.205-.118,0-.191-.543-.024-.543-.348,0-.153.139-.257.348-.257a.609.609,0,0,1,.31.08l-.063.122a.438.438,0,0,0-.247-.07c-.136,0-.2.052-.2.118,0,.2.539.038.539.369,0,.157-.139.254-.369.254A.584.584,0,0,1,347.84,236.715Z" transform="translate(781.558 774.749)"/><path d="M351.246,235.927v.853H351.1v-.136a.366.366,0,0,1-.661-.233v-.491h.157v.473c0,.167.083.251.23.251a.247.247,0,0,0,.264-.282v-.442Z" transform="translate(779.864 774.775)"/><path d="M355.03,236.268v.491h-.157v-.491c0-.167-.08-.251-.219-.251a.257.257,0,0,0-.258.285v.438h-.157v-.473c0-.167-.08-.251-.219-.251a.257.257,0,0,0-.257.285v.438h-.153v-.853h.136v.125a.348.348,0,0,1,.3-.136.313.313,0,0,1,.3.16.39.39,0,0,1,.331-.16.348.348,0,0,1,.362.39Z" transform="translate(777.795 774.802)"/><path d="M358.37,235.15h.136v.435h-.115Zm.292,0h.136v.435h-.115Z" transform="translate(774.691 775.277)"/><path d="M360.924,236.035v.139l-.724.285v-.132l.574-.223-.574-.219v-.136Z" transform="translate(773.499 774.885)"/><path d="M363.631,235.905l-.574.219.574.223v.132l-.731-.275v-.139l.724-.285Z" transform="translate(771.738 774.866)"/><path d="M365.692,234.49h.139l-.532,1.521h-.139Z" transform="translate(770.265 775.707)"/><path d="M368.285,235.556c0,.244-.177.393-.473.393h-.278v.348h-.164V235.17h.442C368.118,235.163,368.285,235.309,368.285,235.556Zm-.164,0c0-.16-.108-.254-.313-.254h-.275v.5h.275c.216,0,.324-.09.324-.251Z" transform="translate(768.823 775.264)"/><path d="M371.294,236.035v.139l-.724.285v-.132l.578-.223-.578-.219v-.136Z" transform="translate(766.737 774.885)"/><path d="M289.094,247.006l-.571.219.571.223v.132l-.724-.285v-.139l.724-.285Z" transform="translate(820.334 767.635)"/><path d="M291.143,245.61h.143l-.546,1.528H290.6Z" transform="translate(818.88 768.457)"/><path d="M293.851,247.095c0,.195-.146.306-.431.306h-.539V246.27h.5c.261,0,.407.108.407.292a.264.264,0,0,1-.153.251A.275.275,0,0,1,293.851,247.095Zm-.811-.7v.348h.348c.167,0,.261-.059.261-.181s-.094-.181-.261-.181Zm.647.7c0-.129-.1-.188-.275-.188h-.372v.376h.372c.177-.014.275-.063.275-.2Z" transform="translate(817.393 768.026)"/><path d="M296.119,246.716a.6.6,0,1,1,.6.578.574.574,0,0,1-.6-.578Zm1.044,0a.438.438,0,1,0-.438.435.424.424,0,0,0,.435-.435Z" transform="translate(815.281 768.144)"/><path d="M300.28,246.267h.477a.567.567,0,1,1,0,1.131h-.477Zm.466.988a.425.425,0,1,0,0-.849h-.306v.849Z" transform="translate(812.568 768.029)"/><path d="M304.069,247.008v.393h-.16V247l-.449-.734h.174l.348.6.348-.6h.16Z" transform="translate(810.494 768.026)"/><path d="M307.514,247.155v.139l-.724.285v-.132l.574-.223-.574-.219v-.136Z" transform="translate(808.323 767.635)"/><path class="h" d="M321.742,160.19c0,.052-11.167.09-24.939.09s-24.943-.038-24.943-.09,11.163-.09,24.943-.09S321.742,160.142,321.742,160.19Z" transform="translate(831.099 824.211)"/><path class="h" d="M274.95,154.64a.32.32,0,1,1-.32-.32A.324.324,0,0,1,274.95,154.64Z" transform="translate(829.501 827.98)"/><circle class="h" cx="0.32" cy="0.32" r="0.32" transform="translate(1105.043 982.3)"/><path class="h" d="M282.027,154.64a.324.324,0,1,1-.32-.32A.324.324,0,0,1,282.027,154.64Z" transform="translate(824.892 827.98)"/><path class="c" d="M280.83,197.924c-.049,0-.09-8.466-.09-18.906s.042-18.909.09-18.909.091,8.463.091,18.909S280.865,197.924,280.83,197.924Z" transform="translate(825.309 824.205)"/><rect class="j" width="20.618" height="14.698" transform="translate(1076.27 953.823)"/><path class="i" d="M100.972,60.88c0,.049-4.656.09-10.394.09s-10.4-.042-10.4-.09,4.656-.09,10.4-.09S100.972,60.828,100.972,60.88Z" transform="translate(996.078 895.125)"/><path class="i" d="M87.074,57.533a.258.258,0,0,1-.275.244.247.247,0,1,1,.275-.244Z" transform="translate(991.905 897.41)"/><ellipse class="i" cx="0.278" cy="0.244" rx="0.278" ry="0.244" transform="translate(1079.418 954.686)"/><path class="i" d="M96.043,75.23c0,.884-.637,1.416-1.691,1.416H93.238v1.308H92.8V73.81h1.552C95.406,73.81,96.043,74.342,96.043,75.23Zm-.435,0c0-.661-.438-1.044-1.27-1.044h-1.1v2.07h1.1C95.17,76.26,95.608,75.88,95.608,75.23Z" transform="translate(987.85 886.635)"/><path class="i" d="M108.3,73.81v4.144h-.431V76.041h-2.592v1.914h-.438V73.81h.438v1.848h2.592V73.81Z" transform="translate(980 886.635)"/><path class="i" d="M121.923,75.23c0,.884-.637,1.416-1.691,1.416h-1.114v1.308h-.438V73.81h1.552C121.283,73.81,121.923,74.342,121.923,75.23Zm-.438,0c0-.661-.438-1.044-1.267-1.044h-1.1v2.07h1.1c.825,0,1.263-.376,1.263-1.027Z" transform="translate(970.976 886.635)"/><rect class="j" width="18.638" height="13.286" transform="translate(1148.38 1003.867)"/><path class="i" d="M415.918,234v2.638h-.609v-1.079h-1.2v1.079H413.5V234h.612v1.044h1.2V234Z" transform="translate(738.746 776.027)"/><path class="i" d="M422.236,234.508h-.846V234h2.3v.5h-.846v2.14h-.609Z" transform="translate(733.602 776.027)"/><path class="i" d="M438.13,234h.612v2.14h1.322v.5H438.13Z" transform="translate(722.687 776.027)"/><path class="i" d="M431.068,236.648v-1.58l-.776,1.3h-.275l-.773-1.27v1.549h-.574V234h.5l.988,1.639.971-1.639h.5v2.638Z" transform="translate(728.854 776.027)"/><path class="i" d="M421.161,221.889c0,.031-4.207.059-9.4.059s-9.4-.028-9.4-.059,4.207-.059,9.4-.059S421.161,221.847,421.161,221.889Z" transform="translate(746.003 783.962)"/><path class="i" d="M405.821,218.783a.254.254,0,1,1-.251-.212.254.254,0,0,1,.251.212Z" transform="translate(744.079 786.087)"/><path class="i" d="M408.451,218.782a.254.254,0,1,1-.25-.212.254.254,0,0,1,.25.212Z" transform="translate(742.364 786.087)"/><path class="i" d="M411.052,218.768a.254.254,0,1,1-.251-.219A.237.237,0,0,1,411.052,218.768Z" transform="translate(740.671 786.101)"/><path class="j" d="M287.049,102.388a2.575,2.575,0,0,1,2.669-2.613,2.46,2.46,0,0,1,1.834.7l-.237.244a2.151,2.151,0,0,0-1.58-.609,2.265,2.265,0,1,0,0,4.524,2.158,2.158,0,0,0,1.58-.619l.237.244a2.467,2.467,0,0,1-1.834.72,2.572,2.572,0,0,1-2.669-2.585Z" transform="translate(821.195 863.547)"/><path class="j" d="M302,104.3l.167-.278a2.464,2.464,0,0,0,1.7.647c1.044,0,1.486-.449,1.486-1.009,0-1.545-3.212-.616-3.212-2.512,0-.731.557-1.371,1.823-1.371a2.746,2.746,0,0,1,1.552.466l-.139.3a2.565,2.565,0,0,0-1.413-.432c-1,0-1.448.463-1.448,1.044,0,1.545,3.212.633,3.212,2.5,0,.727-.581,1.361-1.855,1.361A2.638,2.638,0,0,1,302,104.3Z" transform="translate(811.446 863.542)"/><path class="j" d="M314.88,104.3l.171-.278a2.457,2.457,0,0,0,1.7.647c1.044,0,1.486-.449,1.486-1.009,0-1.545-3.212-.616-3.212-2.512,0-.731.557-1.371,1.823-1.371a2.763,2.763,0,0,1,1.552.466l-.139.3a2.565,2.565,0,0,0-1.413-.431c-1,0-1.451.463-1.451,1.044,0,1.545,3.215.633,3.215,2.5,0,.727-.581,1.361-1.855,1.361A2.651,2.651,0,0,1,314.88,104.3Z" transform="translate(803.049 863.541)"/><path class="j" d="M295.1,98.6V97.542c0-.7,0-1.695-.021-2.979,0-2.572-.021-6.264-.035-10.787l.07.073H272.187l.09-.09v14.81l-.083-.084,16.494.042,4.729.021h.028l-4.712.021-16.55.042H272.1V83.7h.094l22.925.021h.073V83.8c0,4.524-.028,8.237-.038,10.819,0,1.277,0,2.276-.017,2.965v.769A.518.518,0,0,1,295.1,98.6Z" transform="translate(830.942 874.026)"/><path class="j" d="M295.156,90.1c0,.049-5.136.09-11.483.09s-11.483-.042-11.483-.09,5.154-.1,11.5-.1S295.156,90.045,295.156,90.1Z" transform="translate(830.883 869.918)"/><path class="j" d="M276.119,86.712a.282.282,0,1,1-.278-.244.261.261,0,0,1,.278.244Z" transform="translate(828.688 872.221)"/><path class="j" d="M279.049,86.712a.282.282,0,1,1-.278-.244.261.261,0,0,1,.278.244Z" transform="translate(826.777 872.221)"/><path class="j" d="M281.949,86.712a.282.282,0,1,1-.278-.244.261.261,0,0,1,.278.244Z" transform="translate(824.887 872.221)"/><g transform="translate(1059.646 977.481)"><path class="k" d="M147.561,262.22l9.089,30.667a3.212,3.212,0,0,0,3.076,2.3l36.885.1a3.414,3.414,0,0,0,3.417-3.591h0a3.414,3.414,0,0,0-3.407-3.229h-14.1L171.224,257H151.452a4.057,4.057,0,0,0-3.89,5.22Z" transform="translate(-147.391 -216.451)"/><path class="h" d="M206.087,354.429c0,.073-3.762.129-8.4.129s-8.4-.056-8.4-.129,3.758-.129,8.4-.129S206.087,354.356,206.087,354.429Z" transform="translate(-174.71 -279.893)"/><path class="h" d="M155.677,259.78c.066-.021,2.579,7.325,5.609,16.41s5.428,16.47,5.362,16.491-2.578-7.307-5.609-16.411S155.608,259.8,155.677,259.78Z" transform="translate(-152.793 -218.264)"/><path class="k" d="M228.938,394l-2.248-.052V366.74h2.248Z" transform="translate(-199.096 -288.005)"/><path class="k" d="M199.86,438.555h20.924l-9.479-3.3h-2.248Z" transform="translate(-181.602 -332.681)"/><path class="j" d="M184.65,216.717l3.462,17.3-.619,12.962,23.273-3.869-.912-11.344-.028-9.4,5.707,11.059,4.44-8.585-8.132-14.737h0a13.735,13.735,0,0,0-5.321-3.445,10.916,10.916,0,0,0-3.337-.64h0a13.345,13.345,0,0,1-8.056,0c-.327.042-.779.087-1.354.153h-.1a10.29,10.29,0,0,0-8.981,9.674Z" transform="translate(-171.685 -183.211)"/><path class="j" d="M190.456,206.47s-9.562.073-10.745,10.171l-.16,7.412,8.233-.07Z" transform="translate(-168.36 -183.505)"/><path class="h" d="M256.6,250.519c-.073,0-.042-4.1.07-9.141s.261-9.138.331-9.138.042,4.1-.07,9.141S256.666,250.519,256.6,250.519Z" transform="translate(-218.57 -200.307)"/><path class="l" d="M247.094,265.69s4.524.324,5.338,1.521,2.057,4.6,1.587,4.628a1.281,1.281,0,0,1-.814-.254l-1.239-2.2s.2,2.123-.543,2.164-4.423.779-4.423.779Z" transform="translate(-212.339 -222.118)"/><path class="j" d="M179.527,250.622l-.017,11.661a4.43,4.43,0,0,0,5.366,4.089l18.237-3.758-.038-7.478-15.739,3.031-.209-7.916Z" transform="translate(-168.333 -212.05)"/><path class="h" d="M204.413,258.563a1.564,1.564,0,0,1,.24-.066l.7-.16,2.679-.567,9.5-1.952-.094.111v-7.68l.153.129-3.208.616-12.527,2.384-.136.028v-.111c.118-3.48.219-6.361.289-8.407.042-1,.073-1.785.1-2.349,0-.254.024-.459.035-.616a.939.939,0,0,1,.024-.212,1.678,1.678,0,0,1,0,.212v.619c0,.564-.021,1.354-.035,2.349-.049,2.05-.115,4.938-.195,8.407l-.132-.108,12.527-2.436,3.208-.612.153-.031v7.934l-.094.017-9.517,1.844-2.693.5-.713.125A1.21,1.21,0,0,1,204.413,258.563Z" transform="translate(-182.815 -205.178)"/><path class="h" d="M222.085,206.059a.872.872,0,0,1,.073.171,3.531,3.531,0,0,1,.143.515,4.207,4.207,0,0,1-.087,1.963,5.157,5.157,0,0,1-1.58,2.436,4.92,4.92,0,0,1-3.32,1.256,4.524,4.524,0,0,1-3.281-1.333,4.61,4.61,0,0,1-1.221-2.641,4.127,4.127,0,0,1,.23-1.952,2.694,2.694,0,0,1,.233-.48c.063-.1.1-.157.108-.153s-.111.233-.247.668a4.4,4.4,0,0,0-.143,1.893,4.524,4.524,0,0,0,1.211,2.5,4.322,4.322,0,0,0,3.111,1.239,4.739,4.739,0,0,0,3.16-1.173,5.091,5.091,0,0,0,1.566-2.318,4.409,4.409,0,0,0,.16-1.893C222.14,206.309,222.057,206.066,222.085,206.059Z" transform="translate(-190.026 -183.094)"/><path class="j" d="M278.261,421.25l3.445,9.493,4.893,6.719a1.044,1.044,0,0,1-.289,1.486h0a1.044,1.044,0,0,1-.943.08c-1.973-.818-9.211-3.866-9.427-4.572-.247-.821-4.92-11.031-4.92-11.031Z" transform="translate(-228 -323.547)"/><g class="m" transform="translate(47.707 110.272)"><path class="i" d="M295.107,462.5,284.49,457.37l.157.4a1.58,1.58,0,0,0,.7.807c.87.47,3.306,1.712,8.779,4.012a1.044,1.044,0,0,0,.971-.09Z" transform="translate(-284.49 -457.37)"/></g><g class="m" transform="translate(47.715 106.475)"><path class="i" d="M285.243,446.468a.623.623,0,0,1,.456.7.6.6,0,0,1-.7.459.658.658,0,0,1-.48-.745.626.626,0,0,1,.769-.4" transform="translate(-284.514 -446.456)"/></g><path class="h" d="M304.1,459.483a3.1,3.1,0,0,1,.543-1.044,3.213,3.213,0,0,1,1-.63c-.01-.063-.15-.052-.383,0a1.656,1.656,0,0,0-1.194,1.3C304.037,459.34,304.075,459.483,304.1,459.483Z" transform="translate(-249.541 -347.356)"/><path class="h" d="M307.493,463.25c.059.024.244-.4.675-.731a7.761,7.761,0,0,1,.873-.473,1.139,1.139,0,0,0-1.009.3C307.545,462.729,307.434,463.243,307.493,463.25Z" transform="translate(-251.772 -350.125)"/><path class="h" d="M298.774,455.559a11.9,11.9,0,0,1,.967-1.194,11.611,11.611,0,0,1,1.27-.87,2.222,2.222,0,0,0-1.42.7A2.351,2.351,0,0,0,298.774,455.559Z" transform="translate(-246.091 -344.562)"/><path class="h" d="M295.087,449.339c.045.049.48-.372,1.148-.661s1.267-.348,1.263-.4a2.041,2.041,0,0,0-1.354.2A2.124,2.124,0,0,0,295.087,449.339Z" transform="translate(-243.691 -341.141)"/><path class="h" d="M291.986,441.5a4.971,4.971,0,0,1,1.176-.72,5.665,5.665,0,0,1,1.371-.171c.014-.063-.143-.1-.407-.146a2.262,2.262,0,0,0-1.914.668C292.025,441.335,291.955,441.484,291.986,441.5Z" transform="translate(-241.666 -336.063)"/><path class="h" d="M291.178,436.227a.926.926,0,0,0-.129-.348,2.647,2.647,0,0,0-.644-.821,1.169,1.169,0,0,0-.675-.348.418.418,0,0,0-.4.257.672.672,0,0,0,0,.48,1.461,1.461,0,0,0,1.7.807,1.691,1.691,0,0,0,1.232-1.43.592.592,0,0,0-.15-.466.414.414,0,0,0-.477-.049,1.448,1.448,0,0,0-.494.564,3.024,3.024,0,0,0-.348.981.856.856,0,0,0,0,.383,4.6,4.6,0,0,1,.508-1.281,1.364,1.364,0,0,1,.442-.48.216.216,0,0,1,.261.024.4.4,0,0,1,.083.31A1.517,1.517,0,0,1,291,436.039a1.263,1.263,0,0,1-1.441-.654.484.484,0,0,1-.028-.348.226.226,0,0,1,.223-.143,1.061,1.061,0,0,1,.574.278A3.873,3.873,0,0,1,291.178,436.227Z" transform="translate(-239.908 -332.027)"/><path class="j" d="M319.628,414.038l-.3,7.715s7.739,2.9,7.823,4.325l-14.963-.042L312.15,414Z" transform="translate(-254.818 -318.819)"/><g class="m" transform="translate(59.448 102.259)"><path class="i" d="M318.666,434.356a.612.612,0,0,0-.425.7.588.588,0,0,0,.7.428.647.647,0,0,0,.445-.741.616.616,0,0,0-.766-.365" transform="translate(-318.231 -434.343)"/></g><g class="m" transform="translate(57.36 106.017)"><path class="i" d="M312.23,446.341v-1.2l14.392.48s.665.292.588.762Z" transform="translate(-312.23 -445.14)"/></g><path class="h" d="M330.923,435.943c0,.073-.365.108-.727.348s-.553.543-.619.512.042-.452.484-.727S330.941,435.876,330.923,435.943Z" transform="translate(-266.169 -333.086)"/><path class="h" d="M336.134,437.885c.017.073-.3.195-.55.5s-.32.637-.393.633-.118-.418.2-.8S336.134,437.815,336.134,437.885Z" transform="translate(-269.807 -334.374)"/><path class="h" d="M340.378,440.991c-.066,0-.167-.348.024-.748s.529-.56.56-.5-.181.275-.348.605S340.451,440.984,340.378,440.991Z" transform="translate(-273.167 -335.597)"/><path class="h" d="M330.2,430.521c-.031.066-.365-.035-.779,0s-.738.157-.776.094.275-.324.762-.348S330.234,430.461,330.2,430.521Z" transform="translate(-265.571 -329.424)"/><g class="b" transform="translate(57.332 96.747)"><path d="M319.569,418.5l-.052,1.375-7.36-.087-.007-1.239Z" transform="translate(-312.15 -418.5)"/></g><path class="h" d="M328.947,424.257a1.458,1.458,0,0,1-.752,0,3.539,3.539,0,0,1-.783-.244,3.481,3.481,0,0,1-.432-.23,1.044,1.044,0,0,1-.226-.177.32.32,0,0,1-.031-.39.4.4,0,0,1,.32-.167.943.943,0,0,1,.282.042,2.931,2.931,0,0,1,.466.16,2.63,2.63,0,0,1,.7.456c.348.324.466.6.442.612s-.2-.205-.557-.473a2.915,2.915,0,0,0-.668-.379,2.563,2.563,0,0,0-.428-.132c-.16-.045-.3-.045-.348.024s-.017.038,0,.083a.774.774,0,0,0,.167.132,3.822,3.822,0,0,0,.4.226,4.217,4.217,0,0,0,.724.278A4.783,4.783,0,0,1,328.947,424.257Z" transform="translate(-264.286 -324.72)"/><path class="h" d="M332.561,422.373a1.25,1.25,0,0,1-.195-.727,2.507,2.507,0,0,1,.1-.821,2.784,2.784,0,0,1,.191-.452.626.626,0,0,1,.48-.372.348.348,0,0,1,.313.209,1.086,1.086,0,0,1,.077.278,1.634,1.634,0,0,1,0,.5,1.74,1.74,0,0,1-.324.772c-.292.386-.6.473-.605.449a3.055,3.055,0,0,0,.456-.55,1.678,1.678,0,0,0,.24-.7,1.53,1.53,0,0,0,0-.435c-.021-.157-.08-.285-.139-.271a.537.537,0,0,0-.264.247,2.626,2.626,0,0,0-.188.4,2.693,2.693,0,0,0-.146.748C332.526,422.088,332.6,422.359,332.561,422.373Z" transform="translate(-267.998 -322.732)"/><path class="g" d="M273.629,307.755c-8.849.915-20.579,2.119-20.579,2.119l1.6,14.4s17.232-4.555,17.11-4.176.8,30.643.8,30.643h10.377l.195-34.286a8.619,8.619,0,0,0-9.5-8.7Z" transform="translate(-216.283 -249.515)"/><path class="g" d="M192.21,308.951v4.465c0,3.041,3.462,6.264,6.5,6.264h2.352c1.851,0,4.753-1.35,6.264-2.436l.9-.658,10.808,33.479s12.364-2.217,12.364-2.606-8.372-27.42-12.238-39.965a9.579,9.579,0,0,0-12.137-6.365c-.171.059-.348.125-.518.195C200.948,303.544,192.21,308.951,192.21,308.951Z" transform="translate(-176.614 -244.9)"/><path class="n" d="M271.057,348.679a.622.622,0,0,1-.052-.118c-.038-.094-.084-.212-.139-.348-.118-.317-.289-.783-.491-1.392-.414-1.207-.981-2.972-1.67-5.154-1.392-4.36-3.229-10.4-5.241-17.086-1-3.344-1.952-6.528-2.822-9.43-.432-1.448-.839-2.826-1.221-4.117q-.292-.967-.557-1.862a16.389,16.389,0,0,0-.564-1.695,6.96,6.96,0,0,0-1.74-2.474,14.925,14.925,0,0,0-1.83-1.423c-.529-.348-.95-.616-1.239-.79l-.324-.205a.434.434,0,0,1-.108-.077.446.446,0,0,1,.118.056l.348.181c.3.16.727.407,1.267.752a13.842,13.842,0,0,1,1.872,1.392,7.009,7.009,0,0,1,1.816,2.505,16.39,16.39,0,0,1,.585,1.709c.184.6.372,1.218.571,1.862l1.246,4.106c.873,2.9,1.834,6.083,2.843,9.423,2.011,6.671,3.828,12.712,5.164,17.11l1.594,5.174.445,1.392c.045.15.08.268.111.365S271.064,348.679,271.057,348.679Z" transform="translate(-216.29 -246.125)"/><path class="n" d="M308.855,330.877c.063.042-.525.926-1.016,2.126s-.713,2.237-.79,2.224a5.409,5.409,0,0,1,.55-2.324A5.7,5.7,0,0,1,308.855,330.877Z" transform="translate(-251.478 -264.62)"/><path class="n" d="M311.653,334.865c.028.07-.863.463-1.792,1.2s-1.528,1.5-1.59,1.458a4.23,4.23,0,0,1,1.43-1.66A4.512,4.512,0,0,1,311.653,334.865Z" transform="translate(-252.285 -267.216)"/><path class="n" d="M245.622,367.547c-.066.021-2.986-8.936-6.521-20.009s-6.34-20.068-6.264-20.089,2.986,8.936,6.521,20.012S245.691,367.526,245.622,367.547Z" transform="translate(-203.103 -262.387)"/><path class="c" d="M231.47,258.293l35.372.341,6.6-18.645-25.729.174-5.971,16.765-10.269.157Z" transform="translate(-202.213 -205.361)"/><path class="i" d="M306.226,266.053a1.434,1.434,0,1,1,1.618-1.218A1.434,1.434,0,0,1,306.226,266.053Z" transform="translate(-250.15 -220.494)"/><path class="o" d="M214.974,142.943a3.375,3.375,0,0,1,2.485-2.265,4,4,0,0,1,3.654.592c.7.522,1.218,1.277,2.032,1.559,1.336.463,2.9-.536,4.176.063a1.823,1.823,0,0,1-.863,3.48,1.621,1.621,0,0,1,.633,2.338,2.432,2.432,0,0,1-2.471.9,5.122,5.122,0,0,1-2.4-1.343c-.7-.619-1.308-1.322-2.046-1.886a3.97,3.97,0,0,0-2.561-.94,3.641,3.641,0,0,0-2.892,2.14,9.188,9.188,0,0,0-.759,3.664,15.048,15.048,0,0,1-.463,3.73.491.491,0,0,1-.251.348c-.205.063-.379-.153-.48-.348a18.443,18.443,0,0,1-2.105-6.859,5.712,5.712,0,0,1,.658-3.88c.766-1.173,2.7-2.032,3.643-1.291" transform="translate(-188.605 -140.473)"/><path class="l" d="M214.963,151.944l-.644,14.079c-.108,2.394.223,5.936,4.016,5.936h0c3.292-.251,4.263-3.327,4.364-5.568.045-1.044.087-1.942.1-2.05a4.274,4.274,0,0,0,4.019-3.709c.2-1.709.348-5.265.418-8.48a6.636,6.636,0,0,0-5.916-6.761l-.348-.035C217.26,145.187,215.036,148.235,214.963,151.944Z" transform="translate(-191.02 -143.653)"/><path class="p" d="M230.365,196.423a8.268,8.268,0,0,1-4.475-1.8s.818,2.662,4.384,2.721Z" transform="translate(-198.574 -175.778)"/><path class="h" d="M245.881,170.459a.508.508,0,0,1-.543.459.484.484,0,0,1-.47-.512.508.508,0,0,1,.539-.459.484.484,0,0,1,.473.512Z" transform="translate(-210.948 -159.691)"/><path class="h" d="M245,168.471c-.07.059-.421-.264-.967-.32s-.971.174-1.023.1.052-.146.24-.254a1.41,1.41,0,0,1,.828-.164,1.329,1.329,0,0,1,.759.348C244.985,168.321,245.03,168.447,245,168.471Z" transform="translate(-209.725 -158.308)"/><path class="h" d="M230.485,169.36a.508.508,0,0,1-.543.459.491.491,0,0,1-.473-.512.515.515,0,0,1,.543-.459.487.487,0,0,1,.473.512Z" transform="translate(-200.908 -158.974)"/><path class="h" d="M229.6,167.13c-.07.059-.421-.264-.967-.324s-.971.174-1.023.1.052-.143.24-.251a1.392,1.392,0,0,1,.828-.164,1.354,1.354,0,0,1,.759.348C229.585,166.977,229.63,167.1,229.6,167.13Z" transform="translate(-199.684 -157.433)"/><path class="h" d="M237.79,171.992a3.559,3.559,0,0,1,.9-.066c.143,0,.275,0,.31-.1a.748.748,0,0,0-.049-.425c-.1-.348-.195-.717-.3-1.1a17.906,17.906,0,0,1-.63-2.867,17.843,17.843,0,0,1,.86,2.808c.1.386.191.755.278,1.107a.79.79,0,0,1,0,.553.348.348,0,0,1-.247.181.954.954,0,0,1-.24,0A3.714,3.714,0,0,1,237.79,171.992Z" transform="translate(-206.333 -158.049)"/><path class="h" d="M232.845,181.13c.087,0,.028.6.487,1.068s1.1.473,1.093.557-.153.1-.421.08a1.489,1.489,0,0,1-.915-.435,1.284,1.284,0,0,1-.369-.891C232.723,181.262,232.817,181.123,232.845,181.13Z" transform="translate(-203.028 -166.982)"/><path class="o" d="M229.707,161.285c-.07.143-.605,0-1.253.024s-1.18.129-1.253,0c-.028-.066.077-.195.3-.317a2.154,2.154,0,0,1,1.907,0C229.631,161.09,229.738,161.219,229.707,161.285Z" transform="translate(-199.427 -153.707)"/><path class="o" d="M245.208,163.835c-.108.111-.47-.056-.919-.111s-.842,0-.915-.143c-.035-.066.038-.184.219-.285a1.3,1.3,0,0,1,.769-.122,1.277,1.277,0,0,1,.7.327C245.219,163.643,245.257,163.779,245.208,163.835Z" transform="translate(-209.969 -155.265)"/><path class="l" d="M211.459,171.531c-.059-.031-2.356-.978-2.537,1.451a1.83,1.83,0,0,0,2.3,2.039C211.233,174.952,211.459,171.531,211.459,171.531Z" transform="translate(-187.505 -160.589)"/><path class="p" d="M211.723,175.484a.772.772,0,0,1-.118.056.442.442,0,0,1-.317-.017,1.061,1.061,0,0,1-.418-.978,1.409,1.409,0,0,1,.164-.6.494.494,0,0,1,.348-.3.219.219,0,0,1,.24.136c.028.07,0,.118.021.122s.056-.035.045-.139a.257.257,0,0,0-.087-.157.313.313,0,0,0-.23-.08.6.6,0,0,0-.47.348,1.458,1.458,0,0,0-.195.665,1.1,1.1,0,0,0,.539,1.1.452.452,0,0,0,.39-.038C211.713,175.544,211.73,175.488,211.723,175.484Z" transform="translate(-188.674 -162.026)"/><path class="o" d="M228.486,150.5A5.153,5.153,0,0,1,224.053,149c-.783-.821-1.336-1.942-2.38-2.391a2.9,2.9,0,0,0-2.231.066,5.568,5.568,0,0,0-1.83,1.357c.491,1.872-.181,3.828-.846,5.648a.971.971,0,0,1-.348.529c-.31.191-.72-.028-.943-.317a3,3,0,0,1-.487-1.646,9.983,9.983,0,0,1,.438-3.925,6.848,6.848,0,0,1,2.227-3.222,6.451,6.451,0,0,1,4.694-1.2,7.916,7.916,0,0,1,4.4,2.119,4.639,4.639,0,0,1,1.3,1.872" transform="translate(-191.441 -142.664)"/></g><g transform="translate(1033.001 1043.433)"><path class="q" d="M55.541,376.915a6.58,6.58,0,0,1,4.064-.5,3.411,3.411,0,0,1,2.015.9,1.449,1.449,0,0,1,.021,2.011,1.935,1.935,0,0,1-1.27.32c-1.079,0-2.276-.2-3.132.449-.494.369-.821.985-1.392,1.166a1.392,1.392,0,0,1-1.528-.679,2.387,2.387,0,0,1-.171-1.74,2.673,2.673,0,0,1,1.392-1.931Z" transform="translate(-41.89 -360.185)"/><path class="q" d="M48.807,341.245a1.954,1.954,0,0,0,2.916.063,5.5,5.5,0,0,0,1.235-2.533c.6-2.088,1.207-4.28.762-6.406a3.56,3.56,0,0,0-.821-1.74,1.858,1.858,0,0,0-1.761-.588,2.732,2.732,0,0,0-1.538,1.618,15.266,15.266,0,0,0-1.51,6.552,5.35,5.35,0,0,0,.717,3.034" transform="translate(-37.999 -330.003)"/><path class="q" d="M27.814,349.3a3.946,3.946,0,0,0,.616-3.629,7,7,0,0,0-2.15-3.132,11.535,11.535,0,0,0-3.828-2.272,4.127,4.127,0,0,0-1.74-.292,1.817,1.817,0,0,0-1.451.877,2.72,2.72,0,0,0,.4,2.474,29.323,29.323,0,0,0,2.526,3.866,6.851,6.851,0,0,0,2.784,2.38c1.159.442,2.352.39,2.965-.411" transform="translate(-19.09 -336.499)"/><path class="h" d="M49.989,390.592a2.269,2.269,0,0,0,.07-.491c.035-.348.08-.807.132-1.343a19.438,19.438,0,0,1,.3-1.97,15.437,15.437,0,0,1,.717-2.328,8.605,8.605,0,0,1,1.19-2.088,4.426,4.426,0,0,1,1.5-1.27,4.042,4.042,0,0,1,1.263-.393,2.438,2.438,0,0,0,.491-.073,2.483,2.483,0,0,0-.5,0,3.762,3.762,0,0,0-1.319.348,4.377,4.377,0,0,0-1.583,1.256,8.436,8.436,0,0,0-1.218,2.144,14.2,14.2,0,0,0-.7,2.366,16.664,16.664,0,0,0-.264,1.994c-.042.571-.056,1.044-.066,1.354a2.283,2.283,0,0,0-.017.494Z" transform="translate(-39.233 -363.009)"/><path class="h" d="M50.094,364.694a1.043,1.043,0,0,0,0-.226v-.654c0-.567,0-1.392.031-2.4.049-2.025.223-4.207.56-7.28.32-2.892.748-6.264,1.2-8.442.094-.5.191-.947.285-1.336s.164-.731.233-1.006.115-.47.153-.637a.911.911,0,0,0,.042-.223.824.824,0,0,0-.08.212c-.052.164-.115.372-.191.626s-.171.609-.268,1-.209.839-.317,1.333a75,75,0,0,0-1.26,7.833,79.2,79.2,0,0,0-.484,7.92c0,1.013,0,1.837.035,2.4,0,.264.031.48.042.651a.856.856,0,0,0,.017.226Z" transform="translate(-39.244 -338.145)"/><path class="h" d="M36.728,362.384a4.44,4.44,0,0,0,0-.7,18.283,18.283,0,0,0-.209-1.851,24.524,24.524,0,0,0-.6-2.679A22.155,22.155,0,0,0,34.8,353.97a17.026,17.026,0,0,0-3.309-5.15,8.893,8.893,0,0,0-.783-.724,4.062,4.062,0,0,0-.348-.278l-.3-.209a4.3,4.3,0,0,0-.574-.369,20.254,20.254,0,0,1,1.883,1.681,17.841,17.841,0,0,1,3.226,5.133,25.215,25.215,0,0,1,1.134,3.156c.3.992.491,1.9.64,2.665s.223,1.392.271,1.834A4.075,4.075,0,0,0,36.728,362.384Z" transform="translate(-25.865 -341.242)"/><path class="r" d="M35.28,418.18l.543,7.426h9.541l.539-7.426Z" transform="translate(-29.646 -387.496)"/><rect class="g" width="12.684" height="2.926" transform="translate(4.711 27.757)"/><path class="g" d="M32.63,438.71v.811H45.1v-.811Z" transform="translate(-27.919 -400.883)"/><path class="g" d="M34.925,442.467l-.585-1.427H45.768l-.682,1.427Z" transform="translate(-29.033 -402.402)"/><path class="n" d="M46.03,423.256a.72.72,0,0,1-.045.066l-.143.191-.557.7-.024.031-.024-.031-1.364-1.889h.077l-1.343,1.924-.042.059-.049-.056c-.494-.592-1.044-1.232-1.594-1.9h.09c-.024.035-.056.07-.087.108L39.5,424.244l-.049.059-.045-.063-1.343-1.9h.077l-1.656,1.907-.028.031-.024-.038c-.216-.365-.39-.658-.518-.87l-.132-.233-.042-.08a.319.319,0,0,1,.056.073l.15.223.543.856h-.052l1.632-1.907.038-.049.038.052L39.5,424.2h-.09l1.423-1.789.087-.111.045-.056.045.056,1.59,1.9h-.09l1.361-1.893.038-.056.038.056,1.336,1.907h-.059l.581-.7.153-.181C46.005,423.273,46.026,423.253,46.03,423.256Z" transform="translate(-29.946 -390.144)"/><path class="n" d="M46.189,417.889c0,.035-2.391.059-5.341.059s-5.338-.024-5.338-.059,2.391-.059,5.338-.059S46.189,417.889,46.189,417.889Z" transform="translate(-29.796 -387.268)"/><path class="n" d="M45.835,441.159c0,.031-2.6.059-5.8.059s-5.8-.028-5.8-.059,2.6-.059,5.8-.059S45.835,441.128,45.835,441.159Z" transform="translate(-28.962 -402.441)"/></g><g transform="translate(1041.228 1029.301)"><path class="g" d="M94.46,292.379v3.327h18.422v49.573h1.695V295.705l76.934.379v49.193h1.663V295.994l11.873.094v-4Z" transform="translate(-94.46 -291.15)"/><path class="g" d="M127.042,300.62l7.262,5.23-.63.605-7.325-5.515Z" transform="translate(-115.253 -296.712)"/><path class="g" d="M382.018,302.02l-8.428,6,.633.605,8.487-6.288Z" transform="translate(-276.46 -297.625)"/><rect class="h" width="19.041" height="1.402" transform="translate(26.787)"/></g></g></g></svg>