<svg xmlns="http://www.w3.org/2000/svg" width="116.428" height="31.975" viewBox="0 0 116.428 31.975"><defs><style>.a{fill:none;stroke:#041c39;stroke-width:0.5px;stroke-dasharray:2;}.b{fill:#041c39;}</style></defs><g transform="translate(-624 -1050.964)"><path class="a" d="M398.52-1881.359c14.8-1.909,18.683,8.427,22.61,10.327a31.362,31.362,0,0,0,10.925,2.743,25.776,25.776,0,0,0,11.43-1.138c3.61-1.371,6.828-4.162,7.982-7.848,4.148-13.257-19.546-15.859-23.048-4.084-3.091,10.393,4.859,17.267,13.386,21.54a19.408,19.408,0,0,0,11.836,2.182c5.922-1.023,10.545-5.535,15.919-8.223a36.478,36.478,0,0,1,16.543-3.4,97.662,97.662,0,0,1,16.938,1.886" transform="translate(228.798 2940.1)"/><circle class="b" cx="2" cy="2" r="2" transform="translate(624 1056.66)"/><path class="b" d="M573.13-1754.722l8.589,3.521-8.589,3.779,1.89-3.65Z" transform="translate(158.709 2824.327)"/></g></svg>