<svg xmlns="http://www.w3.org/2000/svg" width="101.589" height="44.799" viewBox="0 0 101.589 44.799"><defs><style>.a{fill:none;stroke:#041c39;stroke-width:0.5px;stroke-dasharray:2;}.b{fill:#041c39;}</style></defs><g transform="translate(-355 -1035.607)"><path class="a" d="M10.474-1848.915c5.081.628,9.981-1.468,14.178-4.146,9.748-6.22,17.012-12.208,29.059-12.455,8.939-.183,19.307,2.887,22.113,12.416,2.047,6.95-.905,13.6-7.76,15.814-5.412,1.748-13.029,1.772-17.841-1.655a16.979,16.979,0,0,1-5.682-7.808c-7.018-18.033,8.858-29.575,24.872-32.99,4.415-.942,9.287-1.193,13.183,1.088,7.243,4.241,9.183,11.846,18.457,13.147" transform="translate(347.711 2916.275)"/><circle class="b" cx="2" cy="2" r="2" transform="translate(355 1065)"/><path class="b" d="M573.13-1754.722l8.589,3.521-8.589,3.779,1.89-3.65Z" transform="translate(-125.13 2801.366)"/></g></svg>