<svg xmlns="http://www.w3.org/2000/svg" xmlns:xlink="http://www.w3.org/1999/xlink" width="576.683" height="432.698" viewBox="0 0 576.683 432.698"><defs><style>.a{fill:#2e52c6;}.b,.g{fill:#92e3a9;}.c{fill:#eec1bb;}.d{fill:#2e353a;}.au,.bb,.e{fill:#253858;}.f{fill:#123559;}.ac,.ag,.g,.r{stroke:#0151cc;}.af,.at,.bb,.bf,.bi,.bm,.bp,.g,.r{stroke-linecap:round;stroke-linejoin:round;}.ac,.af,.at,.bf,.g,.r{stroke-width:0.75px;}.h{fill:#cc987d;}.ag,.i,.k,.l,.m,.w{fill:#0151cc;}.i{opacity:0.068;}.ah,.at,.j{fill:#fff;}.aa,.l,.y{opacity:0.2;}.m{opacity:0.7;}.ap,.n{fill:rgba(0,0,0,0);}.n,.o{stroke:#ccdcf5;stroke-dasharray:2;}.ad,.al,.bb,.bi,.bm,.bn,.bp,.n,.o,.u,.v,.w{stroke-width:0.5px;}.af,.al,.bf,.bi,.bm,.bn,.br,.o,.r,.u,.v{fill:none;}.p{clip-path:url(#a);}.ak,.q{opacity:0.1;}.s{fill:#fda67a;}.ad,.t{fill:#ffbe9d;}.u{stroke:#eb9164;}.au,.bb,.bp,.v,.w{stroke:#1e324c;}.x{clip-path:url(#b);}.z{clip-path:url(#c);}.ab{clip-path:url(#d);}.ac{fill:#858585;}.ac,.al{stroke-miterlimit:10;}.ad,.af,.at,.bm,.bn{stroke:#041c39;}.ae{fill:#0a1e42;}.ah{font-size:10px;font-family:OpenSans-Semibold, Open Sans;font-weight:600;}.ai{fill:#01cc9d;}.aj{clip-path:url(#e);}.al{stroke:#00b68c;}.am{fill:#01cb9c;}.an{clip-path:url(#f);}.ao{fill:#00aa83;}.ap{stroke:#00f8bf;}.aq{fill:#00f8bf;}.ar{clip-path:url(#g);}.as{fill:#f69110;}.av{fill:#79f2c1;}.aw,.bp{fill:#e0e0e0;}.ax{fill:#1e324c;}.ay{fill:#00abed;}.az{clip-path:url(#h);}.ba{opacity:0.079;}.bc{fill:#bf6700;}.bd{clip-path:url(#i);}.be{opacity:0.08;}.bf{stroke:#7f7f7f;}.bg{fill:#5c3909;}.bh{clip-path:url(#j);}.bi{stroke:#cc7300;}.bj{clip-path:url(#k);}.bk{opacity:0.072;}.bl{clip-path:url(#l);}.bo{fill:#cc7300;}.bq{stroke:none;}</style><clipPath id="a"><path class="a" d="M500.544,367.665s-2.192-37.284-6.5-73.166c-2.585-21.53-6.906-42.858-7.892-58.794-1.294-20.848,24.159-15.055,46.321-15.982s43.693-3.8,45.231,15.577,3.651,131.136,3.651,131.136S539.369,377.694,500.544,367.665Z" transform="translate(-486.105 -219.015)"/></clipPath><clipPath id="b"><path class="b" d="M487.023,221.7s-8.173-.348-13.381,14.35c0,0-6.157,3.6-18.685,30.937,0,0-2.156-2.886-6.787-10.793-4.041-6.9-10.213-15.825-15.309-28.876,0,0-4.1,5.05-12.882,4.758,0,0,19.033,64.3,32.367,64.3,14.7,0,30.882-34.176,30.882-34.176" transform="translate(-419.979 -221.699)"/></clipPath><clipPath id="c"><path class="c" d="M540.6,192.835s2.235,22.207,7.2,24.884c0,0-.79,8.487-15.261,8.487s-14.472-11.962-14.472-11.962Z" transform="translate(-518.061 -192.835)"/></clipPath><clipPath id="d"><path class="d" d="M502.638,162.062s-13.169-1.271-10.281-11.9,13.887-11.783,13.887-11.783-2.22,7.625,10.834,6.123,27.147-2.773,27.725,10.394a27.769,27.769,0,0,1-3.465,24.836c-8.549,12.245-16.4,2.329-16.4,2.329l-6.811-14.571-12.561-2.658Z" transform="translate(-491.943 -138.381)"/></clipPath><clipPath id="e"><path class="e" d="M478.108,324.968s-7.269-4.616-17.634-.866a227.569,227.569,0,0,0-26.819,3.027s1.177-3.11-3.034-2.4c0,0-1.566-32.439-6.915-43.386,0,0-.635,3.134-19.279,3.9,0,0-1.325,58.008,5.492,66.512s63.982,1.9,63.982,1.9S484.1,334.9,478.108,324.968Z" transform="translate(-404.323 -281.34)"/></clipPath><clipPath id="f"><path class="e" d="M482.725,430.853s1.693-32.89,0-58.041-14.752-34.1,0-41.6,63.367-5.563,78.6,1.935,5.563,42.08,6.288,57.314S571,430.853,571,430.853Z" transform="translate(-475.776 -326.469)"/></clipPath><clipPath id="g"><path class="c" d="M502.517,329.42s11.124,25.089,15.639,24.345,7.739-11.044,12.253-16.163,4.961-9.647,4.656-12.461l-1.271-12.81L523.637,311.2l-14.507,10.64Z" transform="translate(-502.517 -311.203)"/></clipPath><clipPath id="h"><path class="f" d="M87.063,234.085s-8.949,4.423-10.979,13.31c0,0-2.539-2.539-3.556,8.379,0,0-22.6,41.9-22.853,59.927s42.406,47.235,42.406,47.235,4.571-6.094,3.556-11.681c0,0-16.505-31.233-24.885-35.042,0,0,9.4-22.854,15.744-27.17S87.063,234.085,87.063,234.085Z" transform="translate(-49.674 -234.085)"/></clipPath><clipPath id="i"><path class="f" d="M158.857,225.013s18.752.078,25.9,5.919c0,0,.036-3.048,5.622,0,0,0,17.014-2.031,24.886,0,0,0,9.649-23.869,15.489-30.217,0,0,8.379.508,10.664,4.317,1.086,1.81-1.482,11.766-3.874,21.907-2.64,11.195-5.288,22.614-7.553,23.547-4.316,1.778-49.769,5.841-49.769,5.841l-21.361-11.179Z" transform="translate(-158.857 -200.714)"/></clipPath><clipPath id="j"><path class="g" d="M192.181,353.8s30.407.773,34.78,3.99c0,0-2.737-4.4,2.173-2.962,0,0,.338-37.327,6.941-37.834l2.2-8.5a.975.975,0,0,1,1.453-.594c1.824,1.127,5.6,3.164,9.114,3.205a.966.966,0,0,1,.947.974v7.281s3.385.846,3.216,5.755-3.263,48.944-8.853,53.711-44.86,2.4-44.86,2.4S189.642,371.914,192.181,353.8Z" transform="translate(-191.755 -307.763)"/></clipPath><clipPath id="k"><path class="g" d="M127.219,434.859S103.68,385.2,121.737,369.4s56.106-11.606,62.554-9.673,12.9,20.637,13.221,30.633,6.662,9.857-2.366,44.5Z" transform="translate(-114.922 -357.747)"/></clipPath><clipPath id="l"><path class="h" d="M162.547,337.655l-4.676,13.7s10,10.641,18.7,11.448l3.547,4.169,3.87-4.653-.968-5.965-1.563-2.52-1.339-.436,2.741-7.524-8.753-11.931h-8.5Z" transform="translate(-157.871 -333.947)"/></clipPath></defs><g transform="translate(-9570 1902.719)"><g transform="translate(9598.618 -1902.719)"><path class="i" d="M277.776,170.441l-.5-14.461,8.882-2.894a85.837,85.837,0,0,1,2.366-14.527l-7.527-5.5,5.106-13.591,9.31.759a85.451,85.451,0,0,1,7.7-12.491L298.3,99.677,308.205,89.1l8.386,4.215A92.032,92.032,0,0,1,328.521,84.7l-1.343-9.233,13.206-6,6.053,7.088a89.946,89.946,0,0,1,14.31-3.3l2.205-9.047L377.46,63.7l2.862,8.882a90.981,90.981,0,0,1,14.516,2.366l5.59-7.483,13.591,5.074-.759,9.31a88.563,88.563,0,0,1,12.491,7.776l8.008-4.82,10.62,9.905-4.259,8.356A86.075,86.075,0,0,1,448.709,115l9.233-1.387,6.13,13.151-7.132,6.053a86.175,86.175,0,0,1,3.3,14.307l9.091,2.278.5,14.461-8.914,2.9a85.124,85.124,0,0,1-2.366,14.527l7.527,5.5-5.117,13.579-9.3-.749a85.158,85.158,0,0,1-7.758,12.491l4.818,8.052-9.905,10.587-8.32-4.27a88.924,88.924,0,0,1-11.929,8.629l1.387,9.233-13.206,5.987-6.086-7.088a88.771,88.771,0,0,1-14.307,3.356l-2.205,9.052-14.507.5-2.862-8.882A88.508,88.508,0,0,1,352.25,244.9l-5.5,7.483-13.657-5.03.715-9.3a89.52,89.52,0,0,1-12.491-7.792l-8.033,4.82-10.62-9.905,4.259-8.364a85.4,85.4,0,0,1-8.607-11.919l-9.245,1.409-6.035-13.206,7.132-6.053a85.406,85.406,0,0,1-3.356-14.307Zm97.719,46.849a57.4,57.4,0,1,0-59.3-55.38,57.4,57.4,0,0,0,59.3,55.38Z" transform="translate(14.528 -63.7)"/><path class="i" d="M119.791,320.826l-.221-6.515L123.576,313a39.257,39.257,0,0,1,1.1-6.548l-3.39-2.5,2.3-6.13,4.193.341a38.521,38.521,0,0,1,3.5-5.635l-2.205-3.631,4.48-4.765,3.742,1.925a41.586,41.586,0,0,1,5.382-3.9L142.072,278l5.954-2.708,2.718,3.236a41.23,41.23,0,0,1,6.463-1.518l1.012-4.083,6.537-.221,1.287,4.006a39.848,39.848,0,0,1,6.548,1.1l2.521-3.378,6.13,2.289-.341,4.193a41.634,41.634,0,0,1,5.635,3.511l3.609-2.205,4.787,4.4-1.927,3.775a37.512,37.512,0,0,1,3.874,5.382l4.171-.628,2.718,5.954-3.214,2.73a39.4,39.4,0,0,1,1.509,6.46l4.1,1.024.221,6.526-4.017,1.309a38.9,38.9,0,0,1-1.1,6.548l3.39,2.5-2.3,6.13-4.2-.341a39.419,39.419,0,0,1-3.489,5.635l2.205,3.621-4.468,4.777-3.753-1.925a39.436,39.436,0,0,1-5.381,3.9l.628,4.161-5.954,2.7-2.74-3.192a41.5,41.5,0,0,1-6.46,1.519l-1.012,4.083-6.537.221-1.3-4.006a40.028,40.028,0,0,1-6.6-1.1l-2.436,3.39-6.141-2.205.33-4.193a41.637,41.637,0,0,1-5.635-3.511l-3.609,2.205-4.787-4.4,1.915-3.775a38.378,38.378,0,0,1-3.874-5.382l-4.161.627-2.718-5.954,3.214-2.73a38.893,38.893,0,0,1-1.519-6.46Zm44.021,21.13a26.83,26.83,0,1,1,.044,0Z" transform="translate(8.419 -1.211)"/><path class="i" d="M118.818,101.4l-3.643-3.3,1.453-2.872a29.8,29.8,0,0,1-2.971-4.178l-3.192.484-2.058-4.556,2.443-2.089a29.416,29.416,0,0,1-1.1-4.93l-3.133-.793-.154-5,3.06-1a31.036,31.036,0,0,1,.812-5.008l-2.586-1.927,1.761-4.677,3.2.253a31.09,31.09,0,0,1,2.669-4.314l-1.728-2.752,3.412-3.665,2.872,1.475a31.17,31.17,0,0,1,4.117-2.971l-.44-3.214,4.545-2.08,2.089,2.455a30.631,30.631,0,0,1,4.942-1.1l.781-3.125,5-.187,1,3.081a28.616,28.616,0,0,1,5,.812l1.9-2.6,4.689,1.741-.287,3.2a29.25,29.25,0,0,1,4.4,2.686l2.774-1.65,3.6,3.366-1.475,2.883a28.613,28.613,0,0,1,2.971,4.117l3.134-.4,2.069,4.567-2.41,2.036a29.544,29.544,0,0,1,1.161,4.942l3.147.781.154,5-3.071.99a30.152,30.152,0,0,1-.8,5.018l2.6,1.9-1.741,4.677-3.236-.2a30.976,30.976,0,0,1-2.669,4.3l1.662,2.762-3.456,3.609L159.219,98.5a31.075,31.075,0,0,1-4.117,2.961l.474,3.181-4.5,2.083-2.089-2.443a31.848,31.848,0,0,1-4.942,1.1l-.781,3.125-5,.176-1-3.071a29.56,29.56,0,0,1-5-.812l-1.915,2.586-4.689-1.75.253-3.214a29.375,29.375,0,0,1-4.3-2.669Zm26-21.054a3,3,0,1,0,0,.044Z" transform="translate(-42.125 -12.456)"/><path class="i" d="M76.723,126.995a1.233,1.233,0,0,1-1.024-.54l-3.071-4.4a28.681,28.681,0,0,1-4.4-1.694l-4.4,1.1a1.222,1.222,0,0,1-1.166-.3l-7.483-6.989a1.222,1.222,0,0,1-.385-1.1l.825-4.4a26.664,26.664,0,0,1-1.992-4.281l-4.655-2.774a1.266,1.266,0,0,1-.616-1.024L48,90.17a1.266,1.266,0,0,1,.54-1.1L52.946,86a26.269,26.269,0,0,1,1.694-4.4l-1.1-4.4a1.287,1.287,0,0,1,.292-1.169l7-7.483a1.244,1.244,0,0,1,1.1-.374l4.468.812a27.81,27.81,0,0,1,4.27-1.992l2.762-4.655a1.244,1.244,0,0,1,1.034-.606L84.7,61.381a1.266,1.266,0,0,1,1.1.54l3.071,4.4a27.986,27.986,0,0,1,4.4,1.694l4.4-1.1a1.266,1.266,0,0,1,1.1.3l7.549,7.054a1.244,1.244,0,0,1,.374,1.1l-.812,4.4a28.184,28.184,0,0,1,1.992,4.294l4.655,2.762a1.233,1.233,0,0,1,.606,1.024l.348,10.247a1.255,1.255,0,0,1-.54,1.1l-4.4,3.081a27.512,27.512,0,0,1-1.684,4.4l1.1,4.4a1.255,1.255,0,0,1-.3,1.166l-6.989,7.483a1.277,1.277,0,0,1-1.1.374l-4.4-.812a27.126,27.126,0,0,1-4.3,1.995l-2.762,4.642a1.244,1.244,0,0,1-1.034.606l-10.235.348Zm-8.386-9.255a1.276,1.276,0,0,1,.562.132,24.565,24.565,0,0,0,4.82,1.849,1.244,1.244,0,0,1,.7.5l2.939,4.259,8.882-.3,2.63-4.4a1.309,1.309,0,0,1,.7-.562,25.381,25.381,0,0,0,4.655-2.205,1.265,1.265,0,0,1,.869-.154l4.215.771,6.064-6.493-1.1-4.171a1.288,1.288,0,0,1,.1-.881,24.332,24.332,0,0,0,1.838-4.8,1.21,1.21,0,0,1,.506-.7l4.259-2.939L110.73,88.7l-4.4-2.637a1.21,1.21,0,0,1-.54-.671,24.672,24.672,0,0,0-2.205-4.623,1.3,1.3,0,0,1-.176-.9l.715-4.248-6.493-6.053-4.178,1.1a1.353,1.353,0,0,1-.881-.1,25.215,25.215,0,0,0-4.733-1.9,1.277,1.277,0,0,1-.715-.5l-2.948-4.236-8.87.33-2.652,4.4a1.161,1.161,0,0,1-.484.464l-.253.11a23.936,23.936,0,0,0-4.58,2.145,1.254,1.254,0,0,1-.869.154l-4.248-.781-6.064,6.493,1.1,4.178a1.277,1.277,0,0,1-.088.881,24.773,24.773,0,0,0-1.849,4.777,1.288,1.288,0,0,1-.506.715l-4.259,2.941.309,8.882,4.4,2.641a1.255,1.255,0,0,1,.54.671,24.685,24.685,0,0,0,2.205,4.655,1.266,1.266,0,0,1,.154.869l-.771,4.237,6.493,6.064,4.161-1.1a.946.946,0,0,1,.3.022ZM104.656,80.144ZM80.748,112.9a18.709,18.709,0,1,1,.66,0Zm0-34.942h-.572a16.226,16.226,0,1,0,1.1,32.433h0a16.224,16.224,0,1,0-.54-32.444Z" transform="translate(-48.003 -18.671)"/><rect class="j" width="398.88" height="266.781" rx="14.81" transform="translate(22.867 65.907)"/><path class="k" d="M435.36,251.144h-1.1v-9.905h1.1Zm0-17.718h-1.1V212.89h1.1Z" transform="translate(-9.169 -3.439)"/><path class="k" d="M451.41,349.89H85.138A16.915,16.915,0,0,1,68.24,333V98.813a16.9,16.9,0,0,1,16.9-16.893H451.41a16.9,16.9,0,0,1,16.9,16.893V333a16.915,16.915,0,0,1-16.9,16.893ZM85.138,83.108a15.715,15.715,0,0,0-15.709,15.7V333a15.715,15.715,0,0,0,15.709,15.7H451.41a15.715,15.715,0,0,0,15.7-15.7V98.813a15.715,15.715,0,0,0-15.7-15.7Z" transform="translate(-45.969 -16.607)"/><path class="k" d="M98.382,98.541a5.261,5.261,0,1,1-5.253-5.261,5.261,5.261,0,0,1,5.253,5.261Z" transform="translate(-43.996 -15.465)"/><path class="l" d="M131.391,101.412H105.626a3.093,3.093,0,0,1-3.081-3.071h0a3.093,3.093,0,0,1,3.081-3.081h25.764a3.093,3.093,0,0,1,3.081,3.081h0a3.093,3.093,0,0,1-3.081,3.071Z" transform="translate(-42.519 -15.265)"/><path class="l" d="M243.466,99.9H225.384a1.684,1.684,0,0,1-1.684-1.684h0a1.672,1.672,0,0,1,1.684-1.684h18.082a1.672,1.672,0,0,1,1.684,1.684h0A1.684,1.684,0,0,1,243.466,99.9Z" transform="translate(-30.339 -15.138)"/><path class="l" d="M280.335,99.9H262.253a1.694,1.694,0,0,1-1.684-1.684h0a1.684,1.684,0,0,1,1.684-1.684h18.082a1.672,1.672,0,0,1,1.684,1.684h0A1.684,1.684,0,0,1,280.335,99.9Z" transform="translate(-26.632 -15.138)"/><path class="l" d="M317.2,99.9H299.154a1.694,1.694,0,0,1-1.684-1.684h0a1.684,1.684,0,0,1,1.684-1.684H317.2a1.684,1.684,0,0,1,1.694,1.684h0A1.694,1.694,0,0,1,317.2,99.9Z" transform="translate(-22.922 -15.138)"/><path class="l" d="M354.087,99.9H335.994a1.694,1.694,0,0,1-1.684-1.684h0a1.684,1.684,0,0,1,1.684-1.684h18.093a1.684,1.684,0,0,1,1.684,1.684h0A1.694,1.694,0,0,1,354.087,99.9Z" transform="translate(-19.218 -15.138)"/><path class="m" d="M402.231,101.3h-27.36a2.971,2.971,0,0,1-2.971-2.971h0a2.971,2.971,0,0,1,2.971-2.983H402.23a2.971,2.971,0,0,1,2.971,2.983h0a2.971,2.971,0,0,1-2.97,2.971Z" transform="translate(-15.439 -15.256)"/><path class="l" d="M399.1,218.736V165.224a1.672,1.672,0,0,1,1.684-1.684h0a1.684,1.684,0,0,1,1.682,1.684v53.512a1.684,1.684,0,0,1-1.684,1.684h0a1.672,1.672,0,0,1-1.682-1.684Z" transform="translate(-12.704 -8.401)"/><circle class="l" cx="1.684" cy="1.684" r="1.684" transform="translate(386.396 223.913)"/><circle class="l" cx="1.684" cy="1.684" r="1.684" transform="translate(386.396 247.705)"/><circle class="l" cx="1.684" cy="1.684" r="1.684" transform="translate(386.396 271.499)"/></g><g transform="translate(9742.923 -1782.709)"><g transform="translate(0 94.005)"><rect class="n" width="156.676" height="22.051" transform="translate(0 0)"/></g><g transform="translate(26.693 0)"><rect class="o" width="105.611" height="22.051" transform="translate(0)"/></g><g transform="translate(11.606 46.422)"><rect class="n" width="134.625" height="22.051" transform="translate(0 0)"/></g><g transform="translate(27.853 141.589)"><rect class="o" width="103.29" height="22.051" rx="4" transform="translate(0 0)"/></g></g><g transform="translate(9816.498 -1770.252)"><path class="e" d="M502.107,383.263s1.454,14.073,1.109,18.752c-1.161,15.71-6.636,31.3-8.956,61.824h89.081s.812-55.674-2.691-80.575Z" transform="translate(-299.677 -169.762)"/><g transform="translate(187.473 70.302)"><path class="k" d="M500.544,367.665s-2.192-37.284-6.5-73.166c-2.585-21.53-6.906-42.858-7.892-58.794-1.294-20.848,24.159-15.055,46.321-15.982s43.693-3.8,45.231,15.577,3.651,131.136,3.651,131.136S539.369,377.694,500.544,367.665Z" transform="translate(-486.105 -219.015)"/><g class="p" transform="translate(0 0)"><g class="q" transform="translate(-32.424 20.772)"><path d="M488.991,250.989a72.985,72.985,0,0,1-24.627,30.647l2.079,4.758c-2.4,2.028-6.815.167-7.042-2.969l-2.5,12.847-7.986-.251c3.906,3.966,10.771,3.366,15.374.238s7.512-8.124,10.382-12.9,6.057-9.667,10.934-12.352l17.585,82.561c.946,4.443,1.956,9.029,4.623,12.7,5.532,7.625,16.233,9.009,25.648,8.924a165.477,165.477,0,0,0,41.375-5.653l-1.045-101.3,26.852,33.4L587.53,319.773a32.559,32.559,0,0,1,25.083-14.288,6.692,6.692,0,0,0-6.344-1.763l8.3-2.655-6.485-.564,3.619-5.864c-.849,1.675-3.152,2.149-4.928,1.538a11.874,11.874,0,0,1-4.442-3.375c-5.919-6.2-11.9-12.482-16.125-19.936s-6.592-16.323-4.7-24.683l-3.017,7.53-4.613-12.872a12.014,12.014,0,0,1-3.615,11.373c-1.23,1.1-2.742,2.009-3.389,3.548a3.846,3.846,0,0,0-.167,2.188c11.58,61.927-26.068,62.262-39.269,58.857-11.824-3.051-22.663-17.959-23.111-30.009a1.973,1.973,0,0,1,2.93-1.766c22.241,12.285,41.316,15.422,34.7,10.34-11.773-2.517-43.139-15.376-48.371-43.4A3.772,3.772,0,0,0,489,250.987Z" transform="translate(-448.916 -242.841)"/></g></g></g><path class="r" d="M542.1,441.31a41.62,41.62,0,0,0-2.889-5.872c-5.448-7.24-4.764-13.411-6.761-20.165-.612-2.068-4.785-7.177-4.785-7.177" transform="translate(-303.958 -172.945)"/><path class="s" d="M605.5,340.036l-6.479,7.69,1.994,13.482,9.865-10.387Z" transform="translate(-313.103 -164.223)"/><g transform="translate(274.359 178.882)"><path class="t" d="M598.508,348.738c-.271-1.31-.419-4.642-1.684-5.081-2.321-.8-6.783,3.414-8.195,5.426-.663.945-2.089,2.969-2.079,4.123,0,.591.521,1.994,1.1,2.089,1.014.161,2.168-2.191,2.953-2.854a39.847,39.847,0,0,1,4.667-2.669,40.5,40.5,0,0,1-3.866,4.9c-1.669,1.367-8.611,5.231-4.2,7.534,0,0-1.7,2.5.962,3.158s6.9-3.017,6.9-3.017a16.164,16.164,0,0,1-2.7,2.923c-1.687,1.509-4.185,1.176-3.6,2.239.917,1.649,3.181,1.8,5.6.99a9.285,9.285,0,0,0,5.774-4.614C602.329,360.268,599.285,352.467,598.508,348.738Z" transform="translate(-585.763 -343.556)"/><path class="u" d="M589.507,363.361a48.766,48.766,0,0,0,5.481-3.216,10.348,10.348,0,0,0,2.813-3.31" transform="translate(-586.242 -345.258)"/></g><g transform="translate(258.152 70.362)"><path class="k" d="M567.174,219.086s21.586,1.282,21.461,7.92c0,0,10.807,4.6,11.385,9.8s46.169,54.045,38.266,68.23c-6.9,12.383-34.754,35.411-34.754,35.411s-2.662-5.98-5.669-12.965c0,0,12.22-26.653,17.806-29.391l-29.331-37.254" transform="translate(-567.174 -219.086)"/></g><path class="v" d="M638.066,307.536c-4.808-3.383-11.621.171-11.621-2.051s8.2-2.423,7.519-4.715" transform="translate(-316.617 -159.191)"/><g transform="translate(279.923 80.162)"><path class="v" d="M596.587,253.785a38.351,38.351,0,0,0,2.279-13.071" transform="translate(-592.714 -231.657)"/><path class="v" d="M592.566,237.437c.255,5.068.511,12.268.279,17.764a1.177,1.177,0,0,0,2.245.542" transform="translate(-592.199 -231.237)"/><path class="w" d="M592.145,230.326s.078,1.085.185,2.855" transform="translate(-592.145 -230.326)"/></g><path class="r" d="M479.063,246.986s-1.285,8.975,0,15.381" transform="translate(-297.657 -152.298)"/><g transform="translate(109.09 44.307)"><path class="t" d="M430.805,230.615l-4.946-14.226s-1.538-9.741-2.819-11.662a29.294,29.294,0,0,0-4.614-4.613,34.268,34.268,0,0,0-4.083-4.742c-1.684-1.41-11.553-6.536-12.322-6.151s-1.986,2.691,4.422,6.28a16.3,16.3,0,0,0-6.345.9c-2.819,1.154-4.741,1.474-3.523,2.691s2.243,1.794,6.793.58a35.68,35.68,0,0,0,5.767.193l1.41,1.667a2.77,2.77,0,0,0-3.461,1.089c-1.277,2.051-2.756,4.614-2.115,6.088,0,0-4.934-2.564-6.28-.449s2.819,4.038,4.486,5.319,5.7,4.742,5.7,4.742,2.883,6.471,8.907,8.843c0,0,2.334,2.691,1.667,5.19Z" transform="translate(-396.202 -189.199)"/><path class="u" d="M411.549,198.408l2.115,1.73,2.371,4.1,1.6,5.383" transform="translate(-398.169 -190.381)"/><path class="u" d="M418.437,211.271s-3.366,4.036-5.749,4.614a22.521,22.521,0,0,1-3.03-1.538c-.425-.371-1.069-1.1-2.37-2.133" transform="translate(-397.623 -192.029)"/><path class="u" d="M415.209,210.743l-.309-1.089a7.132,7.132,0,0,1-3.023,0l-.769,1.089a14.317,14.317,0,0,1,4.1,0Z" transform="translate(-398.112 -191.821)"/><path class="u" d="M411.917,205.685a5.455,5.455,0,0,1,.448,2.755" transform="translate(-398.216 -191.313)"/><path class="u" d="M409.638,209.654a6.435,6.435,0,0,1,2.22,5.513" transform="translate(-397.923 -191.821)"/><path class="u" d="M414.2,204.509l1.41,1.538v1.73" transform="translate(-398.507 -191.162)"/></g><g transform="translate(129.82 72.642)"><path class="b" d="M487.023,221.7s-8.173-.348-13.381,14.35c0,0-6.157,3.6-18.685,30.937,0,0-2.156-2.886-6.787-10.793-4.041-6.9-10.213-15.825-15.309-28.876,0,0-4.1,5.05-12.882,4.758,0,0,19.033,64.3,32.367,64.3,14.7,0,30.882-34.176,30.882-34.176" transform="translate(-419.979 -221.699)"/><g class="x" transform="translate(0 0)"><g class="y" transform="translate(25.661 18.285)"><path d="M489.489,250.828a72.968,72.968,0,0,1-24.627,30.639l2.077,4.758c-2.4,2.027-6.815.167-7.042-2.969q-1.25,6.424-2.5,12.846l-7.986-.251c3.906,3.964,10.771,3.366,15.374.238s7.512-8.124,10.382-12.9,6.057-9.667,10.932-12.352l17.585,82.56c.946,4.443,1.954,9.029,4.623,12.706,5.532,7.625,16.233,9.008,25.648,8.924a165.523,165.523,0,0,0,41.375-5.653q-.52-50.65-1.045-101.3l26.852,33.4L588.026,319.6a32.558,32.558,0,0,1,25.082-14.288,6.689,6.689,0,0,0-6.359-1.758l8.3-2.655-6.485-.564,3.619-5.864c-.85,1.675-3.152,2.149-4.928,1.538a11.877,11.877,0,0,1-4.441-3.375c-5.919-6.2-11.9-12.483-16.125-19.937s-6.592-16.323-4.7-24.682l-3.017,7.53-4.614-12.872a12.014,12.014,0,0,1-3.615,11.374c-1.183,1.061-2.624,1.938-3.31,3.366-.928,1.929-.186,4.2.428,6.244,3.83,12.78,2.016,27.445-6,38.11s-22.438,16.548-35.357,13.216-22.972-16.452-21.586-29.722a149.556,149.556,0,0,0,42.977,8.854c-12.311-2.632-24.7-6.19-35.077-13.317s-18.55-18.366-19.289-30.935Z" transform="translate(-449.413 -242.675)"/></g></g></g><path class="k" d="M487.023,221.7s-8.173-.348-13.381,14.35c0,0-6.157,3.6-18.685,30.937,0,0-2.156-2.886-6.787-10.793-4.041-6.9-10.213-15.825-15.309-28.876,0,0-4.1,5.05-12.882,4.758,0,0,19.033,64.3,32.367,64.3,14.7,0,30.882-34.176,30.882-34.176" transform="translate(-290.159 -149.057)"/><g transform="translate(183.034 86.991)"><path class="w" d="M486.366,241.394q-.126-1.554-.21-3.236" transform="translate(-481.673 -238.158)"/><path class="w" d="M487.89,262c2.384-.261.3-5.154-.956-15.013" transform="translate(-481.773 -239.29)"/><path class="w" d="M481.014,243.262s1.986,11.615,4.271,16.322" transform="translate(-481.014 -238.812)"/></g><g transform="translate(215.335 47.476)"><path class="t" d="M540.6,192.835s2.235,22.207,7.2,24.884c0,0-.79,8.487-15.261,8.487s-14.472-11.962-14.472-11.962Z" transform="translate(-518.061 -192.835)"/><g class="z" transform="translate(0)"><path class="aa" d="M507.757,164.532s-2.349,13.987-1.963,16.887-.333,5.949.261,10.688,4.2,17.935,12.816,19.952c4.49,1.051,14.228-3.324,18.261-12.3.274-.608,1.891-7.505,1.891-7.505s3.992,2.7,5.276-1.667,3.44-8.356.671-10.966c-2.893-2.723-6.519,3.044-7.04,5.133s-2.567-.28-2.567-.28-1.277-9.619-4.284-12.171,2.6-7.494-.246-10.844S515.341,158.861,507.757,164.532Z" transform="translate(-516.485 -188.558)"/></g></g><g transform="translate(192.563)"><path class="d" d="M502.638,162.062s-13.169-1.271-10.281-11.9,13.887-11.783,13.887-11.783-2.22,7.625,10.834,6.123,27.147-2.773,27.725,10.394a27.769,27.769,0,0,1-3.465,24.836c-8.549,12.245-16.4,2.329-16.4,2.329l-6.811-14.571-12.561-2.658Z" transform="translate(-491.943 -138.381)"/><g class="ab" transform="translate(0)"><path class="ac" d="M525.473,157.349s15.587,1.806,23.211-.041,9.7,18.832,9.7,18.832l-1.848,12.591-20.794,3.581-9.589-8.549-3.927-11.9Z" transform="translate(-495.824 -140.792)"/></g></g><path class="t" d="M501.628,162.769s-3.039,14.079-2.653,16.979-.518,5.973.07,10.712,2.637,22.49,12.871,21.128c10.079-1.342,23.945-9.591,25.176-17.779.1-.666.7-2.6.7-2.6a4.653,4.653,0,0,0,5.8-3.1c1.589-4.41,4.187-8.458,1.02-11.014-3.306-2.669-7.66,3.2-8.306,5.3s-2.983-.225-2.983-.225-1.277-9.619-4.72-12.113,3.188-7.572-.049-10.87S510.579,156.916,501.628,162.769Z" transform="translate(-300.265 -140.809)"/><path class="ad" d="M507.429,182.8c0,2.589-4.885,7.111-4.307,9.423.317,1.268,3.6,1.885,4.285,3a2.409,2.409,0,0,1,.265,1.06" transform="translate(-300.807 -144.073)"/><path class="ae" d="M502.452,184.282c-.072,1.007-.534,1.8-1.035,1.761s-.847-.881-.776-1.889.535-1.8,1.035-1.762S502.525,183.273,502.452,184.282Z" transform="translate(-300.495 -144.021)"/><path class="ae" d="M515.485,182.367c-.075,1.054-.559,1.878-1.082,1.842s-.886-.922-.812-1.973.559-1.878,1.082-1.842S515.561,181.313,515.485,182.367Z" transform="translate(-302.154 -143.765)"/><path class="af" d="M509.861,177.088s4.35-3.514,10.13.223" transform="translate(-301.678 -143.149)"/><path class="af" d="M522.053,200.777s-9.6,8.509-13.717,1.1" transform="translate(-301.481 -146.377)"/><path class="af" d="M496.505,179.827s2.892-3.959,7.787-1.036" transform="translate(-299.965 -143.422)"/><path class="af" d="M504.584,183.979a3.883,3.883,0,1,1-7.7,0c0-2.423,1.723-3.465,3.851-3.465S504.584,181.552,504.584,183.979Z" transform="translate(-300.018 -143.779)"/><path class="af" d="M519.8,182.071a4.835,4.835,0,0,1-9.633,0c0-2.424,2.155-3.465,4.814-3.465S519.8,179.644,519.8,182.071Z" transform="translate(-301.717 -143.536)"/><path class="af" d="M505.383,182.417c0-1.053,4.178-1.6,4.178-.545" transform="translate(-301.103 -143.882)"/><line class="af" x2="20.092" y2="1.711" transform="translate(217.781 36.826)"/><g transform="translate(202.268 146.705)"><path class="r" d="M503.075,306.65s.612,1.372,1.81,3.686" transform="translate(-503.075 -306.65)"/></g><path class="w" d="M459.306,290.894s-.391-10.765,1.148-11.278,1.538,5.9,5.639,5.639" transform="translate(-295.193 -156.476)"/><line class="r" x1="2.499" transform="translate(0 48.474)"/></g><g transform="matrix(0.999, 0.035, -0.035, 0.999, 9799.971, -1731.672)"><g class="ag" transform="translate(0 0)"><rect class="bq" width="131.143" height="22.051" rx="4"/><rect class="br" x="0.5" y="0.5" width="130.143" height="21.051" rx="3.5"/></g><text class="ah" transform="translate(19.73 14.482)"><tspan x="0" y="0">{ product update }</tspan></text></g><g transform="translate(9884.753 -1661.851)"><g transform="translate(8.425 0)"><path class="t" d="M420.048,281.43,417.127,268.8l-5.745-21.534-6.055-6.488-8.008-6.057s-8.861-3.742-9.159-1.814a2.233,2.233,0,0,0,1.336,2.522s-2.522-.89-3.115.667,3.482,2.669,5.784,4.672a34.6,34.6,0,0,1,3.714,3.727s-3.215,4.005-2.795,6.183l.272.992s-6.42-3.49-7.03-.67,3.788,3.395,6.3,6.112a39.1,39.1,0,0,0,4.852,4.45s2.482,6.275,7.857,8.5l.331,13.794S413.893,285.526,420.048,281.43Z" transform="translate(-386.27 -232.353)"/><path class="u" d="M390.734,236.734a50.146,50.146,0,0,0,6.023,3.559s3.753,3.946,5.1,5.347a28.793,28.793,0,0,1,3.19,5.055" transform="translate(-386.843 -232.912)"/><path class="u" d="M398.305,247.28a43.22,43.22,0,0,0,2.965,4.389c1.187,1.393,1.06,2.212.232,3.176" transform="translate(-387.814 -234.264)"/><path class="u" d="M396.1,255.285a11.7,11.7,0,0,1,1.923,1.73,3.512,3.512,0,0,0,4.123.775c1.212-.855,4.479-3.178,4.034-4.047" transform="translate(-387.531 -235.092)"/><path class="u" d="M398.791,250.722s0,1.306-.841,1.765,1.246-.5,2.089.3" transform="translate(-387.744 -234.705)"/></g><g transform="translate(24.163 42.711)"><path class="ai" d="M478.108,324.968s-7.269-4.616-17.634-.866a227.569,227.569,0,0,0-26.819,3.027s1.177-3.11-3.034-2.4c0,0-1.566-32.439-6.915-43.386,0,0-.635,3.134-19.279,3.9,0,0-1.325,58.008,5.492,66.512s63.982,1.9,63.982,1.9S484.1,334.9,478.108,324.968Z" transform="translate(-404.323 -281.34)"/><g class="aj" transform="translate(0)"><path class="ak" d="M402.826,348.835s8.421,13.062,22.967,11.568,47.641-15.146,48.829-2.839-14.613,9.987-14.613,9.987l-38.647,5.957s-4.051,7-16.4-3.636l-12.348-10.64Z" transform="translate(-402.823 -289.989)"/></g></g><path class="al" d="M419.673,343.231s11.365-12.088,13.3-9.43-3.078,2.9-6.013,14.507" transform="translate(-382.127 -245.302)"/><g transform="translate(86.459 82.058)"><path class="am" d="M482.725,430.853s1.693-32.89,0-58.041-14.752-34.1,0-41.6,63.367-5.563,78.6,1.935,5.563,42.08,6.288,57.314S571,430.853,571,430.853Z" transform="translate(-475.776 -326.469)"/><g class="an" transform="translate(0 0)"><path class="ak" d="M523.974,382.8s-10.107-7.012-15.64,1.693,24.456,52.117,29.615,52.341,29.876,0,29.876,0l13.313-29.342s-5.784-61.687-16.748-62.816-18.384,22.5-19.992,36.315-.116,19.391-.116,19.391Z" transform="translate(-479.861 -328.796)"/></g></g><path class="ao" d="M517.042,357.3c2.925,0,5,5.963,7.776,5.919s9.8-19.32,12.867-24.734,1.675-12.085-2.927-13.313-31.59,0-31.59,0a11.436,11.436,0,0,0-.79,10.639c2.58,5.8,3.547,24.829,7.255,25.474S513.334,357.3,517.042,357.3Z" transform="translate(-392.597 -244.177)"/><path class="ap" d="M411.463,296.22a1.693,1.693,0,1,1-1.011-2.171A1.693,1.693,0,0,1,411.463,296.22Z" transform="translate(-380.654 -240.244)"/><path class="aq" d="M411.463,304.884a1.693,1.693,0,1,1-1.011-2.17,1.693,1.693,0,0,1,1.011,2.17Z" transform="translate(-380.654 -241.354)"/><g transform="translate(109.774 68.747)"><path class="t" d="M502.517,329.42s11.124,25.089,15.639,24.345,7.739-11.044,12.253-16.163,4.961-9.647,4.656-12.461l-1.271-12.81L523.637,311.2l-14.507,10.64Z" transform="translate(-502.517 -311.203)"/><g class="ar" transform="translate(0 0)"><path class="aa" d="M489.372,283.876s-1.113,14.739-.313,17.63.312,6.144,1.575,10.878,5.838,22.488,16.046,19.668c10.056-2.778,24.764-14.22,23.907-22.673l-.464-1.676a4.772,4.772,0,0,0,5.462-3.969c1-4.7,3.069-9.185-.51-11.336-3.736-2.247-7.331,4.321-7.7,6.554s-3.062.19-3.062.19-2.652-9.6-6.5-11.648,2.177-8.144-1.575-11.042S497.649,276.665,489.372,283.876Z" transform="translate(-500.755 -306.61)"/></g></g><path class="as" d="M536.523,296.855s6.127-8.6,1.935-18.758c0,0-3.387-17.089-24.184-18.863,0,0,5.32-4.031,1.935-5.644-5.129-2.437-14.14,5.8-14.14,5.8s4.226-6.39,2.169-6.5-16.525,16.178-7.92,21.98,21.371.8,21.371.8l6.26,21.176.967,2.686,9.085.645Z" transform="translate(-391.602 -234.983)"/><path class="t" d="M495.757,274.848s-5.1,14.188-5.1,17.252-1.363,6.127-1.407,11.124-.37,23.7,10.436,23.7c10.642,0,28.214-7.255,29.665-15.8V309.35a4.874,4.874,0,0,0,6.449-2.419c2.257-4.352,5.513-8.2,2.579-11.285-3.063-3.224-8.383,2.257-9.351,4.353s-3.063-.645-3.063-.645,0-10.157-3.225-13.22,4.353-7.417,1.451-11.286S505.854,270.011,495.757,274.848Z" transform="translate(-391.043 -237.377)"/><path class="ad" d="M501.682,296.41s-5.919,5.746-5.643,8.223c.154,1.36,3.482,2.455,4.031,3.714a6.809,6.809,0,0,1,0,2.1" transform="translate(-391.913 -240.56)"/><path class="ae" d="M497.069,296.556c-.377,1.141-1.3,1.857-2.059,1.611s-1.068-1.38-.689-2.522,1.3-1.857,2.059-1.611S497.447,295.412,497.069,296.556Z" transform="translate(-391.673 -240.248)"/><path class="ae" d="M513.837,296.556c-.378,1.141-1.3,1.857-2.059,1.611s-1.068-1.38-.7-2.522,1.3-1.857,2.059-1.611S514.214,295.412,513.837,296.556Z" transform="translate(-393.821 -240.248)"/><path class="af" d="M508.434,291.254s5-3.045,10.48,1.625" transform="translate(-393.502 -239.773)"/><path class="at" d="M496.715,313.978s7.8,2.74,15.458.805C512.173,314.783,500.2,322.845,496.715,313.978Z" transform="translate(-392 -242.811)"/><path class="af" d="M493.086,292.1s3.547-3.714,8.223,0" transform="translate(-391.535 -239.796)"/><g transform="translate(92.929 90.475)"><path class="t" d="M519.845,368.824l-5.043-6.081s-6.081-8.9-8.455-15.871-2.669-10.677-6.383-10.677-16.761-.889-16.316,3.559a7.293,7.293,0,0,0-.01,5.044,13.274,13.274,0,0,0,2.089,5.636c1.78,2.522,2.818,2.041,2.818,2.041s1.186,1.965,2.374,1.965c0,0,1.038,5.339,9.052,9.938l5.637,6.082,5.933,10.975,11.08-8.82Z" transform="translate(-483.193 -336.123)"/><path class="u" d="M502.237,343.134a27.363,27.363,0,0,1-4.117,1.446c-1.892.445-8.343,1.446-8.789,3.338s2.115,6.674,3.449,6.9,6.118,0,6.341-1a9.237,9.237,0,0,1,0,2.669c-.223,1.336-1.224,3.449.445,6.9" transform="translate(-483.976 -337.022)"/><path class="u" d="M483.713,345.4a4.309,4.309,0,0,1,2.57-1.78c1.669-.334,8.343-2,9.4-2.785" transform="translate(-483.263 -336.729)"/><path class="u" d="M483.725,339.873a9.954,9.954,0,0,1,2.553-.853c1.335-.223,8.182-2.167,10.488-1.918" transform="translate(-483.264 -336.246)"/><path class="u" d="M498.85,353.435s-1.609-1.277-2.473-.909-1.161,1.336-2.274,1.929" transform="translate(-484.594 -338.216)"/><path class="u" d="M496.711,352.25a10.816,10.816,0,0,0,3.808-1.928" transform="translate(-484.929 -337.943)"/></g><path class="ai" d="M568.864,335.687c-8.293-4.544-19.589,12.092-19.83,32.165s-.484,23.7-.484,23.7l-24.909-26.844s-1.693,7.013-13.543,12.576a149.1,149.1,0,0,0,15.478,30.958c10.157,15.236,20.078,28.782,26.36,28.782s17.976-14.757,22.249-34.1C583.375,361.322,586.081,345.119,568.864,335.687Z" transform="translate(-393.715 -245.496)"/><g transform="translate(159.264 148.653)"><path class="al" d="M559.477,403.8a.533.533,0,0,1,.5-.919,25.042,25.042,0,0,1,14.461,13.335" transform="translate(-559.28 -402.852)"/><path class="al" d="M569.225,420.037a30.739,30.739,0,0,0-7.249-13.79" transform="translate(-559.626 -403.288)"/></g><g transform="translate(159.261 144.559)"><path class="al" d="M579.361,404.733q.941.91,1.886,2.01" transform="translate(-561.853 -398.999)"/><path class="al" d="M559.279,398.928s7.428-3.163,15.632,3.317" transform="translate(-559.279 -398.156)"/></g><g transform="translate(156.528 101.558)"><path class="al" d="M556.7,374.925c-.232,1.239-.425,2.525-.557,3.855" transform="translate(-556.144 -352.178)"/><path class="al" d="M568.816,348.835a42.949,42.949,0,0,0-10.786,18.3" transform="translate(-556.386 -348.835)"/></g><path class="ap" d="M519.587,390.1a1.693,1.693,0,1,1-1.692-1.693,1.693,1.693,0,0,1,1.692,1.693Z" transform="translate(-394.497 -252.349)"/><path class="aq" d="M523.469,397.907a1.693,1.693,0,1,1-1.693-1.693A1.693,1.693,0,0,1,523.469,397.907Z" transform="translate(-394.995 -253.349)"/><g transform="translate(0 127.336)"><path class="au" d="M1.95,0H40.231V3.547H1.531A1.531,1.531,0,0,1,0,2.017V1.95A1.95,1.95,0,0,1,1.95,0Z" transform="translate(130.572 62.234) rotate(180)"/><path class="au" d="M396.147,442.036H467.4a3.472,3.472,0,0,0,3.336-4.443l-16.068-55.286a3.474,3.474,0,0,0-3.335-2.5H380.081a3.473,3.473,0,0,0-3.335,4.443l16.068,55.286A3.473,3.473,0,0,0,396.147,442.036Z" transform="translate(-376.607 -379.803)"/></g></g><g transform="translate(9808.26 -1556.433)"><path class="av" d="M57.256,377.635a14.192,14.192,0,0,1,8.767-1.073,7.358,7.358,0,0,1,4.345,1.944,3.125,3.125,0,0,1,.045,4.338,4.178,4.178,0,0,1-2.739.691c-2.321,0-4.908-.435-6.754.968-1.065.8-1.771,2.124-3,2.515a3,3,0,0,1-3.295-1.463,5.148,5.148,0,0,1-.368-3.753,5.764,5.764,0,0,1,3-4.165Z" transform="translate(-27.802 -341.554)"/><path class="av" d="M49.638,354.255c1.636,2.334,4.819,1.561,6.289.135a11.856,11.856,0,0,0,2.669-5.464c1.3-4.5,2.6-9.232,1.643-13.818a7.677,7.677,0,0,0-1.771-3.753,4.009,4.009,0,0,0-3.8-1.269c-1.6.428-2.6,2-3.317,3.49A32.926,32.926,0,0,0,48.1,347.708a11.538,11.538,0,0,0,1.546,6.544" transform="translate(-26.316 -330.006)"/><path class="av" d="M37.9,360.091a8.512,8.512,0,0,0,1.329-7.828,15.108,15.108,0,0,0-4.642-6.754,24.881,24.881,0,0,0-8.256-4.9,8.9,8.9,0,0,0-3.753-.63,3.918,3.918,0,0,0-3.134,1.892c-.87,1.667-.037,3.685.87,5.339a63.25,63.25,0,0,0,5.455,8.339,14.777,14.777,0,0,0,6,5.134c2.5.953,5.074.84,6.395-.885" transform="translate(-19.08 -332.492)"/><path class="k" d="M50,402.125a4.894,4.894,0,0,0,.15-1.058c.075-.751.173-1.741.285-2.9a41.926,41.926,0,0,1,.645-4.248,33.291,33.291,0,0,1,1.546-5.021,18.562,18.562,0,0,1,2.567-4.5,9.547,9.547,0,0,1,3.234-2.739,8.716,8.716,0,0,1,2.725-.848,5.256,5.256,0,0,0,1.058-.158,5.356,5.356,0,0,0-1.074,0,8.113,8.113,0,0,0-2.845.751,9.44,9.44,0,0,0-3.416,2.71,18.193,18.193,0,0,0-2.626,4.624,30.64,30.64,0,0,0-1.5,5.107,35.941,35.941,0,0,0-.57,4.3c-.091,1.231-.116,2.251-.143,2.92A4.923,4.923,0,0,0,50,402.126Z" transform="translate(-26.785 -342.634)"/><path class="k" d="M50.2,390.382a2.251,2.251,0,0,0,0-.487v-1.411c0-1.223,0-3,.067-5.178.106-4.368.48-9.074,1.208-15.7.691-6.237,1.613-13.51,2.589-18.208.2-1.074.413-2.041.615-2.882s.348-1.576.5-2.169.247-1.013.331-1.373a1.965,1.965,0,0,0,.091-.48,1.779,1.779,0,0,0-.173.457c-.116.348-.247.8-.413,1.351s-.368,1.314-.58,2.154-.45,1.809-.684,2.875a161.755,161.755,0,0,0-2.712,16.894A170.836,170.836,0,0,0,50,383.3c0,2.184,0,3.963.075,5.187,0,.57.067,1.035.091,1.4a1.846,1.846,0,0,0,.037.487Z" transform="translate(-26.79 -333.12)"/><path class="k" d="M45.115,379.9a9.576,9.576,0,0,0,0-1.5,39.43,39.43,0,0,0-.45-3.994,52.9,52.9,0,0,0-1.284-5.78,47.788,47.788,0,0,0-2.437-6.875,36.725,36.725,0,0,0-7.137-11.108,19.2,19.2,0,0,0-1.689-1.561,8.778,8.778,0,0,0-.751-.6l-.653-.45a9.273,9.273,0,0,0-1.238-.8,43.688,43.688,0,0,1,4.062,3.626,38.483,38.483,0,0,1,6.958,11.071,54.378,54.378,0,0,1,2.446,6.808c.638,2.139,1.058,4.1,1.381,5.749s.48,3,.58,3.955a8.789,8.789,0,0,0,.212,1.455Z" transform="translate(-21.672 -334.306)"/><path class="e" d="M35.28,418.18,36.451,434.2h20.58l1.161-16.016Z" transform="translate(-23.118 -352.002)"/><rect class="ae" width="27.357" height="6.312" transform="translate(10.173 59.865)"/><path class="ae" d="M32.63,438.71v1.749H59.536V438.71Z" transform="translate(-22.457 -357.124)"/><path class="ae" d="M35.6,444.118l-1.26-3.078H58.988l-1.472,3.078Z" transform="translate(-22.883 -357.706)"/><path class="aw" d="M57.934,424.43a1.554,1.554,0,0,1-.1.143l-.308.413-1.2,1.5-.052.067-.052-.067-2.942-4.076h.169l-2.9,4.15-.091.128-.106-.116c-1.065-1.277-2.251-2.656-3.438-4.091h.195a2.708,2.708,0,0,1-.188.232l-3.07,3.851-.106.128-.1-.135-2.9-4.1h.168l-3.572,4.113-.06.067-.052-.082c-.464-.788-.84-1.418-1.119-1.877l-.285-.5L35.737,424a.687.687,0,0,1,.116.158l.323.48,1.171,1.846h-.116l3.52-4.113.082-.106.082.116,2.927,4.083h-.195l3.07-3.858.188-.24.1-.116.1.116,3.429,4.1h-.195l2.935-4.083.082-.116.082.116,2.882,4.113h-.128l1.253-1.5.331-.39C57.882,424.468,57.927,424.423,57.934,424.43Z" transform="translate(-23.234 -353.014)"/><path class="ax" d="M58.544,417.958c0,.075-5.156.128-11.521.128s-11.513-.052-11.513-.128,5.156-.128,11.513-.128S58.544,417.958,58.544,417.958Z" transform="translate(-23.175 -351.916)"/><path class="k" d="M59.263,441.228c0,.067-5.607.128-12.512.128s-12.519-.06-12.519-.128,5.607-.128,12.519-.128S59.263,441.16,59.263,441.228Z" transform="translate(-22.856 -357.72)"/></g><g transform="matrix(0.985, 0.174, -0.174, 0.985, 9754.492, -1688.819)"><rect class="ai" width="153.194" height="22.051" rx="4" transform="translate(0 0)"/><text class="ah" transform="translate(19.73 14.482)"><tspan x="0" y="0">{ delivery notification }</tspan></text></g><g transform="translate(9753.888 -1771.549) rotate(-8)"><rect class="ay" width="104.45" height="22.051" rx="4"/><text class="ah" transform="translate(19.73 14.482)"><tspan x="0" y="0">{ new order }</tspan></text></g><g transform="translate(9570 -1791.875)"><g transform="translate(0 83.053)"><path class="ay" d="M87.063,234.085s-8.949,4.423-10.979,13.31c0,0-2.539-2.539-3.556,8.379,0,0-22.6,41.9-22.853,59.927s42.406,47.235,42.406,47.235,4.571-6.094,3.556-11.681c0,0-16.505-31.233-24.885-35.042,0,0,9.4-22.854,15.744-27.17S87.063,234.085,87.063,234.085Z" transform="translate(-49.674 -234.085)"/><g class="az"><path class="ba" d="M88.242,302.7S78.3,274.126,74.8,280.448s-12.528,38.737-7.368,43.49-3.225,5.017.644,11.333,29.021,29.956,31.6,29.261-9.338-40.594-9.338-40.594Z" transform="translate(-51.75 -239.909)"/></g></g><g transform="translate(40.045 216.22)"><path class="bb" d="M169.828,388.6s10.664,33.443,12.7,49.986H95.681s-.764-39.244,2.539-51.761Z" transform="translate(-95.604 -386.825)"/><path class="r" d="M138.849,436.043c1.951,1.778,5.756,8.85,5.756,8.85" transform="translate(-101.146 -393.134)"/><path class="r" d="M117.827,410.122a148.875,148.875,0,0,0,14.76,19.08" transform="translate(-98.453 -389.811)"/></g><path class="bc" d="M137.731,155.709s6.6-5.925,5.079-9.65c-1.988-4.859-7.11,2.371-7.11,2.371s2.031-7.448-2.311-9.31c-4.642-1.993-8.523,6.771-8.523,6.771s-1.2-7.52-7.787-5.925c-5.587,1.354-1.015,7.618-5.587,9.65s-19.637,7.279-16.758,17.436c0,0-4.062-7.961-5.587-4.742s3.724,7.62,5.756,8.124c0,0-3.216,6.772-.678,8.633s2.031-4.909,2.031-4.909a38.663,38.663,0,0,0,19.638,28.44c17.982,9.78,17.5-22.684,17.5-22.684l4.511-14.558Z" transform="translate(-54.697 -138.825)"/><path class="t" d="M140.7,214.772v-5.756s9.836,1.524,11.182-1.016-.855-13.035-.855-13.035,4.74.171,4.74-2.031-5.586-11.512-5.586-11.512.677-7.448,0-9.818-7.618-15.744-7.618-15.744-10.157,5.581-9.818,8.631,3.217,5.927.846,8.472-5.586,9.391-4.57,12.65l-1.524,1.06s-.846-6.094-4.231-7.11-6.094,5.756-3.724,10.5,5.079,3.893,5.079,3.893-1.354,8.124-4.909,10.835l-1.065,8.464Z" transform="translate(-58.512 -141.008)"/><ellipse class="ae" cx="1.1" cy="2.031" rx="1.1" ry="2.031" transform="translate(87.606 36.522)"/><path class="af" d="M142.777,198.966s.795,2.205,7.169,2.539" transform="translate(-61.605 -146.532)"/><path class="af" d="M150.734,176.451a4.308,4.308,0,0,0-4.656,3.038" transform="translate(-62.028 -143.644)"/><path class="ay" d="M110.491,230.848s-6.772-9.184,0-10.2,34.534-3.387,38.936,0-6.771,2.37-7.448,8.124S110.491,230.848,110.491,230.848Z" transform="translate(-57.081 -149.086)"/><g transform="translate(66.759 34.312)"><path class="af" d="M158.232,184.092c0,3.265-.952,5.911-2.126,5.911s-2.126-2.647-2.126-5.911.952-5.912,2.126-5.912S158.232,180.827,158.232,184.092Z" transform="translate(-129.799 -178.18)"/><path class="af" d="M154.208,180.714l-23.4,1.708a8.385,8.385,0,0,0-4.561,1.763" transform="translate(-126.245 -178.504)"/></g><g transform="translate(95.191 23.484)"><path class="t" d="M239.3,201.272l5.527-12.309s3.223-13.346,5.781-16.258,6.7-8.148,8.024-6.7c.955,1.044-.232,4.619-2.34,7.372-2.285,2.983-.429,5.776.41,6.956s5.81,3.642,9.7,4.148,11.646-4.41,14.309-2.683-2.774,3.628-2.774,3.628,4.193-.561,5.075,1.8c.52,1.393-3.789,1.365-5.886,1.578s-6.374.833-6.374.833,7.66.977,7.562,3.068-5.74.13-10.033.3c0,0,6.151,1.585,5.81,3.6s-3.587-.107-8.755-1L253.421,194.1,249.661,208Z" transform="translate(-169.166 -165.76)"/><path class="u" d="M278.187,189.136a11.659,11.659,0,0,1-8.951,1.143s.506,1.65,0,2.349-.443,2.095-1.714,2.984a18.106,18.106,0,0,1-2.031,1.271" transform="translate(-172.522 -168.755)"/><g transform="translate(0 30.475)"><path class="ay" d="M158.857,225.013s18.752.078,25.9,5.919c0,0,.036-3.048,5.622,0,0,0,17.014-2.031,24.886,0,0,0,9.649-23.869,15.489-30.217,0,0,8.379.508,10.664,4.317,1.086,1.81-1.482,11.766-3.874,21.907-2.64,11.195-5.288,22.614-7.553,23.547-4.316,1.778-49.769,5.841-49.769,5.841l-21.361-11.179Z" transform="translate(-158.857 -200.714)"/><g class="bd" transform="translate(0 0)"><path class="be" d="M188.368,259.085s-4.242-15.178,2.573-13.758,33.9,4.2,38.9-.094,8.19-40.674,14.656-38.927,1.982,33.573,1.982,33.573,4.045,8.8-8.633,15.574l-12.678,6.772-22.4,1.937Z" transform="translate(-162.472 -201.423)"/></g></g></g><g transform="translate(107.932 195.48)"><path class="bf" d="M173.47,366.492a14.2,14.2,0,0,0,2.019-3.455" transform="translate(-173.47 -363.037)"/></g><path class="ay" d="M95.043,368.635S94.535,350.353,92,321.912s-16.76-85.318,3.048-90.4,59.323-8.269,72.623,4.571c14.729,14.22,3.556,93.445,3.048,107.157a176.715,176.715,0,0,0,2.031,29.455S120.181,384.128,95.043,368.635Z" transform="translate(-54.16 -150.133)"/></g><g transform="translate(9587.781 -1631.108)"><g transform="translate(0 0)"><path class="bg" d="M157.337,284.645s-20.153,5.812-19.348,20.807,4.676,14.133-3.869,19.077-.483,14.295-2.9,18.488-17.734,15.8-11.125,21.765,39.822-5.965,51.43,0,20.774-6.692,23.853-9.969-5.957-7.925-5.635-14.536,6.127-43.128-1.289-48S163.743,281.976,157.337,284.645Z" transform="translate(-94.979 -269.763)"/><g transform="translate(87.382)"><g transform="translate(46.688)"><path class="t" d="M245.306,306.753l3.7-13.421s1.452-9.19,2.661-11a27.623,27.623,0,0,1,4.352-4.353,32.361,32.361,0,0,1,3.853-4.474c1.589-1.33,10.9-6.166,11.625-5.8s1.873,2.539-4.172,5.925a15.383,15.383,0,0,1,5.985.846c2.66,1.089,4.474,1.393,3.325,2.539s-2.116,1.692-6.409.544a33.632,33.632,0,0,1-5.441.181l-1.33,1.571a2.614,2.614,0,0,1,3.265,1.027c1.208,1.936,2.6,4.353,1.995,5.744,0,0,4.655-2.419,5.925-.422s-2.661,3.809-4.233,5.018-5.382,4.474-5.382,4.474-2.721,6.107-8.4,8.343a8.046,8.046,0,0,0-.6,4.9Z" transform="translate(-245.306 -267.679)"/><path class="u" d="M266.317,276.368,264.322,278l-2.236,3.869-1.509,5.079" transform="translate(-247.262 -268.793)"/><path class="u" d="M259.118,288.5s3.171,3.809,5.424,4.353A21.2,21.2,0,0,0,267.4,291.4c.4-.348,1.009-1.033,2.236-2.012" transform="translate(-247.076 -270.349)"/><path class="u" d="M263.14,288.005l.291-1.028a6.715,6.715,0,0,0,2.853,0l.725,1.028a13.473,13.473,0,0,0-3.869,0Z" transform="translate(-247.592 -270.153)"/><path class="u" d="M266.752,283.233a5.144,5.144,0,0,0-.422,2.6" transform="translate(-247.998 -269.673)"/><path class="u" d="M268.651,286.977a6.074,6.074,0,0,0-2.089,5.2" transform="translate(-248.024 -270.153)"/><path class="u" d="M264.47,282.123l-1.33,1.451v1.633" transform="translate(-247.592 -269.531)"/></g><g transform="translate(0 34.948)"><path class="as" d="M192.181,353.8s30.407.773,34.78,3.99c0,0-2.737-4.4,2.173-2.962,0,0,.338-37.327,6.941-37.834l2.2-8.5a.975.975,0,0,1,1.453-.594c1.824,1.127,5.6,3.164,9.114,3.205a.966.966,0,0,1,.947.974v7.281s3.385.846,3.216,5.755-3.263,48.944-8.853,53.711-44.86,2.4-44.86,2.4S189.642,371.914,192.181,353.8Z" transform="translate(-191.755 -307.763)"/><g class="bh" transform="translate(0 0)"><path class="ak" d="M201.994,367.3s9.338,14.766,24.09,13.37,10.418-6.963,12.706-9.135,9.584,1.055,13.312-26.437,11.49,19.324,11.49,19.324l-2.242,22.832-13.927,10.157-13.083,2.553-30.639,2.5-9.258-26.1Z" transform="translate(-192.101 -311.439)"/></g></g><path class="bi" d="M236.125,369.889s2.205,1.692,3.555,6.941" transform="translate(-197.441 -280.778)"/><path class="bi" d="M238.163,365.229a20.518,20.518,0,0,1,7.2,5.755" transform="translate(-197.703 -280.18)"/><path class="bi" d="M245.306,319.711a20.012,20.012,0,0,0,8.633,2.708" transform="translate(-198.618 -274.347)"/></g><g transform="translate(20.395 78.525)"><path class="as" d="M127.219,434.859S103.68,385.2,121.737,369.4s56.106-11.606,62.554-9.673,12.9,20.637,13.221,30.633,6.662,9.857-2.366,44.5Z" transform="translate(-114.922 -357.747)"/><g class="bj" transform="translate(0 0)"><path class="bk" d="M134.575,402.378s12.186-13.335,12.984-8.944-14.194,29.785,1.285,36.558,26.448-.725,35.11,0,12.444,5.958,21.314,6.485,6.963,13.1,6.963,13.1l-24.7,5.321H136.268L117.7,450.3l-5.129-9.052v-20.31Z" transform="translate(-114.619 -362.207)"/></g></g><g transform="translate(55.909 102.191)"><path class="t" d="M155.655,406.256,170,401.56s5.965-9.492,9.028-11.911,4.99-3.222,8.062-1.773l5.159-.722s2.182-2.768,4.676-2.181,11.606,3.385,10.64,5.32-8.7-1.612-9.835-.644c0,0,2.539,4.554,2.539,7.336S201,404,199.428,404s-2.9-1.757-2.785-4.023c0,0-.484,4.99-2.055,4.748a2.977,2.977,0,0,1-2.417-3.628s-3.628,11.245-12.818,11.125l-16.681,6.77S159.283,418.185,155.655,406.256Z" transform="translate(-155.655 -384.892)"/><path class="u" d="M186.583,401.682s2.176-4.353,1.571-6.409l3.144-1.209s1.33,1.814,2.3,1.33l-.484,2.479s-2.419,2.961-1.089,4.654,3.265-2.175,4.353-3.265,1.33-5.884.484-7.416-3.966-1.371-4.885-2.378" transform="translate(-159.619 -385.479)"/><path class="u" d="M198,388.3s2.74-.323,3.547,1.007A13.151,13.151,0,0,1,203,395.4a40.266,40.266,0,0,1-.725,4.031" transform="translate(-161.081 -385.326)"/><path class="u" d="M200.88,388.571s1.557-.681,2.65,1.537" transform="translate(-161.45 -385.351)"/><path class="u" d="M177.106,411.429s.645,1.612,3.547,3.224" transform="translate(-158.404 -388.293)"/></g><g transform="translate(57.84 57.775)"><path class="t" d="M162.547,337.655l-4.676,13.7s10,10.641,18.7,11.448l3.547,4.169,3.87-4.653-.968-5.965-1.563-2.52-1.339-.436,2.741-7.524-8.753-11.931h-8.5Z" transform="translate(-157.871 -333.947)"/><g class="bl" transform="translate(0 0)"><path class="h" d="M183.855,345.878,175.1,333.947h-8.5l-1,1.207c.588,2.721,1.829,7.354,3.9,10.078,2.205,2.9,8.415,6.219,11.722,7.852Z" transform="translate(-158.861 -333.947)"/></g></g><path class="t" d="M165.632,326.173s1.613,9.942,5.965,13.167,19.992,9.168,22.893,6.358,5.8-11.838,6.449-16.515-.967-12.374-.645-17.07.645-12.6-5.8-15.014-29.991,9.252-29.991,9.252l-1.447,8.966Z" transform="translate(-100.694 -271.408)"/><path class="bm" d="M200.515,320.665s.066-.357.269-.136c.655.983,2.364,3.352,3.4,4.779a1.38,1.38,0,0,1-.327,1.938,13.034,13.034,0,0,0-3.5,3.2c-.126.275-.136.067-.136.067" transform="translate(-105.457 -274.444)"/><path class="bn" d="M199.2,335.962a6.42,6.42,0,0,1-8.74-.973" transform="translate(-104.206 -276.306)"/><path class="bn" d="M186.537,315.708s1.915-4.231,8.655-2.055" transform="translate(-103.704 -273.491)"/><path class="bn" d="M201.175,312.926a2.377,2.377,0,0,1,3.366,0" transform="translate(-105.58 -273.387)"/><path class="ae" d="M194.128,317.687c.268,1,.084,1.921-.413,2.054s-1.116-.571-1.386-1.571-.082-1.921.414-2.053S193.86,316.687,194.128,317.687Z" transform="translate(-104.43 -273.885)"/><path class="ae" d="M204.675,316.532c.195.912-.016,1.729-.464,1.826s-.977-.565-1.171-1.477.016-1.729.464-1.826S204.481,315.618,204.675,316.532Z" transform="translate(-105.808 -273.749)"/><path class="bg" d="M186.558,283.6s8.213-4.7,20.558,6.217c11.152,9.865-2.485,4.211-2.485,4.211s5.669,10.59-.374,12.766c-6.127,2.205-2.741-4.223-16.284-7.286,0,0,6.044,4.9,1.9,7.758-5.315,3.666-8.831-2.6-13.023-1.149,0,0-2.255,12.418-6.771,14.507,0,0-4.394,16.644-10.178,15.577s1.31-3.324-1.914-13.481-10.157-19.749-4.837-30.755S177.565,279.783,186.558,283.6Z" transform="translate(-99.176 -269.468)"/><g transform="translate(0 87.428)"><path class="as" d="M127.445,367.958c-4.554.072-8.675,1.757-10.64,4.688-7.186,10.722-16.122,30.633-21.926,43.853s-2.9,21.282,0,22.25,13.22,4.191,33.213-5.482,18.057-11.606,18.057-11.606l11.466-5.292a.649.649,0,0,0,.1-1.119c-1.821-1.309-5.5-5-5.752-13.6a.651.651,0,0,0-.89-.6l-10.733,4.322s-1.613-1.777-10.964,1.77c0,0,9.351-6.772,13.543-11.931,1.973-2.43,2.589-7,1.914-11.637" transform="translate(-91.528 -367.958)"/><path class="bi" d="M112.569,419.57c3.093-2.56,16.122-3.869,16.284-5.8s-10.964,2.74-10.8,0" transform="translate(-94.225 -373.765)"/><path class="bi" d="M142.526,391.087s3.232,5.147,3.224,8.062,3.869-4.676,3.869-8.062" transform="translate(-98.064 -370.922)"/><path class="bi" d="M148.257,413.278s-.323,3.869,3.225,10.319" transform="translate(-98.797 -373.766)"/></g><path class="bo" d="M146.03,358.577s3.313-9.807,7.183-8.364,22.733,9.62,25.393,18.832c0,0-3.869-5.1-7.255,0S164.724,369.6,146.03,358.577Z" transform="translate(-98.513 -278.237)"/><path class="bo" d="M184.732,356.719a20.023,20.023,0,0,1-1.339,13.138s2.9-3.727,6.288-1.186,0-8.066-1.571-10.07a16.632,16.632,0,0,0-3.017-2.12.232.232,0,0,0-.36.239Z" transform="translate(-103.3 -279.053)"/><g transform="translate(66.463 95.373)"><path class="bp" d="M1.531,0h38.7V3.547H1.95A1.95,1.95,0,0,1,0,1.6V1.531A1.531,1.531,0,0,1,1.531,0Z" transform="translate(0 58.686)"/><path class="bp" d="M294.767,442.036H212.881a3.472,3.472,0,0,1-3.335-4.443l16.068-55.286a3.473,3.473,0,0,1,3.335-2.5h81.883a3.473,3.473,0,0,1,3.335,4.443L298.1,439.531a3.474,3.474,0,0,1-3.332,2.5Z" transform="translate(-173.095 -379.803)"/></g><path class="bg" d="M160.658,334.814s-6.58,10.279-2.711,19.54.484,14.058-4.031,10.588-6.615-7.283-26.925-4.062l13.544-13.222,9.189-12.318,8.606-4.05Z" transform="translate(-96.074 -275.831)"/></g></g><g transform="translate(9741.086 -1633.12) rotate(-4.992)"><rect class="as" width="102.129" height="22.051" rx="4" transform="translate(0)"/><text class="ah" transform="translate(19.73 14.482)"><tspan x="0" y="0">{ like event }</tspan></text></g></g></svg>