<svg xmlns="http://www.w3.org/2000/svg" width="496.901" height="372.836" viewBox="0 0 496.901 372.836">
  <defs>
    <style>
      .main-svg-a {
        fill: #0151cc;
      }

      .main-svg-b, .main-svg-h {
        fill: #92e3a9;
      }

      .main-svg-c {
        fill: #eec1bb;
      }

      .main-svg-d {
        fill: #2e353a;
      }

      .main-svg-ax, .main-svg-bg, .main-svg-e {
        fill: #253858;
      }

      .main-svg-f {
        fill: #e1f6ff;
      }

      .main-svg-af, .main-svg-f, .main-svg-h, .main-svg-j, .main-svg-t {
        stroke: #263238;
      }

      .main-svg-ai, .main-svg-aw, .main-svg-bg, .main-svg-bk, .main-svg-bn, .main-svg-br, .main-svg-bu, .main-svg-f, .main-svg-h, .main-svg-j, .main-svg-t {
        stroke-linecap: round;
        stroke-linejoin: round;
      }

      .main-svg-af, .main-svg-ai, .main-svg-aw, .main-svg-bk, .main-svg-f, .main-svg-h, .main-svg-j, .main-svg-t {
        stroke-width: 0.75px;
      }

      .main-svg-g {
        fill: #123559;
      }

      .main-svg-i {
        fill: #cc987d;
      }

      .main-svg-j {
        fill: #fdeae0;
      }

      .main-svg-aj, .main-svg-k, .main-svg-m, .main-svg-n, .main-svg-o, .main-svg-z {
        fill: #0151cc;
      }

      .main-svg-k {
        opacity: 0.068;
      }

      .main-svg-ak, .main-svg-aw, .main-svg-l {
        fill: #fff;
      }

      .main-svg-ab, .main-svg-ad, .main-svg-n {
        opacity: 0.2;
      }

      .main-svg-o {
        opacity: 0.7;
      }

      .main-svg-as, .main-svg-p {
        fill: rgba(0, 0, 0, 0);
      }

      .main-svg-p, .main-svg-q {
        stroke: #ccdcf5;
        stroke-dasharray: 2;
      }

      .main-svg-ag, .main-svg-ao, .main-svg-bg, .main-svg-bn, .main-svg-br, .main-svg-bs, .main-svg-bu, .main-svg-p, .main-svg-q, .main-svg-w, .main-svg-y, .main-svg-z {
        stroke-width: 0.5px;
      }

      .main-svg-ai, .main-svg-ao, .main-svg-bk, .main-svg-bn, .main-svg-br, .main-svg-bs, .main-svg-bx, .main-svg-q, .main-svg-t, .main-svg-w, .main-svg-y {
        fill: none;
      }

      .main-svg-r {
        clip-path: url(#a);
      }

      .main-svg-an, .main-svg-s {
        opacity: 0.1;
      }

      .main-svg-u {
        fill: #fda67a;
      }

      .main-svg-ag, .main-svg-v {
        fill: #ffbe9d;
      }

      .main-svg-w {
        stroke: #eb9164;
      }

      .main-svg-x {
        clip-path: url(#b);
      }

      .main-svg-ax, .main-svg-bg, .main-svg-bu, .main-svg-y, .main-svg-z {
        stroke: #1e324c;
      }

      .main-svg-aa {
        clip-path: url(#c);
      }

      .main-svg-ac {
        clip-path: url(#d);
      }

      .main-svg-ae {
        clip-path: url(#e);
      }

      .main-svg-af {
        fill: #858585;
      }

      .main-svg-af, .main-svg-ao {
        stroke-miterlimit: 10;
      }

      .main-svg-ag, .main-svg-ai, .main-svg-aw, .main-svg-br, .main-svg-bs {
        stroke: #041c39;
      }

      .main-svg-ah {
        fill: #0a1e42;
      }

      .main-svg-aj {
        stroke: #0151cc;
      }

      .main-svg-ak {
        font-size: 9px;
        font-family: OpenSans-SemiBold, Open Sans;
        font-weight: 600;
      }

      .main-svg-al {
        fill: #01cc9d;
      }

      .main-svg-am {
        clip-path: url(#f);
      }

      .main-svg-ao {
        stroke: #00b68c;
      }

      .main-svg-ap {
        fill: #01cb9c;
      }

      .main-svg-aq {
        clip-path: url(#g);
      }

      .main-svg-ar {
        fill: #00aa83;
      }

      .main-svg-as {
        stroke: #00f8bf;
      }

      .main-svg-at {
        fill: #00f8bf;
      }

      .main-svg-au {
        clip-path: url(#h);
      }

      .main-svg-av {
        fill: #f69110;
      }

      .main-svg-ay {
        clip-path: url(#i);
      }

      .main-svg-az {
        fill: #79f2c1;
      }

      .main-svg-ba {
        fill: #263238;
      }

      .main-svg-bb, .main-svg-bu {
        fill: #e0e0e0;
      }

      .main-svg-bc {
        fill: #1e324c;
      }

      .main-svg-bd {
        fill: #00abed;
      }

      .main-svg-be {
        clip-path: url(#j);
      }

      .main-svg-bf {
        opacity: 0.079;
      }

      .main-svg-bh {
        fill: #bf6700;
      }

      .main-svg-bi {
        clip-path: url(#k);
      }

      .main-svg-bj {
        opacity: 0.08;
      }

      .main-svg-bk {
        stroke: #7f7f7f;
      }

      .main-svg-bl {
        fill: #5c3909;
      }

      .main-svg-bm {
        clip-path: url(#l);
      }

      .main-svg-bn {
        stroke: #cc7300;
      }

      .main-svg-bo {
        clip-path: url(#m);
      }

      .main-svg-bp {
        opacity: 0.072;
      }

      .main-svg-bq {
        clip-path: url(#n);
      }

      .main-svg-bt {
        fill: #cc7300;
      }

      .main-svg-bv {
        clip-path: url(#o);
      }

      .main-svg-bw {
        stroke: none;
      }
    </style>
    <clipPath id="a">
      <path class="main-svg-a"
            d="M498.546,347.1s-1.889-32.126-5.6-63.044c-2.227-18.551-5.951-36.929-6.8-50.66-1.115-17.964,20.817-12.972,39.913-13.771s37.648-3.276,38.973,13.422,3.146,112.994,3.146,112.994S532,355.741,498.546,347.1Z"
            transform="translate(-486.102 -219.014)"/>
    </clipPath>
    <clipPath id="b">
      <path class="main-svg-a"
            d="M567.174,219.086s18.6,1.105,18.492,6.824c0,0,9.312,3.966,9.81,8.445s39.782,46.568,32.972,58.791c-5.946,10.67-29.946,30.512-29.946,30.512s-2.294-5.153-4.885-11.171c0,0,10.529-22.966,15.343-25.325l-25.273-32.1"
            transform="translate(-567.174 -219.086)"/>
    </clipPath>
    <clipPath id="c">
      <path class="main-svg-b"
            d="M477.748,221.7s-7.042-.3-11.53,12.365c0,0-5.305,3.1-16.1,26.657,0,0-1.858-2.487-5.848-9.3-3.482-5.948-8.8-13.636-13.191-24.881,0,0-3.534,4.351-11.1,4.1,0,0,16.4,55.407,27.889,55.407,12.663,0,26.61-29.448,26.61-29.448"
            transform="translate(-419.978 -221.697)"/>
    </clipPath>
    <clipPath id="d">
      <path class="main-svg-c"
            d="M537.481,192.835s1.926,19.135,6.2,21.441c0,0-.681,7.313-13.15,7.313s-12.47-10.307-12.47-10.307Z"
            transform="translate(-518.057 -192.835)"/>
    </clipPath>
    <clipPath id="e">
      <path class="main-svg-d"
            d="M501.158,158.786s-11.347-1.095-8.859-10.252,11.966-10.153,11.966-10.153-1.913,6.57,9.335,5.276,23.391-2.389,23.889,8.956a23.927,23.927,0,0,1-2.986,21.4c-7.366,10.551-14.134,2.007-14.134,2.007L514.5,163.465l-10.823-2.29Z"
            transform="translate(-491.942 -138.381)"/>
    </clipPath>
    <clipPath id="f">
      <path class="main-svg-e"
            d="M467.9,318.932s-6.263-3.977-15.194-.746a196.094,196.094,0,0,0-23.109,2.608s1.014-2.68-2.614-2.07c0,0-1.349-27.951-5.958-37.384,0,0-.547,2.7-16.612,3.363,0,0-1.142,49.983,4.732,57.31s55.13,1.64,55.13,1.64S473.062,327.491,467.9,318.932Z"
            transform="translate(-404.325 -281.34)"/>
    </clipPath>
    <clipPath id="g">
      <path class="main-svg-e"
            d="M481.764,416.412s1.459-28.34,0-50.011-12.711-29.381,0-35.841,54.6-4.793,67.723,1.667,4.793,36.258,5.418,49.385,2.917,34.8,2.917,34.8Z"
            transform="translate(-475.777 -326.469)"/>
    </clipPath>
    <clipPath id="h">
      <path class="main-svg-c"
            d="M502.517,326.9s9.585,21.618,13.475,20.977,6.668-9.516,10.558-13.927,4.275-8.312,4.012-10.737l-1.095-11.038-8.752-.972-12.5,9.168Z"
            transform="translate(-502.517 -311.204)"/>
    </clipPath>
    <clipPath id="i">
      <rect class="main-svg-f" width="94.929" height="13.631" rx="4.417"/>
    </clipPath>
    <clipPath id="j">
      <path class="main-svg-g"
            d="M81.89,234.085s-7.711,3.811-9.46,11.469c0,0-2.188-2.188-3.064,7.22,0,0-19.473,36.1-19.691,51.636s36.539,40.7,36.539,40.7,3.939-5.251,3.064-10.065c0,0-14.222-26.912-21.442-30.194,0,0,8.1-19.692,13.566-23.411S81.89,234.085,81.89,234.085Z"
            transform="translate(-49.674 -234.085)"/>
    </clipPath>
    <clipPath id="k">
      <path class="main-svg-g"
            d="M158.857,221.651s16.158.067,22.314,5.1c0,0,.031-2.626,4.844,0,0,0,14.66-1.75,21.443,0,0,0,8.314-20.567,13.346-26.037,0,0,7.22.438,9.189,3.72.936,1.56-1.277,10.138-3.338,18.876-2.275,9.646-4.556,19.485-6.508,20.289-3.719,1.532-42.884,5.033-42.884,5.033L158.857,239Z"
            transform="translate(-158.857 -200.713)"/>
    </clipPath>
    <clipPath id="l">
      <path class="main-svg-h"
            d="M192.122,347.432s26.2.666,29.968,3.438c0,0-2.358-3.792,1.872-2.552,0,0,.291-32.163,5.981-32.6l1.893-7.32a.84.84,0,0,1,1.252-.512c1.572.971,4.827,2.726,7.853,2.762a.832.832,0,0,1,.816.839v6.274s2.917.729,2.771,4.959S241.716,364.893,236.9,369s-38.654,2.064-38.654,2.064S189.934,363.039,192.122,347.432Z"
            transform="translate(-191.755 -307.76)"/>
    </clipPath>
    <clipPath id="m">
      <path class="main-svg-h"
            d="M125.518,424.191s-20.283-42.787-4.724-56.4,48.344-10,53.9-8.335,11.114,17.782,11.392,26.395,5.74,8.493-2.039,38.341Z"
            transform="translate(-114.923 -357.745)"/>
    </clipPath>
    <clipPath id="n">
      <path class="main-svg-i"
            d="M161.9,337.142l-4.029,11.808s8.613,9.169,16.115,9.864l3.056,3.592,3.335-4.009-.834-5.14-1.347-2.171-1.154-.376,2.362-6.483-7.542-10.28h-7.323Z"
            transform="translate(-157.874 -333.947)"/>
    </clipPath>
    <clipPath id="o">
      <rect class="main-svg-j" width="94.929" height="13.631" rx="4.417"/>
    </clipPath>
  </defs>
  <g transform="translate(-9570 1902.719)">
    <g transform="translate(9594.655 -1883.984)">
      <path class="main-svg-k"
            d="M277.707,155.674l-.427-12.46,7.653-2.494a73.969,73.969,0,0,1,2.039-12.517l-6.486-4.741,4.4-11.711,8.022.654a73.628,73.628,0,0,1,6.638-10.763L295.392,94.7l8.535-9.113,7.226,3.632a79.3,79.3,0,0,1,10.279-7.425l-1.157-7.956,11.379-5.168,5.216,6.107A77.5,77.5,0,0,1,349.2,71.931l1.9-7.795,12.5-.436,2.466,7.653a78.392,78.392,0,0,1,12.508,2.039l4.817-6.448,11.711,4.372-.654,8.022a76.309,76.309,0,0,1,10.763,6.7l6.9-4.153,9.151,8.535-3.67,7.2a74.166,74.166,0,0,1,7.4,10.279l7.956-1.195,5.282,11.332-6.145,5.216a74.248,74.248,0,0,1,2.845,12.328l7.833,1.963.427,12.46-7.681,2.5a73.35,73.35,0,0,1-2.039,12.517l6.486,4.741-4.409,11.7-8.013-.645a73.369,73.369,0,0,1-6.685,10.763L425,198.517l-8.535,9.122-7.169-3.679a76.628,76.628,0,0,1-10.279,7.435l1.195,7.956-11.379,5.159-5.244-6.107a76.488,76.488,0,0,1-12.328,2.892l-1.9,7.8-12.5.427-2.466-7.653a76.262,76.262,0,0,1-12.517-2.039l-4.741,6.448-11.768-4.334.616-8.013a77.136,77.136,0,0,1-10.763-6.714l-6.922,4.153-9.151-8.535,3.67-7.207a73.59,73.59,0,0,1-7.416-10.27l-7.966,1.214-5.2-11.379,6.145-5.216a73.593,73.593,0,0,1-2.892-12.328Zm84.2,40.368a49.462,49.462,0,1,0-51.1-47.718,49.462,49.462,0,0,0,51.1,47.718Z"
            transform="translate(-25.839 -82.435)"/>
      <path class="main-svg-k"
            d="M119.76,314.169l-.19-5.614,3.452-1.128a33.824,33.824,0,0,1,.948-5.642l-2.921-2.153,1.982-5.282,3.613.294a33.19,33.19,0,0,1,3.016-4.855l-1.9-3.129,3.86-4.106,3.224,1.659a35.827,35.827,0,0,1,4.637-3.357l-.522-3.585,5.13-2.333,2.342,2.788A35.519,35.519,0,0,1,152,276.418l.872-3.518,5.633-.19,1.109,3.452a34.336,34.336,0,0,1,5.642.948l2.172-2.911,5.282,1.972-.294,3.613a35.873,35.873,0,0,1,4.855,3.025l3.11-1.9,4.125,3.793-1.66,3.253a32.319,32.319,0,0,1,3.338,4.637l3.594-.541,2.342,5.13-2.769,2.352a33.949,33.949,0,0,1,1.3,5.566l3.537.882.19,5.623-3.461,1.128a33.512,33.512,0,0,1-.948,5.642l2.921,2.153-1.982,5.282-3.622-.294a33.965,33.965,0,0,1-3.006,4.855l1.9,3.12-3.85,4.116-3.234-1.659a33.984,33.984,0,0,1-4.637,3.357l.541,3.585-5.13,2.323-2.361-2.75a35.766,35.766,0,0,1-5.566,1.309l-.872,3.518-5.633.19-1.119-3.452a34.5,34.5,0,0,1-5.69-.948L146.53,346l-5.291-1.9.284-3.613a35.877,35.877,0,0,1-4.855-3.025l-3.11,1.9-4.125-3.793,1.65-3.253a33.069,33.069,0,0,1-3.338-4.637l-3.585.54-2.342-5.13,2.769-2.352a33.512,33.512,0,0,1-1.309-5.566Zm37.931,18.207a23.118,23.118,0,1,1,.038,0Z"
            transform="translate(-9.284 -57.507)"/>
      <path class="main-svg-k"
            d="M117.109,93.224,113.97,90.38l1.252-2.475a25.681,25.681,0,0,1-2.56-3.6l-2.75.417-1.773-3.926,2.105-1.8a25.347,25.347,0,0,1-.948-4.248l-2.7-.683-.133-4.305L109.1,68.9a26.743,26.743,0,0,1,.7-4.315l-2.228-1.66,1.517-4.03,2.76.218a26.788,26.788,0,0,1,2.3-3.717l-1.489-2.371,2.94-3.158,2.475,1.271a26.857,26.857,0,0,1,3.547-2.56l-.379-2.769,3.916-1.792,1.8,2.115a26.392,26.392,0,0,1,4.258-.948l.673-2.693,4.305-.161.863,2.655a24.657,24.657,0,0,1,4.305.7l1.641-2.238,4.04,1.5-.247,2.759a25.205,25.205,0,0,1,3.793,2.314l2.39-1.422,3.1,2.9-1.271,2.484a24.655,24.655,0,0,1,2.56,3.547l2.7-.341,1.783,3.935-2.077,1.754a25.454,25.454,0,0,1,1,4.258l2.712.673.133,4.305-2.646.853a25.982,25.982,0,0,1-.692,4.324l2.238,1.641-1.5,4.03-2.788-.171a26.69,26.69,0,0,1-2.3,3.708l1.432,2.38-2.978,3.11-2.466-1.261a26.778,26.778,0,0,1-3.547,2.551l.408,2.741L144.9,97.814l-1.8-2.105a27.442,27.442,0,0,1-4.258.948l-.673,2.693-4.305.152L133,96.856a25.47,25.47,0,0,1-4.305-.7l-1.65,2.228-4.04-1.508.218-2.769a25.31,25.31,0,0,1-3.708-2.3Zm22.4-18.141a2.586,2.586,0,1,0,0,.038Z"
            transform="translate(-51.022 -35.324)"/>
      <path class="main-svg-k"
            d="M72.75,117.917a1.062,1.062,0,0,1-.882-.465l-2.646-3.793a24.713,24.713,0,0,1-3.793-1.46l-3.793.948a1.053,1.053,0,0,1-1.005-.256l-6.448-6.022a1.053,1.053,0,0,1-.332-.948l.711-3.793a22.977,22.977,0,0,1-1.716-3.689l-4.011-2.39a1.091,1.091,0,0,1-.531-.882l-.3-8.98a1.091,1.091,0,0,1,.465-.948l3.793-2.646a22.635,22.635,0,0,1,1.46-3.793l-.948-3.793A1.109,1.109,0,0,1,53.026,74l6.031-6.448a1.072,1.072,0,0,1,.948-.322l3.85.7a23.963,23.963,0,0,1,3.679-1.716l2.38-4.011a1.072,1.072,0,0,1,.891-.522l8.819-.3a1.091,1.091,0,0,1,.948.465l2.646,3.793a24.114,24.114,0,0,1,3.793,1.46l3.793-.948a1.091,1.091,0,0,1,.948.256l6.505,6.078a1.072,1.072,0,0,1,.322.948l-.7,3.793a24.286,24.286,0,0,1,1.716,3.7l4.011,2.38a1.062,1.062,0,0,1,.522.882l.3,8.829a1.081,1.081,0,0,1-.465.948l-3.793,2.655a23.707,23.707,0,0,1-1.451,3.793l.948,3.793a1.081,1.081,0,0,1-.256,1.005l-6.022,6.448a1.1,1.1,0,0,1-.948.322l-3.793-.7A23.374,23.374,0,0,1,84.945,113l-2.38,4a1.072,1.072,0,0,1-.891.522l-8.819.3Zm-7.226-7.975a1.1,1.1,0,0,1,.484.114,21.166,21.166,0,0,0,4.153,1.593,1.072,1.072,0,0,1,.607.427l2.532,3.67,7.653-.256,2.266-3.793a1.128,1.128,0,0,1,.607-.484,21.868,21.868,0,0,0,4.011-1.9,1.09,1.09,0,0,1,.749-.133l3.632.664,5.225-5.595-.948-3.594a1.11,1.11,0,0,1,.085-.759,20.966,20.966,0,0,0,1.584-4.135,1.043,1.043,0,0,1,.436-.607l3.67-2.532-.218-7.7L98.259,82.65a1.043,1.043,0,0,1-.465-.578,21.26,21.26,0,0,0-1.9-3.983,1.119,1.119,0,0,1-.152-.778l.616-3.66-5.595-5.216-3.6.948a1.166,1.166,0,0,1-.759-.085,21.727,21.727,0,0,0-4.078-1.641,1.1,1.1,0,0,1-.616-.427L79.17,63.58l-7.643.284-2.285,3.793a1,1,0,0,1-.417.4l-.218.095A20.624,20.624,0,0,0,64.661,70a1.081,1.081,0,0,1-.749.133l-3.66-.673-5.225,5.595.948,3.6a1.1,1.1,0,0,1-.076.759,21.346,21.346,0,0,0-1.593,4.116,1.11,1.11,0,0,1-.436.616L50.2,86.68l.266,7.653,3.793,2.276a1.081,1.081,0,0,1,.465.578,21.27,21.27,0,0,0,1.9,4.011,1.091,1.091,0,0,1,.133.749l-.664,3.651,5.595,5.225,3.585-.948a.815.815,0,0,1,.256.019ZM96.818,77.548Zm-20.6,28.221a16.121,16.121,0,1,1,.569,0Zm0-30.108h-.493a13.981,13.981,0,0,0,.948,27.946h0a13.98,13.98,0,1,0-.465-27.955Z"
            transform="translate(-47.999 -43.315)"/>
      <rect class="main-svg-l" width="343.696" height="229.873" rx="14.81" transform="translate(19.707 38.054)"/>
      <path class="main-svg-m" d="M435.208,245.852h-.948v-8.535h.948Zm0-15.267h-.948V212.89h.948Z"
            transform="translate(-67.975 -51.151)"/>
      <path class="main-svg-m"
            d="M398.4,312.817H82.8A14.575,14.575,0,0,1,68.24,298.261V96.476A14.566,14.566,0,0,1,82.8,81.92H398.4A14.566,14.566,0,0,1,412.96,96.476V298.261A14.575,14.575,0,0,1,398.4,312.817ZM82.8,82.944A13.541,13.541,0,0,0,69.264,96.476V298.261A13.541,13.541,0,0,0,82.8,311.793H398.4a13.541,13.541,0,0,0,13.532-13.532V96.476A13.541,13.541,0,0,0,398.4,82.944Z"
            transform="translate(-49.046 -44.378)"/>
      <path class="main-svg-m" d="M96.926,97.813A4.533,4.533,0,1,1,92.4,93.28,4.533,4.533,0,0,1,96.926,97.813Z"
            transform="translate(-50.061 -44.965)"/>
      <path class="main-svg-n"
            d="M127.4,100.561h-22.2a2.665,2.665,0,0,1-2.655-2.646h0a2.665,2.665,0,0,1,2.655-2.655h22.2a2.665,2.665,0,0,1,2.655,2.655h0A2.665,2.665,0,0,1,127.4,100.561Z"
            transform="translate(-50.82 -45.067)"/>
      <path class="main-svg-n"
            d="M240.731,99.432h-15.58a1.451,1.451,0,0,1-1.451-1.451h0a1.441,1.441,0,0,1,1.451-1.451h15.58a1.441,1.441,0,0,1,1.451,1.451h0a1.451,1.451,0,0,1-1.451,1.451Z"
            transform="translate(-57.086 -45.133)"/>
      <path class="main-svg-n"
            d="M277.6,99.432h-15.58a1.46,1.46,0,0,1-1.451-1.451h0a1.451,1.451,0,0,1,1.451-1.451H277.6a1.441,1.441,0,0,1,1.451,1.451h0a1.451,1.451,0,0,1-1.451,1.451Z"
            transform="translate(-58.993 -45.133)"/>
      <path class="main-svg-n"
            d="M314.473,99.432H298.921a1.46,1.46,0,0,1-1.451-1.451h0a1.451,1.451,0,0,1,1.451-1.451h15.552a1.451,1.451,0,0,1,1.46,1.451h0a1.46,1.46,0,0,1-1.46,1.451Z"
            transform="translate(-60.901 -45.133)"/>
      <path class="main-svg-n"
            d="M351.351,99.432h-15.59a1.46,1.46,0,0,1-1.451-1.451h0a1.451,1.451,0,0,1,1.451-1.451h15.59a1.451,1.451,0,0,1,1.451,1.451h0a1.46,1.46,0,0,1-1.451,1.451Z"
            transform="translate(-62.806 -45.133)"/>
      <path class="main-svg-o"
            d="M398.035,100.48H374.46a2.56,2.56,0,0,1-2.56-2.56h0a2.56,2.56,0,0,1,2.56-2.57h23.574a2.56,2.56,0,0,1,2.56,2.57h0A2.56,2.56,0,0,1,398.035,100.48Z"
            transform="translate(-64.75 -45.072)"/>
      <path class="main-svg-n"
            d="M399.1,211.1V164.991a1.441,1.441,0,0,1,1.451-1.451h0A1.451,1.451,0,0,1,402,164.991V211.1a1.451,1.451,0,0,1-1.451,1.451h0A1.441,1.441,0,0,1,399.1,211.1Z"
            transform="translate(-66.157 -48.599)"/>
      <circle class="main-svg-n" cx="1.451" cy="1.451" r="1.451" transform="translate(332.943 174.2)"/>
      <circle class="main-svg-n" cx="1.451" cy="1.451" r="1.451" transform="translate(332.943 194.701)"/>
      <circle class="main-svg-n" cx="1.451" cy="1.451" r="1.451" transform="translate(332.943 215.203)"/>
    </g>
    <g transform="translate(9718.881 -1799.602)">
      <g transform="translate(-9239.123 81.552)">
        <rect class="main-svg-p" width="135" height="19" transform="translate(9239.242 -0.262)"/>
      </g>
      <g transform="translate(-9216.364)">
        <rect class="main-svg-q" width="91" height="19" transform="translate(9239.483 0.29)"/>
      </g>
      <g transform="translate(-9228.692 40.776)">
        <rect class="main-svg-p" width="116" height="19" transform="translate(9238.812 -0.486)"/>
      </g>
      <g transform="translate(-9215.416 122.329)">
        <rect class="main-svg-q" width="89" height="19" rx="4" transform="translate(9239.535 -0.038)"/>
      </g>
    </g>
    <g transform="translate(9782.396 -1788.578)">
      <path class="main-svg-e"
            d="M501.021,383.263s1.253,12.126.956,16.158c-1,13.537-5.718,26.967-7.717,53.271h76.757s.7-47.972-2.319-69.428Z"
            transform="translate(-326.597 -199.299)"/>
      <g transform="translate(161.534 60.575)">
        <path class="main-svg-m"
              d="M498.546,347.1s-1.889-32.126-5.6-63.044c-2.227-18.551-5.951-36.929-6.8-50.66-1.115-17.964,20.817-12.972,39.913-13.771s37.648-3.276,38.973,13.422,3.146,112.994,3.146,112.994S532,355.741,498.546,347.1Z"
              transform="translate(-486.102 -219.014)"/>
        <g class="main-svg-r">
          <g class="main-svg-s" transform="translate(-27.935 17.901)">
            <path
              d="M483.447,249.862a62.888,62.888,0,0,1-21.22,26.407l1.791,4.1c-2.071,1.747-5.872.144-6.068-2.558l-2.153,11.07-6.881-.216c3.366,3.417,9.281,2.9,13.247.205s6.473-7,8.946-11.113,5.219-8.33,9.421-10.643l15.152,71.139c.815,3.828,1.685,7.78,3.983,10.947,4.767,6.57,13.987,7.763,22.1,7.689a142.589,142.589,0,0,0,35.651-4.871l-.9-87.285,23.137,28.783-11.3,15.614a28.054,28.054,0,0,1,21.613-12.311A5.766,5.766,0,0,0,584.5,295.3l7.15-2.288-5.588-.486,3.118-5.053c-.732,1.443-2.716,1.852-4.246,1.325a10.23,10.23,0,0,1-3.827-2.908c-5.1-5.342-10.25-10.755-13.894-17.178s-5.68-14.065-4.052-21.268l-2.6,6.488-3.975-11.091a10.352,10.352,0,0,1-3.115,9.8c-1.06.95-2.363,1.731-2.92,3.057a3.314,3.314,0,0,0-.144,1.885c9.978,53.36-22.462,53.648-33.836,50.714-10.188-2.629-19.528-15.474-19.914-25.857a1.7,1.7,0,0,1,2.525-1.522c19.164,10.585,35.6,13.288,29.9,8.909-10.144-2.169-37.171-13.249-41.679-37.4a3.25,3.25,0,0,0-3.948-2.567Z"
              transform="translate(-448.916 -242.843)"/>
          </g>
        </g>
      </g>
      <path class="main-svg-t"
            d="M540.1,436.715a35.879,35.879,0,0,0-2.489-5.06c-4.694-6.238-4.105-11.556-5.826-17.375-.527-1.782-4.123-6.184-4.123-6.184"
            transform="translate(-334.907 -205.477)"/>
      <path class="main-svg-u" d="M604.6,340.036l-5.583,6.626,1.718,11.617,8.5-8.95Z"
            transform="translate(-352.658 -188.546)"/>
      <g transform="translate(236.403 154.134)">
        <path class="main-svg-v"
              d="M596.745,348.021c-.234-1.129-.361-4-1.451-4.378-2-.692-5.845,2.942-7.061,4.675-.571.814-1.8,2.558-1.791,3.553,0,.509.449,1.718.951,1.8.874.139,1.868-1.888,2.544-2.459a34.335,34.335,0,0,1,4.021-2.3,34.887,34.887,0,0,1-3.331,4.226c-1.438,1.178-7.42,4.507-3.62,6.492,0,0-1.466,2.152.829,2.721s5.947-2.6,5.947-2.6a13.93,13.93,0,0,1-2.329,2.519c-1.454,1.3-3.606,1.013-3.1,1.929.79,1.421,2.741,1.551,4.824.853a8,8,0,0,0,4.975-3.976C600.037,357.956,597.414,351.234,596.745,348.021Z"
              transform="translate(-585.763 -343.556)"/>
        <path class="main-svg-w" d="M589.507,362.458a42.022,42.022,0,0,0,4.723-2.771,8.917,8.917,0,0,0,2.424-2.852"
              transform="translate(-586.694 -346.859)"/>
      </g>
      <g transform="translate(222.438 60.628)">
        <path class="main-svg-m"
              d="M567.174,219.086s18.6,1.105,18.492,6.824c0,0,9.312,3.966,9.81,8.445s39.782,46.568,32.972,58.791c-5.946,10.67-29.946,30.512-29.946,30.512s-2.294-5.153-4.885-11.171c0,0,10.529-22.966,15.343-25.325l-25.273-32.1"
              transform="translate(-567.174 -219.086)"/>
      </g>
      <path class="main-svg-y" d="M636.458,306.6c-4.143-2.915-10.013.147-10.013-1.767s7.067-2.088,6.479-4.063"
            transform="translate(-359.481 -178.778)"/>
      <g transform="translate(241.197 69.072)">
        <path class="main-svg-y" d="M596.587,251.977a33.044,33.044,0,0,0,1.964-11.263"
              transform="translate(-593.25 -232.91)"/>
        <path class="main-svg-y" d="M592.566,237.437c.22,4.367.44,10.571.24,15.306a1.014,1.014,0,0,0,1.934.467"
              transform="translate(-592.25 -232.095)"/>
        <path class="main-svg-z" d="M592.145,230.326s.067.935.159,2.46" transform="translate(-592.145 -230.326)"/>
      </g>
      <path class="main-svg-t" d="M478.984,246.986s-1.107,7.733,0,13.253" transform="translate(-322.675 -165.398)"/>
      <g transform="translate(93.998 38.175)">
        <path class="main-svg-v"
              d="M426.018,224.885l-4.262-12.258s-1.325-8.393-2.429-10.049a25.24,25.24,0,0,0-3.976-3.975,29.529,29.529,0,0,0-3.518-4.086c-1.451-1.215-9.955-5.632-10.617-5.3s-1.711,2.319,3.81,5.411a14.047,14.047,0,0,0-5.467.773c-2.429.994-4.085,1.27-3.036,2.319s1.933,1.546,5.853.5a30.742,30.742,0,0,0,4.969.166l1.215,1.436a2.387,2.387,0,0,0-2.982.938c-1.1,1.767-2.375,3.976-1.822,5.246,0,0-4.251-2.209-5.411-.387s2.429,3.479,3.865,4.583,4.915,4.086,4.915,4.086,2.484,5.576,7.675,7.62c0,0,2.011,2.319,1.436,4.472Z"
              transform="translate(-396.202 -189.197)"/>
        <path class="main-svg-w" d="M411.549,198.408l1.822,1.491,2.043,3.534,1.38,4.638"
              transform="translate(-400.02 -191.489)"/>
        <path class="main-svg-w"
              d="M416.894,211.271s-2.9,3.478-4.954,3.976a19.4,19.4,0,0,1-2.611-1.325c-.366-.32-.921-.944-2.042-1.838"
              transform="translate(-398.96 -194.689)"/>
        <path class="main-svg-w"
              d="M414.642,210.592l-.266-.938a6.145,6.145,0,0,1-2.605,0l-.663.938A12.336,12.336,0,0,1,414.642,210.592Z"
              transform="translate(-399.91 -194.286)"/>
        <path class="main-svg-w" d="M411.917,205.685a4.7,4.7,0,0,1,.386,2.374"
              transform="translate(-400.111 -193.299)"/>
        <path class="main-svg-w" d="M409.638,209.654a5.545,5.545,0,0,1,1.913,4.75"
              transform="translate(-399.544 -194.286)"/>
        <path class="main-svg-w" d="M414.2,204.509l1.215,1.325v1.491" transform="translate(-400.678 -193.006)"/>
      </g>
      <g transform="translate(111.859 62.59)">
        <path class="main-svg-b"
              d="M477.748,221.7s-7.042-.3-11.53,12.365c0,0-5.305,3.1-16.1,26.657,0,0-1.858-2.487-5.848-9.3-3.482-5.948-8.8-13.636-13.191-24.881,0,0-3.534,4.351-11.1,4.1,0,0,16.4,55.407,27.889,55.407,12.663,0,26.61-29.448,26.61-29.448"
              transform="translate(-419.978 -221.697)"/>
        <g class="main-svg-aa">
          <g class="main-svg-ab" transform="translate(22.113 15.762)">
            <path
              d="M483.945,249.7A62.873,62.873,0,0,1,462.725,276.1l1.79,4.1c-2.07,1.747-5.872.144-6.068-2.558q-1.077,5.535-2.153,11.069l-6.881-.216c3.366,3.416,9.281,2.9,13.247.205s6.473-7,8.946-11.113,5.219-8.33,9.42-10.643l15.152,71.138c.815,3.828,1.684,7.78,3.983,10.948,4.767,6.57,13.987,7.762,22.1,7.689a142.624,142.624,0,0,0,35.651-4.871q-.448-43.643-.9-87.285,11.568,14.391,23.137,28.783l-11.3,15.614a28.054,28.054,0,0,1,21.612-12.311,5.764,5.764,0,0,0-5.479-1.515l7.149-2.288-5.588-.486,3.118-5.053c-.732,1.443-2.716,1.852-4.246,1.325a10.233,10.233,0,0,1-3.827-2.908c-5.1-5.343-10.251-10.756-13.894-17.179s-5.68-14.065-4.053-21.267l-2.6,6.488-3.976-11.091a10.352,10.352,0,0,1-3.115,9.8c-1.019.914-2.261,1.67-2.852,2.9-.8,1.662-.16,3.615.369,5.38,3.3,11.012,1.737,23.648-5.169,32.838s-19.334,14.259-30.465,11.388-19.794-14.176-18.6-25.61a128.864,128.864,0,0,0,37.031,7.629c-10.608-2.268-21.282-5.334-30.224-11.475S488.056,259.7,487.42,248.87Z"
              transform="translate(-449.414 -242.679)"/>
          </g>
        </g>
      </g>
      <path class="main-svg-m"
            d="M477.748,221.7s-7.042-.3-11.53,12.365c0,0-5.305,3.1-16.1,26.657,0,0-1.858-2.487-5.848-9.3-3.482-5.948-8.8-13.636-13.191-24.881,0,0-3.534,4.351-11.1,4.1,0,0,16.4,55.407,27.889,55.407,12.663,0,26.61-29.448,26.61-29.448"
            transform="translate(-308.119 -159.107)"/>
      <g transform="translate(157.712 74.956)">
        <path class="main-svg-z" d="M486.337,240.946q-.109-1.339-.181-2.788" transform="translate(-482.293 -238.158)"/>
        <path class="main-svg-z" d="M487.758,259.927c2.054-.225.26-4.441-.824-12.936"
              transform="translate(-482.487 -240.355)"/>
        <path class="main-svg-z" d="M481.014,243.262s1.711,10.008,3.68,14.064"
              transform="translate(-481.014 -239.428)"/>
      </g>
      <g transform="translate(185.54 40.908)">
        <path class="main-svg-v"
              d="M537.481,192.835s1.926,19.135,6.2,21.441c0,0-.681,7.313-13.15,7.313s-12.47-10.307-12.47-10.307Z"
              transform="translate(-518.057 -192.835)"/>
        <g class="main-svg-ac">
          <path class="main-svg-ad"
                d="M507.479,163.83s-2.024,12.052-1.691,14.551-.287,5.126.225,9.209,3.622,15.454,11.043,17.192c3.869.906,12.26-2.864,15.735-10.6.236-.524,1.629-6.467,1.629-6.467s3.44,2.326,4.546-1.436,2.964-7.2.578-9.449c-2.493-2.346-5.617,2.623-6.066,4.423s-2.212-.241-2.212-.241-1.1-8.288-3.691-10.487,2.238-6.457-.212-9.344S514.014,158.944,507.479,163.83Z"
                transform="translate(-514.996 -184.532)"/>
        </g>
      </g>
      <g transform="translate(165.922 0)">
        <path class="main-svg-d"
              d="M501.158,158.786s-11.347-1.095-8.859-10.252,11.966-10.153,11.966-10.153-1.913,6.57,9.335,5.276,23.391-2.389,23.889,8.956a23.927,23.927,0,0,1-2.986,21.4c-7.366,10.551-14.134,2.007-14.134,2.007L514.5,163.465l-10.823-2.29Z"
              transform="translate(-491.942 -138.381)"/>
        <g class="main-svg-ae">
          <path class="main-svg-af"
                d="M525.024,157.327s13.431,1.556,20-.035,8.36,16.227,8.36,16.227l-1.592,10.849-17.917,3.086-8.262-7.366-3.384-10.253Z"
                transform="translate(-499.477 -143.061)"/>
        </g>
      </g>
      <path class="main-svg-v"
            d="M501.242,162.016s-2.619,12.131-2.286,14.63-.446,5.147.06,9.23,2.272,19.379,11.09,18.205c8.685-1.156,20.632-8.264,21.693-15.319.086-.574.6-2.243.6-2.243a4.009,4.009,0,0,0,5-2.674c1.369-3.8,3.608-7.288.879-9.49-2.849-2.3-6.6,2.753-7.157,4.568s-2.57-.194-2.57-.194-1.1-8.288-4.067-10.437,2.747-6.524-.042-9.366S508.955,156.973,501.242,162.016Z"
            transform="translate(-327.737 -143.094)"/>
      <path class="main-svg-ag"
            d="M506.827,182.8c0,2.231-4.209,6.127-3.711,8.119.273,1.093,3.106,1.624,3.692,2.588a2.074,2.074,0,0,1,.228.913"
            transform="translate(-328.79 -149.431)"/>
      <path class="main-svg-ah"
            d="M502.2,184.02c-.062.868-.46,1.548-.892,1.517s-.73-.759-.669-1.628.461-1.548.892-1.518S502.263,183.151,502.2,184.02Z"
            transform="translate(-328.183 -149.329)"/>
      <path class="main-svg-ah"
            d="M515.222,182.094c-.065.908-.482,1.618-.932,1.587s-.763-.794-.7-1.7.482-1.618.932-1.587S515.287,181.186,515.222,182.094Z"
            transform="translate(-331.404 -148.832)"/>
      <path class="main-svg-ai" d="M509.861,176.881s3.748-3.028,8.729.192" transform="translate(-330.479 -147.637)"/>
      <path class="main-svg-ai" d="M520.155,200.777s-8.276,7.332-11.819.951" transform="translate(-330.099 -153.903)"/>
      <path class="main-svg-ai" d="M496.505,179.535s2.492-3.411,6.71-.893" transform="translate(-327.156 -148.166)"/>
      <path class="main-svg-ai"
            d="M503.514,183.5a3.346,3.346,0,1,1-6.636,0c0-2.088,1.485-2.986,3.318-2.986S503.514,181.408,503.514,183.5Z"
            transform="translate(-327.249 -148.861)"/>
      <path class="main-svg-ai"
            d="M518.469,181.592a4.166,4.166,0,0,1-8.3,0c0-2.089,1.857-2.986,4.148-2.986S518.469,179.5,518.469,181.592Z"
            transform="translate(-330.556 -148.388)"/>
      <path class="main-svg-ai" d="M505.383,182.263c0-.907,3.6-1.377,3.6-.47" transform="translate(-329.364 -149.059)"/>
      <line class="main-svg-ai" x2="17.312" y2="1.474" transform="translate(187.652 31.731)"/>
      <g transform="translate(174.285 126.409)">
        <path class="main-svg-t" d="M503.075,306.65s.527,1.182,1.56,3.176" transform="translate(-503.075 -306.65)"/>
      </g>
      <path class="main-svg-z" d="M459.3,289.33s-.337-9.276.989-9.718,1.325,5.08,4.859,4.859"
            transform="translate(-317.891 -173.508)"/>
      <line class="main-svg-t" x1="2.153" transform="translate(0 41.768)"/>
    </g>
    <g transform="matrix(0.999, 0.035, -0.035, 0.999, -4.905, -127.539)">
      <g class="main-svg-aj" transform="translate(9713.833 -1969.751)">
        <rect class="main-svg-bw" width="113" height="19" rx="4"/>
        <rect class="main-svg-bx" x="0.5" y="0.5" width="112" height="18" rx="3.5"/>
      </g>
      <text class="main-svg-ak" transform="translate(9730.833 -1956.751)">
        <tspan x="0" y="0">{{ "{" }} product update }</tspan>
      </text>
    </g>
    <g transform="translate(9758.349 -1695.169)">
      <g transform="translate(90.112 0)">
        <path class="main-svg-v"
              d="M415.375,274.64l-2.517-10.885L407.908,245.2l-5.217-5.59-6.9-5.219s-7.635-3.224-7.892-1.563a1.924,1.924,0,0,0,1.151,2.173s-2.173-.767-2.684.575,3,2.3,4.984,4.026a29.818,29.818,0,0,1,3.2,3.211s-2.77,3.451-2.408,5.328l.234.855s-5.532-3.007-6.057-.577,3.264,2.925,5.428,5.266a33.679,33.679,0,0,0,4.181,3.834s2.139,5.407,6.77,7.325l.285,11.886S410.071,278.17,415.375,274.64Z"
              transform="translate(-386.263 -232.358)"/>
        <path class="main-svg-w"
              d="M390.734,236.734a43.213,43.213,0,0,0,5.19,3.067s3.234,3.4,4.394,4.607a24.812,24.812,0,0,1,2.749,4.356"
              transform="translate(-387.375 -233.446)"/>
        <path class="main-svg-w" d="M398.305,247.28a37.238,37.238,0,0,0,2.555,3.782c1.023,1.2.913,1.906.2,2.737"
              transform="translate(-389.259 -236.07)"/>
        <path class="main-svg-w"
              d="M396.1,255.072a10.08,10.08,0,0,1,1.657,1.491,3.026,3.026,0,0,0,3.553.668c1.044-.737,3.859-2.738,3.476-3.487"
              transform="translate(-388.71 -237.678)"/>
        <path class="main-svg-w" d="M398.647,250.722s0,1.125-.725,1.521,1.074-.435,1.8.255"
              transform="translate(-389.122 -236.926)"/>
      </g>
      <g transform="translate(103.681 36.797)">
        <path class="main-svg-al"
              d="M467.9,318.932s-6.263-3.977-15.194-.746a196.094,196.094,0,0,0-23.109,2.608s1.014-2.68-2.614-2.07c0,0-1.349-27.951-5.958-37.384,0,0-.547,2.7-16.612,3.363,0,0-1.142,49.983,4.732,57.31s55.13,1.64,55.13,1.64S473.062,327.491,467.9,318.932Z"
              transform="translate(-404.325 -281.34)"/>
        <g class="main-svg-am">
          <path class="main-svg-an"
                d="M401.413,348.835s7.256,11.255,19.79,9.968,41.05-13.051,42.074-2.446-12.591,8.605-12.591,8.605l-33.3,5.133s-3.491,6.035-14.131-3.133l-10.64-9.168Z"
                transform="translate(-401.412 -298.13)"/>
        </g>
      </g>
      <path class="main-svg-ao" d="M419.673,341.874s9.793-10.416,11.461-8.125-2.652,2.5-5.181,12.5"
            transform="translate(-304.462 -257.498)"/>
      <g transform="translate(157.358 70.7)">
        <path class="main-svg-ap"
              d="M481.764,416.412s1.459-28.34,0-50.011-12.711-29.381,0-35.841,54.6-4.793,67.723,1.667,4.793,36.258,5.418,49.385,2.917,34.8,2.917,34.8Z"
              transform="translate(-475.777 -326.469)"/>
        <g class="main-svg-aq">
          <path class="main-svg-an"
                d="M521.716,377.517s-8.709-6.042-13.476,1.459,21.073,44.907,25.518,45.1,25.743,0,25.743,0l11.471-25.283s-4.984-53.153-14.431-54.126S540.7,364.05,539.315,375.958s-.1,16.708-.1,16.708Z"
                transform="translate(-483.707 -330.987)"/>
        </g>
      </g>
      <path class="main-svg-ar"
            d="M514.881,352.782c2.52,0,4.308,5.138,6.7,5.1s8.447-16.647,11.087-21.312,1.443-10.413-2.522-11.471-27.22,0-27.22,0a9.854,9.854,0,0,0-.681,9.167c2.223,5,3.056,21.394,6.251,21.95S511.686,352.782,514.881,352.782Z"
            transform="translate(-324.794 -255.313)"/>
      <path class="main-svg-as" d="M411.009,295.905a1.459,1.459,0,1,1-.871-1.871A1.459,1.459,0,0,1,411.009,295.905Z"
            transform="translate(-301.603 -247.679)"/>
      <path class="main-svg-at" d="M411.009,304.57a1.459,1.459,0,1,1-.871-1.87A1.458,1.458,0,0,1,411.009,304.57Z"
            transform="translate(-301.603 -249.834)"/>
      <g transform="translate(177.446 59.232)">
        <path class="main-svg-v"
              d="M502.517,326.9s9.585,21.618,13.475,20.977,6.668-9.516,10.558-13.927,4.275-8.312,4.012-10.737l-1.095-11.038-8.752-.972-12.5,9.168Z"
              transform="translate(-502.517 -311.204)"/>
        <g class="main-svg-au">
          <path class="main-svg-ad"
                d="M489.289,282.7s-.959,12.7-.27,15.191.269,5.294,1.357,9.373,5.03,19.377,13.826,16.947c8.665-2.394,21.338-12.253,20.6-19.536l-.4-1.444a4.112,4.112,0,0,0,4.706-3.42c.859-4.051,2.644-7.914-.439-9.768-3.219-1.936-6.317,3.723-6.633,5.647s-2.638.164-2.638.164-2.285-8.269-5.6-10.037,1.876-7.017-1.357-9.514S496.421,276.487,489.289,282.7Z"
                transform="translate(-499.097 -302.29)"/>
        </g>
      </g>
      <path class="main-svg-av"
            d="M530.586,290.773s5.279-7.411,1.667-16.163c0,0-2.918-14.725-20.838-16.253,0,0,4.584-3.473,1.667-4.863-4.419-2.1-12.184,5-12.184,5s3.641-5.506,1.869-5.6-14.239,13.94-6.824,18.939,18.414.693,18.414.693l5.394,18.246.833,2.314,7.828.556Z"
            transform="translate(-322.855 -237.466)"/>
      <path class="main-svg-v"
            d="M494.856,274.395s-4.393,12.225-4.393,14.865-1.174,5.279-1.212,9.585-.319,20.421,8.992,20.421c9.17,0,24.311-6.251,25.561-13.614v-1.528a4.2,4.2,0,0,0,5.557-2.084c1.945-3.75,4.75-7.063,2.222-9.724-2.639-2.778-7.223,1.945-8.057,3.751s-2.639-.556-2.639-.556,0-8.752-2.779-11.391,3.751-6.391,1.25-9.725S503.556,270.227,494.856,274.395Z"
            transform="translate(-321.769 -242.113)"/>
      <path class="main-svg-ag"
            d="M500.9,296.41s-5.1,4.951-4.862,7.085c.133,1.172,3,2.115,3.473,3.2a5.864,5.864,0,0,1,0,1.806"
            transform="translate(-323.458 -248.292)"/>
      <path class="main-svg-ah"
            d="M496.666,296.2c-.325.983-1.119,1.6-1.774,1.388s-.92-1.189-.594-2.173,1.12-1.6,1.774-1.388S496.992,295.215,496.666,296.2Z"
            transform="translate(-322.992 -247.688)"/>
      <path class="main-svg-ah"
            d="M513.434,296.2c-.326.983-1.12,1.6-1.774,1.388s-.92-1.189-.6-2.173,1.12-1.6,1.774-1.388S513.759,295.215,513.434,296.2Z"
            transform="translate(-327.163 -247.688)"/>
      <path class="main-svg-ai" d="M508.434,291.119s4.307-2.624,9.03,1.4" transform="translate(-326.543 -246.766)"/>
      <path class="main-svg-aw"
            d="M496.715,313.978s6.721,2.361,13.319.694C510.034,314.672,499.719,321.618,496.715,313.978Z"
            transform="translate(-323.628 -252.662)"/>
      <path class="main-svg-ai" d="M493.086,291.872s3.056-3.2,7.085,0" transform="translate(-322.725 -246.809)"/>
      <g transform="translate(162.92 77.948)">
        <path class="main-svg-v"
              d="M514.774,364.3l-4.345-5.24s-5.24-7.669-7.285-13.675-2.3-9.2-5.5-9.2-14.442-.766-14.059,3.067a6.284,6.284,0,0,0-.009,4.346,11.438,11.438,0,0,0,1.8,4.856c1.534,2.173,2.428,1.759,2.428,1.759s1.022,1.693,2.046,1.693c0,0,.894,4.6,7.8,8.563l4.857,5.241,5.112,9.457,9.547-7.6Z"
              transform="translate(-483.181 -336.118)"/>
        <path class="main-svg-w"
              d="M500.444,343.134a23.582,23.582,0,0,1-3.547,1.246c-1.63.383-7.189,1.246-7.573,2.876s1.822,5.751,2.972,5.942,5.272,0,5.464-.862a7.959,7.959,0,0,1,0,2.3c-.192,1.151-1.055,2.972.383,5.943"
              transform="translate(-484.698 -337.863)"/>
        <path class="main-svg-w" d="M483.713,344.767a3.713,3.713,0,0,1,2.214-1.534c1.438-.288,7.189-1.726,8.1-2.4"
              transform="translate(-483.313 -337.292)"/>
        <path class="main-svg-w" d="M483.725,339.487a8.577,8.577,0,0,1,2.2-.735c1.15-.192,7.05-1.867,9.037-1.653"
              transform="translate(-483.316 -336.357)"/>
        <path class="main-svg-w" d="M498.193,353.3s-1.386-1.1-2.131-.783-1,1.151-1.959,1.662"
              transform="translate(-485.898 -340.182)"/>
        <path class="main-svg-w" d="M496.711,351.983a9.32,9.32,0,0,0,3.281-1.661"
              transform="translate(-486.547 -339.651)"/>
      </g>
      <path class="main-svg-al"
            d="M560.734,335.583c-7.146-3.915-16.879,10.419-17.087,27.715s-.417,20.421-.417,20.421l-21.463-23.13s-1.459,6.043-11.669,10.836A128.479,128.479,0,0,0,523.435,398.1c8.752,13.128,17.3,24.8,22.713,24.8s15.489-12.715,19.171-29.382C573.237,357.671,575.569,343.71,560.734,335.583Z"
            transform="translate(-326.957 -257.875)"/>
      <g transform="translate(220.088 128.079)">
        <path class="main-svg-ao" d="M559.45,403.668a.459.459,0,0,1,.434-.792,21.578,21.578,0,0,1,12.46,11.49"
              transform="translate(-559.279 -402.85)"/>
        <path class="main-svg-ao" d="M568.222,418.129a26.487,26.487,0,0,0-6.246-11.882"
              transform="translate(-559.95 -403.695)"/>
      </g>
      <g transform="translate(220.087 124.554)">
        <path class="main-svg-ao" d="M579.361,404.733q.811.784,1.625,1.732" transform="translate(-564.275 -399.792)"/>
        <path class="main-svg-ao" d="M559.279,398.821s6.4-2.725,13.469,2.858" transform="translate(-559.279 -398.156)"/>
      </g>
      <g transform="translate(217.732 87.502)">
        <path class="main-svg-ao" d="M556.624,374.925c-.2,1.068-.366,2.176-.48,3.322"
              transform="translate(-556.144 -355.325)"/>
        <path class="main-svg-ao" d="M567.324,348.835A37.007,37.007,0,0,0,558.03,364.6"
              transform="translate(-556.613 -348.835)"/>
      </g>
      <path class="main-svg-as" d="M519.118,389.867a1.459,1.459,0,1,1-1.458-1.459A1.458,1.458,0,0,1,519.118,389.867Z"
            transform="translate(-328.475 -271.178)"/>
      <path class="main-svg-at" d="M523,397.673a1.459,1.459,0,1,1-1.459-1.459A1.459,1.459,0,0,1,523,397.673Z"
            transform="translate(-329.441 -273.119)"/>
      <g transform="translate(82.857 111.715)">
        <path class="main-svg-ax"
              d="M1.68,0H34.665a0,0,0,0,1,0,0V3.056a0,0,0,0,1,0,0H1.319A1.319,1.319,0,0,1,0,1.738V1.68A1.68,1.68,0,0,1,1.68,0Z"
              transform="translate(112.51 51.623) rotate(180)"/>
        <path class="main-svg-ax"
              d="M393.444,433.426h61.395a2.992,2.992,0,0,0,2.874-3.828l-13.845-47.637a2.993,2.993,0,0,0-2.874-2.158H379.6a2.993,2.993,0,0,0-2.874,3.828l13.845,47.637A2.992,2.992,0,0,0,393.444,433.426Z"
              transform="translate(-376.605 -381.804)"/>
      </g>
    </g>
    <g transform="translate(9775.307 -1604.343)">
      <path class="main-svg-az"
            d="M56.814,377.449a12.229,12.229,0,0,1,7.554-.925,6.34,6.34,0,0,1,3.744,1.675,2.693,2.693,0,0,1,.039,3.738,3.6,3.6,0,0,1-2.36.595c-2,0-4.229-.375-5.82.834-.918.685-1.526,1.83-2.587,2.167a2.587,2.587,0,0,1-2.839-1.261,4.436,4.436,0,0,1-.317-3.234A4.967,4.967,0,0,1,56.814,377.449Z"
            transform="translate(-31.444 -346.357)"/>
      <path class="main-svg-az"
            d="M49.422,350.9c1.41,2.011,4.152,1.345,5.419.116a10.216,10.216,0,0,0,2.3-4.708c1.119-3.88,2.244-7.955,1.416-11.906a6.615,6.615,0,0,0-1.526-3.234,3.454,3.454,0,0,0-3.272-1.093c-1.377.369-2.238,1.72-2.858,3.007a28.371,28.371,0,0,0-2.807,12.177,9.942,9.942,0,0,0,1.332,5.639"
            transform="translate(-29.336 -330.003)"/>
      <path class="main-svg-az"
            d="M35.3,357.307a7.334,7.334,0,0,0,1.145-6.745,13.018,13.018,0,0,0-4-5.82,21.439,21.439,0,0,0-7.114-4.223,7.67,7.67,0,0,0-3.234-.543,3.376,3.376,0,0,0-2.7,1.63c-.75,1.436-.032,3.175.75,4.6a54.5,54.5,0,0,0,4.7,7.185,12.733,12.733,0,0,0,5.174,4.424c2.154.821,4.372.724,5.51-.763"
            transform="translate(-19.09 -333.523)"/>
      <path class="main-svg-ba"
            d="M49.994,399.15a4.217,4.217,0,0,0,.129-.912c.065-.647.149-1.5.246-2.5a36.125,36.125,0,0,1,.556-3.66,28.684,28.684,0,0,1,1.332-4.326,15.993,15.993,0,0,1,2.212-3.88,8.226,8.226,0,0,1,2.787-2.36,7.509,7.509,0,0,1,2.348-.731,4.528,4.528,0,0,0,.912-.136,4.613,4.613,0,0,0-.925,0,6.991,6.991,0,0,0-2.451.647,8.134,8.134,0,0,0-2.943,2.335,15.677,15.677,0,0,0-2.263,3.984,26.4,26.4,0,0,0-1.293,4.4,30.967,30.967,0,0,0-.491,3.706c-.078,1.061-.1,1.94-.123,2.516a4.242,4.242,0,0,0-.032.918Z"
            transform="translate(-30.004 -347.887)"/>
      <path class="main-svg-ba"
            d="M50.175,383.756a1.939,1.939,0,0,0,0-.42V382.12c0-1.054,0-2.587.058-4.462.091-3.764.414-7.819,1.041-13.529.595-5.374,1.39-11.641,2.231-15.689.175-.925.356-1.759.53-2.483s.3-1.358.433-1.869.213-.873.285-1.183a1.694,1.694,0,0,0,.078-.414,1.532,1.532,0,0,0-.149.394c-.1.3-.213.692-.356,1.164s-.317,1.132-.5,1.856-.388,1.559-.589,2.477A139.383,139.383,0,0,0,50.9,362.939a147.2,147.2,0,0,0-.9,14.719c0,1.882,0,3.415.065,4.469,0,.491.058.892.078,1.209a1.591,1.591,0,0,0,.032.42Z"
            transform="translate(-30.011 -334.414)"/>
      <path class="main-svg-ba"
            d="M42.951,375.385a8.252,8.252,0,0,0,0-1.293,33.976,33.976,0,0,0-.388-3.441,45.574,45.574,0,0,0-1.106-4.98,41.175,41.175,0,0,0-2.1-5.924,31.644,31.644,0,0,0-6.15-9.571,16.535,16.535,0,0,0-1.455-1.345,7.558,7.558,0,0,0-.647-.517l-.563-.388a7.992,7.992,0,0,0-1.067-.686,37.638,37.638,0,0,1,3.5,3.124,33.158,33.158,0,0,1,5.995,9.539,46.857,46.857,0,0,1,2.108,5.866c.55,1.843.912,3.531,1.19,4.954s.414,2.587.5,3.408A7.574,7.574,0,0,0,42.951,375.385Z"
            transform="translate(-22.761 -336.093)"/>
      <path class="main-svg-e" d="M35.28,418.18l1.009,13.8H54.022l1-13.8Z" transform="translate(-24.81 -361.155)"/>
      <rect class="main-svg-ah" width="23.572" height="5.439" transform="translate(8.756 51.586)"/>
      <path class="main-svg-ah" d="M32.63,438.71v1.507H55.814V438.71Z" transform="translate(-23.874 -368.408)"/>
      <path class="main-svg-ah" d="M35.426,443.692,34.34,441.04H55.578l-1.268,2.652Z"
            transform="translate(-24.478 -369.232)"/>
      <path class="main-svg-bb"
            d="M54.863,424.128a1.331,1.331,0,0,1-.084.123l-.265.356L53.479,425.9l-.045.058-.045-.058-2.535-3.512H51l-2.5,3.576-.078.11-.091-.1c-.918-1.1-1.94-2.289-2.962-3.525h.168c-.045.065-.1.129-.162.2l-2.645,3.318-.091.11-.084-.116-2.5-3.537H40.2l-3.078,3.544-.052.058-.045-.071c-.4-.679-.724-1.222-.964-1.617l-.246-.433-.078-.149a.592.592,0,0,1,.1.136l.278.414,1.009,1.591h-.1l3.033-3.544.071-.091.071.1,2.522,3.518h-.168l2.645-3.324.162-.207.084-.1.084.1,2.955,3.531h-.168l2.529-3.518.071-.1.071.1,2.483,3.544h-.11l1.08-1.293.285-.336C54.818,424.161,54.857,424.122,54.863,424.128Z"
            transform="translate(-24.973 -362.59)"/>
      <path class="main-svg-bc"
            d="M55.357,417.94c0,.065-4.443.11-9.927.11s-9.92-.045-9.92-.11,4.443-.11,9.92-.11S55.357,417.94,55.357,417.94Z"
            transform="translate(-24.891 -361.032)"/>
      <path class="main-svg-ba"
            d="M55.8,441.21c0,.058-4.831.11-10.781.11s-10.787-.052-10.787-.11,4.831-.11,10.787-.11S55.8,441.152,55.8,441.21Z"
            transform="translate(-24.439 -369.253)"/>
    </g>
    <g transform="matrix(0.985, 0.174, -0.174, 0.985, -183.289, -1467.989)">
      <rect class="main-svg-al" width="132" height="19" rx="4" transform="translate(9715.133 -1970.412)"/>
      <text class="main-svg-ak" transform="translate(9732.133 -1957.412)">
        <tspan x="0" y="0">{{ "{" }} delivery notification }</tspan>
      </text>
    </g>
    <g transform="translate(379.663 1513.026) rotate(-8)">
      <rect class="main-svg-bd" width="90" height="19" rx="4" transform="translate(9717.432 -1969.51)"/>
      <text class="main-svg-ak" transform="translate(9734.432 -1956.51)">
        <tspan x="0" y="0">{{ "{" }} new order }</tspan>
      </text>
    </g>
    <g transform="translate(9570 -1807.21)">
      <g transform="translate(0 71.563)">
        <path class="main-svg-bd"
              d="M81.89,234.085s-7.711,3.811-9.46,11.469c0,0-2.188-2.188-3.064,7.22,0,0-19.473,36.1-19.691,51.636s36.539,40.7,36.539,40.7,3.939-5.251,3.064-10.065c0,0-14.222-26.912-21.442-30.194,0,0,8.1-19.692,13.566-23.411S81.89,234.085,81.89,234.085Z"
              transform="translate(-49.674 -234.085)"/>
        <g class="main-svg-be">
          <path class="main-svg-bf"
                d="M85.148,299.493s-8.563-24.619-11.578-19.171S62.775,313.7,67.221,317.795s-2.779,4.323.555,9.765S92.782,353.372,95,352.773s-8.046-34.978-8.046-34.978Z"
                transform="translate(-53.705 -245.391)"/>
        </g>
      </g>
      <g transform="translate(34.505 186.304)">
        <path class="main-svg-bg" d="M159.559,388.354s9.189,28.816,10.939,43.071H95.67s-.658-33.815,2.188-44.6Z"
              transform="translate(-95.604 -386.822)"/>
        <path class="main-svg-t" d="M138.849,436.043c1.681,1.532,4.96,7.626,4.96,7.626"
              transform="translate(-106.362 -399.067)"/>
        <path class="main-svg-t" d="M117.827,410.122a128.281,128.281,0,0,0,12.718,16.44"
              transform="translate(-101.133 -392.618)"/>
      </g>
      <path class="main-svg-bh"
            d="M130.972,153.373s5.689-5.105,4.376-8.315c-1.713-4.187-6.126,2.043-6.126,2.043s1.75-6.418-1.991-8.022c-4-1.717-7.344,5.834-7.344,5.834s-1.036-6.48-6.71-5.105c-4.814,1.167-.875,6.564-4.814,8.315s-16.92,6.272-14.44,15.024c0,0-3.5-6.86-4.814-4.086s3.209,6.566,4.96,7c0,0-2.771,5.835-.584,7.439s1.75-4.23,1.75-4.23a33.314,33.314,0,0,0,16.921,24.505c15.494,8.427,15.075-19.546,15.075-19.546l3.887-12.544Z"
            transform="translate(-59.425 -138.825)"/>
      <path class="main-svg-v"
            d="M137.649,206.622v-4.96s8.475,1.313,9.635-.875-.737-11.232-.737-11.232,4.084.147,4.084-1.75-4.813-9.919-4.813-9.919.583-6.418,0-8.46-6.564-13.566-6.564-13.566-8.752,4.809-8.46,7.437,2.772,5.107.729,7.3-4.813,8.092-3.938,10.9l-1.313.913s-.729-5.251-3.646-6.126-5.251,4.96-3.209,9.044,4.376,3.354,4.376,3.354-1.167,7-4.23,9.336l-.918,7.293Z"
            transform="translate(-66.831 -143.063)"/>
      <ellipse class="main-svg-ah" cx="0.948" cy="1.75" rx="0.948" ry="1.75" transform="translate(75.486 31.469)"/>
      <path class="main-svg-ai" d="M142.777,198.966s.685,1.9,6.177,2.188" transform="translate(-72.835 -153.786)"/>
      <path class="main-svg-ai" d="M150.09,176.446a3.712,3.712,0,0,0-4.012,2.618"
            transform="translate(-73.656 -148.178)"/>
      <path class="main-svg-bd"
            d="M110.075,229.194s-5.835-7.913,0-8.788,29.756-2.918,33.549,0-5.834,2.042-6.418,7S110.075,229.194,110.075,229.194Z"
            transform="translate(-64.054 -158.743)"/>
      <g transform="translate(57.523 29.565)">
        <path class="main-svg-ai"
              d="M157.644,183.274c0,2.813-.82,5.093-1.832,5.093s-1.832-2.281-1.832-5.093.82-5.094,1.832-5.094S157.644,180.461,157.644,183.274Z"
              transform="translate(-133.144 -178.18)"/>
        <path class="main-svg-ai" d="M150.339,180.714l-20.164,1.472a7.225,7.225,0,0,0-3.93,1.519"
              transform="translate(-126.245 -178.81)"/>
      </g>
      <g transform="translate(82.022 20.235)">
        <path class="main-svg-v"
              d="M239.3,196.359l4.762-10.606s2.777-11.5,4.981-14.009,5.775-7.021,6.914-5.769c.823.9-.2,3.98-2.016,6.352-1.969,2.57-.37,4.977.353,5.994s5.006,3.138,8.358,3.574,10.035-3.8,12.329-2.312-2.39,3.126-2.39,3.126,3.613-.483,4.373,1.548c.448,1.2-3.265,1.176-5.072,1.36s-5.492.718-5.492.718,6.6.842,6.516,2.644-4.946.112-8.645.256c0,0,5.3,1.366,5.006,3.106s-3.091-.092-7.544-.86l-10.266-1.3-3.239,11.972Z"
              transform="translate(-178.869 -165.76)"/>
        <path class="main-svg-w"
              d="M276.43,189.136a10.046,10.046,0,0,1-7.713.985s.436,1.422,0,2.024-.382,1.805-1.477,2.571a15.6,15.6,0,0,1-1.75,1.095"
              transform="translate(-185.384 -171.575)"/>
        <g transform="translate(0 26.258)">
          <path class="main-svg-bd"
                d="M158.857,221.651s16.158.067,22.314,5.1c0,0,.031-2.626,4.844,0,0,0,14.66-1.75,21.443,0,0,0,8.314-20.567,13.346-26.037,0,0,7.22.438,9.189,3.72.936,1.56-1.277,10.138-3.338,18.876-2.275,9.646-4.556,19.485-6.508,20.289-3.719,1.532-42.884,5.033-42.884,5.033L158.857,239Z"
                transform="translate(-158.857 -200.713)"/>
          <g class="main-svg-bi">
            <path class="main-svg-bj"
                  d="M188.188,251.775s-3.655-13.078,2.217-11.855,29.207,3.616,33.516-.081,7.057-35.047,12.628-33.542,1.708,28.928,1.708,28.928,3.485,7.585-7.439,13.419l-10.924,5.835-19.305,1.669Z"
                  transform="translate(-165.874 -202.089)"/>
          </g>
        </g>
      </g>
      <g transform="translate(93 168.436)">
        <path class="main-svg-bk" d="M173.47,366.014a12.234,12.234,0,0,0,1.74-2.977"
              transform="translate(-173.47 -363.037)"/>
      </g>
      <path class="main-svg-bd"
            d="M93.61,349.05s-.438-15.753-2.626-40.259S76.543,235.276,93.61,230.9s51.116-7.125,62.576,3.939c12.691,12.253,3.064,80.517,2.626,92.332a152.266,152.266,0,0,0,1.75,25.38S115.27,362.4,93.61,349.05Z"
            transform="translate(-58.383 -160.777)"/>
    </g>
    <g transform="translate(9585.32 -1668.687)">
      <g transform="translate(0 0)">
        <path class="main-svg-bl"
              d="M151.957,284.547s-17.365,5.008-16.671,17.928,4.029,12.178-3.334,16.438-.416,12.317-2.5,15.93-15.281,13.614-9.586,18.754,34.313-5.14,44.315,0,17.9-5.766,20.553-8.59-5.133-6.829-4.855-12.525,5.279-37.161-1.111-41.363S157.477,282.248,151.957,284.547Z"
              transform="translate(-98.225 -271.722)"/>
        <g transform="translate(75.294)">
          <g transform="translate(40.229)">
            <path class="main-svg-v"
                  d="M245.306,301.347l3.187-11.564s1.251-7.919,2.293-9.481a23.8,23.8,0,0,1,3.75-3.751,27.882,27.882,0,0,1,3.32-3.855c1.369-1.146,9.392-5.313,10.017-5s1.614,2.188-3.595,5.105a13.255,13.255,0,0,1,5.157.729c2.292.938,3.855,1.2,2.865,2.188s-1.823,1.458-5.522.469a28.978,28.978,0,0,1-4.688.156l-1.146,1.354a2.252,2.252,0,0,1,2.813.885c1.041,1.668,2.239,3.751,1.719,4.949,0,0,4.011-2.084,5.105-.364s-2.293,3.282-3.647,4.324-4.637,3.855-4.637,3.855-2.345,5.262-7.241,7.189a6.933,6.933,0,0,0-.521,4.22Z"
                  transform="translate(-245.306 -267.677)"/>
            <path class="main-svg-w" d="M265.523,276.368l-1.719,1.406-1.927,3.334-1.3,4.376"
                  transform="translate(-249.104 -269.839)"/>
            <path class="main-svg-w"
                  d="M259.118,288.5s2.732,3.282,4.674,3.751a18.261,18.261,0,0,0,2.463-1.25c.346-.3.869-.89,1.927-1.734"
                  transform="translate(-248.742 -272.858)"/>
            <path class="main-svg-w"
                  d="M263.14,287.863l.251-.886a5.786,5.786,0,0,0,2.458,0l.625.886A11.61,11.61,0,0,0,263.14,287.863Z"
                  transform="translate(-249.743 -272.478)"/>
            <path class="main-svg-w" d="M266.69,283.233a4.432,4.432,0,0,0-.364,2.24"
                  transform="translate(-250.531 -271.547)"/>
            <path class="main-svg-w" d="M268.358,286.977a5.234,5.234,0,0,0-1.8,4.482"
                  transform="translate(-250.585 -272.478)"/>
            <path class="main-svg-w" d="M264.286,282.123l-1.146,1.25v1.407" transform="translate(-249.743 -271.271)"/>
          </g>
          <g transform="translate(0 30.112)">
            <path class="main-svg-av"
                  d="M192.122,347.432s26.2.666,29.968,3.438c0,0-2.358-3.792,1.872-2.552,0,0,.291-32.163,5.981-32.6l1.893-7.32a.84.84,0,0,1,1.252-.512c1.572.971,4.827,2.726,7.853,2.762a.832.832,0,0,1,.816.839v6.274s2.917.729,2.771,4.959S241.716,364.893,236.9,369s-38.654,2.064-38.654,2.064S189.934,363.039,192.122,347.432Z"
                  transform="translate(-191.755 -307.76)"/>
            <g class="main-svg-bm">
              <path class="main-svg-an"
                    d="M200.949,363.027s8.046,12.723,20.757,11.52,8.977-6,10.948-7.871,8.258.909,11.47-22.78,9.9,16.651,9.9,16.651l-1.932,19.673-12,8.752-11.273,2.2-26.4,2.155-7.977-22.49Z"
                    transform="translate(-192.425 -314.895)"/>
            </g>
          </g>
          <path class="main-svg-bn" d="M236.125,369.889s1.9,1.458,3.063,5.981"
                transform="translate(-202.793 -293.104)"/>
          <path class="main-svg-bn" d="M238.163,365.229a17.68,17.68,0,0,1,6.2,4.959"
                transform="translate(-203.3 -291.944)"/>
          <path class="main-svg-bn" d="M245.306,319.711a17.243,17.243,0,0,0,7.439,2.333"
                transform="translate(-205.077 -280.621)"/>
        </g>
        <g transform="translate(17.575 67.662)">
          <path class="main-svg-av"
                d="M125.518,424.191s-20.283-42.787-4.724-56.4,48.344-10,53.9-8.335,11.114,17.782,11.392,26.395,5.74,8.493-2.039,38.341Z"
                transform="translate(-114.923 -357.745)"/>
          <g class="main-svg-bo">
            <path class="main-svg-bp"
                  d="M131.531,401.018s10.5-11.49,11.188-7.707-12.23,25.664,1.107,31.5,22.789-.625,30.253,0,10.722,5.134,18.365,5.588,6,11.29,6,11.29l-21.279,4.585H132.99l-16-3.96-4.419-7.8v-17.5Z"
                  transform="translate(-114.337 -366.402)"/>
          </g>
        </g>
        <g transform="translate(48.175 88.055)">
          <path class="main-svg-v"
                d="M155.655,403.3l12.364-4.046s5.14-8.179,7.779-10.263,4.3-2.776,6.947-1.528l4.445-.622s1.88-2.385,4.029-1.879,10,2.917,9.168,4.584-7.5-1.389-8.474-.555c0,0,2.188,3.924,2.188,6.321s.625,6.043-.729,6.043-2.5-1.514-2.4-3.466c0,0-.417,4.3-1.771,4.091a2.565,2.565,0,0,1-2.083-3.126s-3.126,9.689-11.045,9.586L161.7,414.273S158.781,413.579,155.655,403.3Z"
                transform="translate(-155.655 -384.891)"/>
          <path class="main-svg-w"
                d="M186.583,399.992s1.875-3.751,1.354-5.522l2.709-1.042s1.146,1.563,1.979,1.146l-.417,2.136s-2.084,2.551-.938,4.01,2.813-1.874,3.751-2.813,1.146-5.07.417-6.39-3.417-1.181-4.209-2.049"
                transform="translate(-163.349 -386.03)"/>
          <path class="main-svg-w"
                d="M198,388.3s2.361-.278,3.056.868a11.332,11.332,0,0,1,1.25,5.244,34.694,34.694,0,0,1-.625,3.473"
                transform="translate(-166.189 -385.733)"/>
          <path class="main-svg-w" d="M200.88,388.557s1.342-.587,2.283,1.324" transform="translate(-166.905 -385.782)"/>
          <path class="main-svg-w" d="M177.106,411.429s.556,1.389,3.056,2.778"
                transform="translate(-160.991 -391.493)"/>
        </g>
        <g transform="translate(49.842 49.784)">
          <path class="main-svg-v"
                d="M161.9,337.142l-4.029,11.808s8.613,9.169,16.115,9.864l3.056,3.592,3.335-4.009-.834-5.14-1.347-2.171-1.154-.376,2.362-6.483-7.542-10.28h-7.323Z"
                transform="translate(-157.874 -333.947)"/>
          <g class="main-svg-bq">
            <path class="main-svg-i"
                  d="M181.33,344.227l-7.542-10.28h-7.323l-.859,1.04c.507,2.345,1.576,6.337,3.36,8.684,1.9,2.5,7.251,5.359,10.1,6.766Z"
                  transform="translate(-159.797 -333.947)"/>
          </g>
        </g>
        <path class="main-svg-v"
              d="M165.275,322.105s1.39,8.567,5.14,11.345,17.226,7.9,19.726,5.478,5-10.2,5.557-14.23-.833-10.662-.556-14.708.556-10.853-5-12.937-25.842,7.972-25.842,7.972l-1.247,7.726Z"
              transform="translate(-109.32 -274.914)"/>
        <path class="main-svg-br"
              d="M200.474,320.636s.057-.308.232-.117c.564.847,2.037,2.888,2.928,4.118a1.189,1.189,0,0,1-.282,1.67,11.23,11.23,0,0,0-3.017,2.756c-.109.237-.117.058-.117.058"
              transform="translate(-118.566 -280.807)"/>
        <path class="main-svg-bs" d="M197.989,335.827a5.532,5.532,0,0,1-7.531-.838"
              transform="translate(-116.138 -284.422)"/>
        <path class="main-svg-bs" d="M186.537,315.338s1.65-3.646,7.458-1.771" transform="translate(-115.163 -278.959)"/>
        <path class="main-svg-bs" d="M201.175,312.829a2.048,2.048,0,0,1,2.9,0"
              transform="translate(-118.804 -278.758)"/>
        <path class="main-svg-ah"
              d="M193.862,317.468c.231.862.072,1.655-.356,1.77s-.962-.492-1.194-1.354-.071-1.655.357-1.769S193.631,316.606,193.862,317.468Z"
              transform="translate(-116.573 -279.723)"/>
        <path class="main-svg-ah"
              d="M204.439,316.326c.168.786-.014,1.49-.4,1.573s-.842-.487-1.009-1.273.014-1.49.4-1.573S204.272,315.539,204.439,316.326Z"
              transform="translate(-119.249 -279.46)"/>
        <path class="main-svg-bl"
              d="M181.667,283.329s7.077-4.054,17.714,5.357c9.609,8.5-2.141,3.628-2.141,3.628s4.885,9.125-.322,11c-5.279,1.9-2.362-3.639-14.031-6.278,0,0,5.208,4.221,1.635,6.685-4.58,3.159-7.609-2.24-11.221-.99,0,0-1.943,10.7-5.834,12.5,0,0-3.786,14.341-8.77,13.422s1.129-2.864-1.649-11.616-8.752-17.017-4.168-26.5S173.918,280.038,181.667,283.329Z"
              transform="translate(-106.373 -271.148)"/>
        <g transform="translate(0 75.335)">
          <path class="main-svg-av"
                d="M122.476,367.958c-3.924.062-7.475,1.514-9.168,4.039-6.192,9.239-13.892,26.395-18.893,37.786s-2.5,18.338,0,19.172,11.391,3.611,28.618-4.724,15.559-10,15.559-10l9.88-4.56a.559.559,0,0,0,.089-.964c-1.569-1.128-4.737-4.312-4.956-11.718a.561.561,0,0,0-.767-.513L133.59,400.2s-1.39-1.531-9.447,1.525c0,0,8.057-5.835,11.669-10.28,1.7-2.094,2.231-6.035,1.649-10.027"
                transform="translate(-91.527 -367.958)"/>
          <path class="main-svg-bn" d="M112.569,418.7c2.665-2.206,13.892-3.334,14.031-5s-9.447,2.361-9.308,0"
                transform="translate(-96.762 -379.232)"/>
          <path class="main-svg-bn" d="M142.526,391.087s2.785,4.435,2.778,6.947,3.334-4.029,3.334-6.947"
                transform="translate(-104.214 -373.712)"/>
          <path class="main-svg-bn" d="M148.256,413.278s-.278,3.334,2.779,8.891"
                transform="translate(-105.638 -379.232)"/>
        </g>
        <path class="main-svg-bt"
              d="M146.03,357.4s2.855-8.45,6.189-7.207,19.588,8.289,21.88,16.227c0,0-3.334-4.395-6.251,0S162.138,366.9,146.03,357.4Z"
              transform="translate(-105.086 -288.172)"/>
        <path class="main-svg-bt"
              d="M184.547,356.68A17.253,17.253,0,0,1,183.393,368s2.5-3.211,5.418-1.022,0-6.95-1.354-8.677a14.33,14.33,0,0,0-2.6-1.827A.2.2,0,0,0,184.547,356.68Z"
              transform="translate(-114.38 -289.757)"/>
        <g transform="translate(57.269 85.182)">
          <path class="main-svg-bu"
                d="M1.319,0H34.665a0,0,0,0,1,0,0V3.056a0,0,0,0,1,0,0H1.68A1.68,1.68,0,0,1,0,1.377V1.319A1.319,1.319,0,0,1,1.319,0Z"
                transform="translate(0 47.566)"/>
          <path class="main-svg-bu"
                d="M282.958,433.426H212.4a2.992,2.992,0,0,1-2.874-3.828l13.845-47.637a2.993,2.993,0,0,1,2.874-2.158H296.8a2.993,2.993,0,0,1,2.874,3.828l-13.845,47.637A2.993,2.993,0,0,1,282.958,433.426Z"
                transform="translate(-178.119 -382.804)"/>
        </g>
        <path class="main-svg-bl"
              d="M156,334.326s-5.67,8.857-2.336,16.837.417,12.113-3.473,9.123-5.7-6.275-23.2-3.5l11.67-11.393,7.918-10.614,7.415-3.49Z"
              transform="translate(-100.35 -283.501)"/>
      </g>
    </g>
    <g transform="matrix(0.996, -0.087, 0.087, 0.996, 209.969, 1142.576)">
      <rect class="main-svg-av" width="88" height="19" rx="4" transform="translate(9718.182 -1975.414)"/>
      <text class="main-svg-ak" transform="translate(9735.182 -1962.414)">
        <tspan x="0" y="0">{{ "{" }} like event }</tspan>
      </text>
    </g>
  </g>
</svg>
