<svg xmlns="http://www.w3.org/2000/svg" width="179.799" height="30.295" viewBox="0 0 179.799 30.295">
  <g id="Group_7908" data-name="Group 7908" transform="translate(-675 10722)">
    <path id="Union_27" data-name="Union 27" d="M384.6,404.7a6.536,6.536,0,0,1-1.887-4.723,6.731,6.731,0,0,1,6.614-6.846h.2a5.89,5.89,0,0,1,6.125,5.646c.005.137.006.274,0,.411a8.338,8.338,0,0,1-.213,1.849h-9.4l.046.18a3.652,3.652,0,0,0,3.88,2.751,5.771,5.771,0,0,0,2.6-.612,1.421,1.421,0,0,1,.63-.147,1.328,1.328,0,0,1,1.144.637,1.35,1.35,0,0,1,.155,1.036,1.336,1.336,0,0,1-.61.835,7.805,7.805,0,0,1-4.013,1.1h-.224A7.067,7.067,0,0,1,384.6,404.7Zm1.487-6.109-.045.18h6.383v-.15a2.881,2.881,0,0,0-2.919-2.842l-.106,0a3.436,3.436,0,0,0-3.313,2.808ZM291.715,404.7a6.532,6.532,0,0,1-1.886-4.725,6.731,6.731,0,0,1,6.616-6.844h.2a5.89,5.89,0,0,1,6.125,5.646c0,.137.006.274,0,.411a8.526,8.526,0,0,1-.213,1.849h-9.4l.045.18a3.652,3.652,0,0,0,3.877,2.751,5.778,5.778,0,0,0,2.6-.612,1.426,1.426,0,0,1,.631-.147,1.33,1.33,0,0,1,1.142.637,1.345,1.345,0,0,1,.156,1.036,1.329,1.329,0,0,1-.61.835,7.8,7.8,0,0,1-4.011,1.1h-.228A7.072,7.072,0,0,1,291.715,404.7Zm1.485-6.109-.046.18h6.386v-.15a2.876,2.876,0,0,0-2.909-2.843l-.118,0a3.433,3.433,0,0,0-3.312,2.808Zm-18.646,8.223a.787.787,0,0,1-.7-.465l-4.834-10.7a1.576,1.576,0,0,1,2.852-1.343c.013.029.026.057.037.086l2.835,6.849,3.514-7.64a.807.807,0,0,1,1.46,0l3.567,7.5,2.78-6.7a1.576,1.576,0,0,1,2.914,1.2c-.008.019-.016.038-.025.056l-4.834,10.7a.79.79,0,0,1-1.424.014l-3.352-6.794a.4.4,0,0,0-.708,0l-3.353,6.8a.785.785,0,0,1-.705.44ZM308.16,404.9l-.262-.351v.441a1.5,1.5,0,0,1-1.5,1.5h-.055a1.5,1.5,0,0,1-1.483-1.5v-16.76a1.676,1.676,0,0,1,3.352,0v6.723l.254-.275a5.009,5.009,0,0,1,3.87-1.529c3.658,0,6.31,2.876,6.31,6.837s-2.665,6.825-6.322,6.825A5,5,0,0,1,308.16,404.9Zm-.021-4.929a3.469,3.469,0,0,0,3.107,3.8,3.361,3.361,0,0,0,.4.017,3.559,3.559,0,0,0,3.6-3.519c0-.106,0-.213-.011-.319a3.585,3.585,0,0,0-3.347-3.809c-.079-.006-.158-.008-.237-.008-2.1,0-3.509,1.546-3.509,3.841Zm33.63,6.659a6.752,6.752,0,0,1-3.719-1.11l-.229-.153c-.064-.047-.127-.088-.189-.141s-.122-.092-.18-.143a.4.4,0,0,1-.057-.045c-.069-.054-.136-.111-.2-.172-.082-.073-.162-.149-.237-.223a6.338,6.338,0,0,1-1.574-2.445.346.346,0,0,1-.027-.076,6.823,6.823,0,1,1,12.716-4.951l.011.028.081.2,1.775-1.784c1.753-1.908,3.32-2.684,5.42-2.684a6.832,6.832,0,0,1,5.889,3.441c.045.08.088.147.122.214s.08.153.116.229a5.992,5.992,0,0,1,.3.7c.043.118.08.238.113.357a5.986,5.986,0,0,1,.189.847c.018.1.03.189.039.284a7.219,7.219,0,0,1,.045.749v.32a1.605,1.605,0,0,1-.021.325,7.16,7.16,0,0,1-1.039,3.055c-.055.086-.113.172-.17.257-.045.069-.093.135-.144.2s-.112.152-.176.226a6.882,6.882,0,0,1-3.557,2.274c-.107.024-.217.051-.329.073s-.177.037-.256.045l-.262.037a6.916,6.916,0,0,1-.827.049,6.722,6.722,0,0,1-3.567-1.012c-.069-.045-.139-.1-.207-.149a1.624,1.624,0,0,1-.664-1.993,1.57,1.57,0,0,1,1.475-.977h.031a1.367,1.367,0,0,1,.532.116l.44.238a3.542,3.542,0,0,0,1.715.572h.156a3.7,3.7,0,0,0,3.2-1.876l.1-.2a3.649,3.649,0,0,0,.338-1.528,3.52,3.52,0,0,0-.127-.957,3.635,3.635,0,0,0-3.5-2.684,3.731,3.731,0,0,0-2.908,1.439c-.3.392-1.8,2.2-3.119,3.788-1.1,1.332-2.055,2.481-2.134,2.573a6.755,6.755,0,0,1-5.365,2.662Zm-3.64-6.85a3.633,3.633,0,1,0,3.643-3.623h0v-.012h-.008A3.637,3.637,0,0,0,338.129,399.781Zm-17.276,5.05v-16.6a1.677,1.677,0,0,1,3.353-.082c0,.027,0,.055,0,.082v6.539l.249-.247a4.946,4.946,0,0,1,3.567-1.392c2.917,0,4.8,2.048,4.8,5.221v6.479a1.663,1.663,0,1,1-3.326,0v-5.962a2.573,2.573,0,0,0-2.392-2.745c-.076-.006-.152-.007-.229-.006a2.607,2.607,0,0,0-2.676,2.536c0,.072,0,.143,0,.215v5.962a1.677,1.677,0,0,1-3.353.082v-.082Zm43.343,0v-16.6a1.676,1.676,0,0,1,3.352,0v10.394l4.689-5.5a1.5,1.5,0,1,1,2.3,1.906l-.024.028-3.475,4.114,3.551,4.847a1.534,1.534,0,1,1-2.473,1.815h0l-4.572-6.3v5.3a1.676,1.676,0,1,1-3.352,0Zm14.612,1.663a1.671,1.671,0,0,1-1.667-1.675h0V394.2a1.677,1.677,0,0,1,3.353-.082c0,.027,0,.055,0,.082v10.617a1.674,1.674,0,0,1-1.672,1.675Zm-.008-16.545h.008a1.706,1.706,0,0,1,0-3.411h.083a1.76,1.76,0,0,1,1.694,1.706,1.633,1.633,0,0,1-.481,1.177,1.8,1.8,0,0,1-1.278.529Z" transform="translate(459.139 -11103.281)" fill="#13204a"/>
    <g id="Group_7907" data-name="Group 7907" transform="translate(459.139 -11103.281)">
      <path id="Path_5351" data-name="Path 5351" d="M260.68,391.2a12.235,12.235,0,0,0-6.853-3.473l0-.007-.281-.045a18.182,18.182,0,0,0-2.85-.226c-.458,0-.914.013-1.387.044a13.229,13.229,0,0,0-11.186-6.21c-.226,0-.454,0-.67.016h-.074c-4.776.39-8.248,2.4-10.617,6.148a14.26,14.26,0,0,0-1.975,6.075,4.551,4.551,0,0,0-2.5-.755h-.005a4.447,4.447,0,0,0-2.75.956,9.435,9.435,0,0,0-3.606,6.257,10.792,10.792,0,0,0-.061,1.359,10.37,10.37,0,0,0,3.212,7.275,10.564,10.564,0,0,0,7.355,2.963h.027l25.7-.018a13.755,13.755,0,0,0,4.823-.854,10.619,10.619,0,0,0,2.871-1.6c.257-.215.51-.445.751-.682A12.193,12.193,0,0,0,260.68,391.2Zm-36.081,8.55v.066a4,4,0,0,0,3.9,4h.1a4,4,0,0,0,4-3.97.437.437,0,0,0,0-.1v-2.29a.357.357,0,0,0-.036-.224.35.35,0,0,0-.207-.171.353.353,0,0,0-.425.181l-1.332,1.749a1.252,1.252,0,0,0-.251.746,1.8,1.8,0,0,1-1.675,1.813h-.081a1.736,1.736,0,0,1-.446-.056,1.779,1.779,0,0,1-1.158-.976l-.019-.062a1.681,1.681,0,0,1-.129-.657c0-.081.033-1.478.056-2.444.012-.516.021-.91.021-.922,0-2.333.2-5.326,1.755-7.783,2-3.154,4.826-4.778,8.9-5.108.179-.012.364-.016.575-.016,4.137,0,7.471,2.062,9.912,6.132l.109.176h.239a20.248,20.248,0,0,1,2.259-.133,15.557,15.557,0,0,1,2.591.2,9.939,9.939,0,0,1,5.877,16.847h-.014l-.08.081c-.2.2-.4.384-.605.553a8.385,8.385,0,0,1-2.359,1.275,12.1,12.1,0,0,1-4.038.686h-25.6a8.292,8.292,0,0,1-8.322-8.039,7.638,7.638,0,0,1,.045-1.05,7.2,7.2,0,0,1,2.76-4.753,2.236,2.236,0,0,1,1.372-.478h0a2.313,2.313,0,0,1,2.314,2.314l0,2.355a.235.235,0,0,0,0,.064Z" fill="#0151cc"/>
      <path id="Path_5352" data-name="Path 5352" d="M243.083,399.454a.141.141,0,0,0,.086.179c.415.1,1.425.729,1.425,1.329v2.988c0,.021,0,.042,0,.063a1.8,1.8,0,0,0,1.9,1.7h.948a.134.134,0,0,0,.132-.118v-.01a.131.131,0,0,0-.081-.154,1.83,1.83,0,0,1-1.122-1.7v-2.958a1.8,1.8,0,0,0-.508-1.184.127.127,0,0,1,0-.2,1.764,1.764,0,0,0,.508-1.183v-2.953a1.572,1.572,0,0,1,1.1-1.7.134.134,0,0,0,.1-.138.139.139,0,0,0-.137-.125h-.94l-.052,0a1.806,1.806,0,0,0-1.848,1.763v2.991c0,.607-1.01,1.231-1.425,1.331A.139.139,0,0,0,243.083,399.454Z" fill="#0151cc"/>
      <path id="Path_5353" data-name="Path 5353" d="M251.934,399.693c.412.1,1.421.725,1.421,1.331v1.809c0,.023,0,.046,0,.069a1.8,1.8,0,0,0,1.9,1.692h.948a.133.133,0,0,0,.131-.119v-.01a.138.138,0,0,0-.078-.159,1.848,1.848,0,0,1-1.125-1.694V400.83a1.784,1.784,0,0,0-.509-1.184.126.126,0,0,1-.049-.1.131.131,0,0,1,.049-.1,1.759,1.759,0,0,0,.509-1.183v-1.775a1.567,1.567,0,0,1,1.107-1.693.14.14,0,0,0,.089-.15.137.137,0,0,0-.132-.114h-.94l-.055,0a1.807,1.807,0,0,0-1.85,1.765V398.1c0,.607-1.009,1.231-1.421,1.331a.134.134,0,0,0-.091.091A.137.137,0,0,0,251.934,399.693Z" fill="#0151cc"/>
      <path id="Path_5354" data-name="Path 5354" d="M247.652,399.633c.391.1,1.354.729,1.354,1.329v.632c0,.021,0,.043,0,.064a1.752,1.752,0,0,0,1.809,1.693l.914-.006a.132.132,0,0,0,.129-.117v-.012a.132.132,0,0,0-.085-.159,1.834,1.834,0,0,1-1.07-1.7v-.591a1.826,1.826,0,0,0-.485-1.183.132.132,0,0,1,0-.2,1.8,1.8,0,0,0,.485-1.183v-.592a1.562,1.562,0,0,1,1.054-1.694.139.139,0,0,0,.089-.139.133.133,0,0,0-.131-.124h-.971a1.751,1.751,0,0,0-1.739,1.763v.625c0,.607-.954,1.231-1.354,1.331a.14.14,0,0,0-.086.085A.141.141,0,0,0,247.652,399.633Z" fill="#0151cc"/>
      <path id="Path_5355" data-name="Path 5355" d="M234.4,399.634c.415.1,1.421.728,1.421,1.328v2.387l0,.058a1.806,1.806,0,0,0,1.9,1.7l.943.005a.145.145,0,0,0,.06-.274,1.825,1.825,0,0,1-1.124-1.7v-2.366a1.783,1.783,0,0,0-.51-1.182.125.125,0,0,1-.023-.023.131.131,0,0,1,.023-.185,1.753,1.753,0,0,0,.51-1.183v-2.366a1.57,1.57,0,0,1,1.1-1.7.134.134,0,0,0-.041-.262h-.942l-.06,0a1.8,1.8,0,0,0-1.846,1.762v2.4c0,.607-1.006,1.231-1.421,1.331a.139.139,0,0,0,0,.264Z" fill="#0151cc"/>
      <path id="Path_5356" data-name="Path 5356" d="M238.688,399.5a.132.132,0,0,0,.1.132c.414.1,1.423.723,1.423,1.329v3.573c0,.024,0,.047,0,.071a1.8,1.8,0,0,0,1.906,1.688h.945a.147.147,0,0,0,.056-.278,1.825,1.825,0,0,1-1.125-1.7v-3.55a1.791,1.791,0,0,0-.507-1.183.127.127,0,0,1-.049-.1.131.131,0,0,1,.049-.1,1.764,1.764,0,0,0,.507-1.184v-3.548a1.57,1.57,0,0,1,1.107-1.7.133.133,0,0,0,.093-.149.135.135,0,0,0-.136-.113h-.94l-.061,0a1.8,1.8,0,0,0-1.847,1.763v3.584c0,.607-1.009,1.231-1.423,1.331A.131.131,0,0,0,238.688,399.5Z" fill="#0151cc"/>
    </g>
  </g>
</svg>
